<mxfile host="65bd71144e">
    <diagram id="X2NEL9tfH-lM8cmRK7B3" name="Page-1">
        <mxGraphModel dx="889" dy="440" grid="0" gridSize="10" guides="1" tooltips="1" connect="1" arrows="1" fold="1" page="1" pageScale="1" pageWidth="827" pageHeight="1169" background="#ffffff" math="0" shadow="0">
            <root>
                <mxCell id="0"/>
                <mxCell id="1" parent="0"/>
                <mxCell id="2" value="" style="shape=image;verticalLabelPosition=bottom;labelBackgroundColor=default;verticalAlign=top;imageAspect=0;image=data:image/png,iVBORw0KGgoAAAANSUhEUgAAARoAAAD+CAYAAADlEcqaAAAMQWlDQ1BJQ0MgUHJvZmlsZQAASImVVwdYU8kWnluSkJDQAghICb0JIjWAlBBaAOlFsBGSAKHEGAgqdmRRwbWgYgEbuiqi2AGxI3YWxd4XRFSUdbFgV96kgK77yvfm++bOf/85858z587cewcA9ZNcsTgH1QAgV5QviQ0JYIxNTmGQngJVoAmowBPYcnl5YlZ0dASAZbD9e3l3EyCy9pqDTOuf/f+1aPIFeTwAkGiI0/h5vFyIDwKAV/HEknwAiDLefGq+WIZhBdoSGCDEC2U4Q4GrZDhNgffKbeJj2RC3AKBC5XIlGQCoXYE8o4CXATXU+iB2EvGFIgDUGRD75uZO5kOcCrENtBFDLNNnpv2gk/E3zbQhTS43Ywgr5iIvKoHCPHEOd/r/mY7/XXJzpIM+rGClZkpCY2Vzhnm7nT05XIapEPeK0iKjINaC+IOQL7eHGKVkSkMTFPaoIS+PDXMGdCF24nMDwyE2hDhYlBMZoeTT0oXBHIjhCkGnCfM58RDrQbxQkBcUp7TZJJkcq/SF1qdL2Cwlf54rkfuV+XoozU5gKfVfZwo4Sn1MrTAzPgliCsQWBcLESIjVIHbMy44LV9qMLsxkRw7aSKSxsvgtII4ViEICFPpYQbokOFZpX5qbNzhfbFOmkBOpxPvzM+NDFfnBWnhcefxwLtgVgYiVMKgjyBsbMTgXviAwSDF37JlAlBCn1Pkgzg+IVYzFKeKcaKU9bibICZHxZhC75hXEKcfiiflwQSr08XRxfnS8Ik68MIsbFq2IB18GIgAbBAIGkMKaBiaDLCBs623ohXeKnmDABRKQAQTAQckMjkiS94jgNQ4Ugj8hEoC8oXEB8l4BKID81yFWcXUA6fLeAvmIbPAE4lwQDnLgvVQ+SjTkLRE8hozwH965sPJgvDmwyvr/PT/IfmdYkIlQMtJBjwz1QUtiEDGQGEoMJtriBrgv7o1HwKs/rM44E/ccnMd3e8ITQjvhEeEGoYNwZ5KwSPJTlGNAB9QPVuYi7cdc4FZQ0w0PwH2gOlTGdXED4IC7Qj8s3A96doMsWxm3LCuMn7T/NoMfnobSjuxERsnDyP5km59HqtmpuQ2pyHL9Y34UsaYN5Zs91POzf/YP2efDNvxnS2whdgA7h53CLmBHsQbAwE5gjVgrdkyGh1bXY/nqGvQWK48nG+oI/+Fv8MnKMpnnVOvU4/RF0ZcvmCZ7RwP2ZPF0iTAjM5/Bgl8EAYMj4jmOYDg7ObsAIPu+KF5fb2Lk3w1Et/U7N/8PAHxODAwMHPnOhZ0AYJ8H3P6Hv3M2TPjpUAXg/GGeVFKg4HDZhQDfEupwp+kDY2AObOB8nIE78Ab+IAiEgSgQD5LBRBh9JlznEjAVzATzQAkoA8vAKrAObARbwA6wG+wHDeAoOAXOgkvgCrgB7sHV0w1egD7wDnxGEISE0BA6oo+YIJaIPeKMMBFfJAiJQGKRZCQVyUBEiBSZicxHypByZB2yGalB9iGHkVPIBaQduYN0Ij3Ia+QTiqFUVBs1Qq3QkSgTZaHhaDw6Ac1Ap6CFaDG6BF2DVqO70Hr0FHoJvYF2oC/QfgxgqpguZoo5YEyMjUVhKVg6JsFmY6VYBVaN1WFN8DlfwzqwXuwjTsTpOAN3gCs4FE/AefgUfDa+GF+H78Dr8Rb8Gt6J9+HfCDSCIcGe4EXgEMYSMghTCSWECsI2wiHCGbiXugnviESiLtGa6AH3YjIxiziDuJi4nriHeJLYTuwi9pNIJH2SPcmHFEXikvJJJaS1pF2kE6SrpG7SBxVVFRMVZ5VglRQVkUqRSoXKTpXjKldVnqp8JmuQLcle5CgynzydvJS8ldxEvkzuJn+maFKsKT6UeEoWZR5lDaWOcoZyn/JGVVXVTNVTNUZVqDpXdY3qXtXzqp2qH6laVDsqmzqeKqUuoW6nnqTeob6h0WhWNH9aCi2ftoRWQztNe0j7oEZXc1TjqPHV5qhVqtWrXVV7qU5Wt1RnqU9UL1SvUD+gflm9V4OsYaXB1uBqzNao1DiscUujX5OuOUozSjNXc7HmTs0Lms+0SFpWWkFafK1irS1ap7W66BjdnM6m8+jz6VvpZ+jd2kRta22OdpZ2mfZu7TbtPh0tHVedRJ1pOpU6x3Q6dDFdK12Obo7uUt39ujd1Pw0zGsYaJhi2aFjdsKvD3usN1/PXE+iV6u3Ru6H3SZ+hH6Sfrb9cv0H/gQFuYGcQYzDVYIPBGYPe4drDvYfzhpcO3z/8riFqaGcYazjDcIthq2G/kbFRiJHYaK3RaaNeY11jf+Ms45XGx417TOgmviZCk5UmJ0yeM3QYLEYOYw2jhdFnamgaaio13WzaZvrZzNoswazIbI/ZA3OKOdM83XylebN5n4WJxRiLmRa1FnctyZZMy0zL1ZbnLN9bWVslWS2warB6Zq1nzbEutK61vm9Ds/GzmWJTbXPdlmjLtM22XW97xQ61c7PLtKu0u2yP2rvbC+3X27ePIIzwHCEaUT3ilgPVgeVQ4FDr0Omo6xjhWOTY4PhypMXIlJHLR54b+c3JzSnHaavTvVFao8JGFY1qGvXa2c6Z51zpfN2F5hLsMsel0eWVq72rwHWD6203utsYtwVuzW5f3T3cJe517j0eFh6pHlUet5jazGjmYuZ5T4JngOccz6OeH73cvfK99nv95e3gne290/vZaOvRgtFbR3f5mPlwfTb7dPgyfFN9N/l2+Jn6cf2q/R75m/vz/bf5P2XZsrJYu1gvA5wCJAGHAt6zvdiz2CcDscCQwNLAtiCtoISgdUEPg82CM4Jrg/tC3EJmhJwMJYSGhy4PvcUx4vA4NZy+MI+wWWEt4dTwuPB14Y8i7CIkEU1j0DFhY1aMuR9pGSmKbIgCUZyoFVEPoq2jp0QfiSHGRMdUxjyJHRU7M/ZcHD1uUtzOuHfxAfFL4+8l2CRIE5oT1RPHJ9Ykvk8KTCpP6hg7cuyssZeSDZKFyY0ppJTElG0p/eOCxq0a1z3ebXzJ+JsTrCdMm3BhosHEnInHJqlP4k46kEpITUrdmfqFG8Wt5vancdKq0vp4bN5q3gu+P38lv0fgIygXPE33SS9Pf5bhk7EioyfTL7Mis1fIFq4TvsoKzdqY9T47Knt79kBOUs6eXJXc1NzDIi1RtqhlsvHkaZPbxfbiEnHHFK8pq6b0ScIl2/KQvAl5jfna8Ee+VWoj/UXaWeBbUFnwYWri1APTNKeJprVOt5u+aPrTwuDC32bgM3gzmmeazpw3s3MWa9bm2cjstNnNc8znFM/pnhsyd8c8yrzseb8XORWVF72dnzS/qdioeG5x1y8hv9SWqJVISm4t8F6wcSG+ULiwbZHLorWLvpXySy+WOZVVlH1ZzFt88ddRv675dWBJ+pK2pe5LNywjLhMtu7ncb/mOcs3ywvKuFWNW1K9krCxd+XbVpFUXKlwrNq6mrJau7lgTsaZxrcXaZWu/rMtcd6MyoHJPlWHVoqr36/nrr27w31C30Whj2cZPm4Sbbm8O2VxfbVVdsYW4pWDLk62JW8/9xvytZpvBtrJtX7eLtnfsiN3RUuNRU7PTcOfSWrRWWtuza/yuK7sDdzfWOdRt3qO7p2wv2Cvd+3xf6r6b+8P3Nx9gHqg7aHmw6hD9UGk9Uj+9vq8hs6GjMbmx/XDY4eYm76ZDRxyPbD9qerTymM6xpccpx4uPD5woPNF/Unyy91TGqa7mSc33To89fb0lpqXtTPiZ82eDz54+xzp34rzP+aMXvC4cvsi82HDJ/VJ9q1vrod/dfj/U5t5Wf9njcuMVzytN7aPbj1/1u3rqWuC1s9c51y/diLzRfjPh5u1b42913ObffnYn586ruwV3P9+be59wv/SBxoOKh4YPq/+w/WNPh3vHsc7AztZHcY/udfG6XjzOe/ylu/gJ7UnFU5OnNc+cnx3tCe658nzc8+4X4hefe0v+1Pyz6qXNy4N/+f/V2je2r/uV5NXA68Vv9N9sf+v6trk/uv/hu9x3n9+XftD/sOMj8+O5T0mfnn6e+oX0Zc1X269N38K/3R/IHRgQcyVc+a8ABiuang7A6+0A0JIBoMPzGWWc4vwnL4jizCpH4D9hxRlRXtwBqIP/7zG98O/mFgB7t8LjF9RXHw9ANA2AeE+AurgM1cGzmvxcKStEeA7YFPU1LTcN/JuiOHP+EPfPLZCpuoKf238B39d8k3gwCt8AAAA4ZVhJZk1NACoAAAAIAAGHaQAEAAAAAQAAABoAAAAAAAKgAgAEAAAAAQAAARqgAwAEAAAAAQAAAP4AAAAAXQdDzgAAJOFJREFUeAHtnQm0FMXVx0tW2TcVkO3JchCIGFABCQQVxEOEaALGIEsUJYokghqUIKAEFRJMYkRDCAE8BlRcQtgkBFBZYkBAtoBEFJEABmVfVOCBn/+K1V+/+3r26p6Z7n+dM6/rdlffqvr1vDtV1VV1z6lVq9aXioEESIAEfCRQwkfdVE0CJEACmgANDb8IJEACvhOgofEdsT8ZVKtWzR/F1BoIgRo1agSST65kUipXCmKjHAMGDFBdu3bVqk6dOqX69+9vQ62jo1mzZurhhx92ZBM5c+aMOnLkiNq7d6969tln1e7du80lq0fU71vf+pbCl7RUqf89usLCQrVr1y41c+ZMtXr16ozyGzx4sOrYsaOjA7r379+v9f/73/9WCxYscK7ZikyaNEklYzQPHTqkBg0alHG2vXr1UvgkE0aOHKnef//9ZJImTFOzZk113333qXr16qlKlSqpc845R3355Zfq6NGjas6cOeqll15KqCNRAvfzu/fee9XHH39c7JaxY8eqJk2aKHxn+/TpU+y6XydCZWg6d+6sKlas6LBq06aNevvttx0500jlypWL6Hfrq1Kliqpfv75q166dWrp0qfrtb3/rvpxx/Omnn1YFBQXF9MDgNGzYUOFLlqmhqVOnTrH6Va1aVTVu3Fhdc801+ouJL+q7775brBzpnrjgggtU2bJlE95eunTphGmSSVC7du1idYx1HwyCjYDv4YgRI5wfB6MTxgbfG/wg4tn+6le/MpfSOrqfX4UKFTx1XHjhhUnX31NBmidDY2jOO+88/dDcHLp162bV0Lh1Hzx4UG3evFn/MuGh4guMh4gAg4cWwGuvvea+Je04WkmoH8IXX3yhli1bptatW6fOP/981bp1a/1JW3mMGzdu3Kiv4JcYLSj8o8PQTpgwQU2cOFEtWrQoxp3pnT579qyuU6y70bKyHdAS3LdvX0y1aKFmGlq1aqVGjx7tqEEL6a233tKt3ksuuUS3UKtXr67KlCnjpAljJDSGpnv37s7zOX78uLba3/jGN5xztiNbt27V/3RuvWjaX3/99foUymPD0HTq1MkxMmhm33333erw4cNOtmh2w8ihxWEzTJ8+vUi3Ad0ItNYQbr/9duuGBl3dMWPG2KxCQl2zZ89WixcvTpgukwTu7h6+D7///e8ddTA4kydP1l1CGNowh9AMBrdv314/p5MnT+pffAjlypXTTdKgHiDGG0xAl8BGwD+1CePGjStiZMx59MUxRuNnePTRR9WOHTt0FuXLl1e9e/f2M7tQ6EaLxbRyMcbkNjLuCuJ7A4MT5hAaQ4NfdYTt27erhQsXOs/su9/9rhP3O2KMHfKx0dRHtwXNaoRjx47prpoWsvTnueeec3Lu0qWLE2fEm8BNN93kXLDd1XQU50kkFF0ndFcwsIawYsUKtXPnToWWDQYZL7/8cl8ehXnrA+UwcuiL33bbbU5eNt7QNGrUyNG3bds2J56tyNq1a/WbErDGeI3NAJ0Yc4oVPv3001iX0j6P/OrWret5v403h+76uH/8PDO0fBLjangTKoP7eyuv+SmHwtC4xyfMPzgG3Vq0aKFbBBjZ94KeCViMV8yfP7+YCgzWvvDCC2revHnFrqV6ouCrNxEm2GghGV2ZHDGWAgOezJuiVPKBPowLxQqrVq1S6L7ZDLfccovCxyvYeHOI750JBw4cMNFAjqNGjQokn2QzCYWhMb/8eBNkwvLly7WhgYyBWb/HMEy++MVo0KCBETM6un9t/fhFT6dwMKQwCiVKhKbXnQ6GpO7BWBYC5iPJgK6nu3WBOTVh7l7lvaHBHAXzwNavX+88T7RszIh/hw4drBsavL6G8UKTH3NNMJcFXx686kYLC79mXpP7nAImEXG/8jx9+nQSd/ifxP12BK/cbbW0UL9f/vKXMSvw0UcfxbyW7gV8R2LNPcKr70yDMcYwIjIMHTpUnlIbNmyI+7q92A1xTsSaOPrTn/602DSQOGqsXcp7Q4O5MiYsWbLERPURLRwMprpbBkUSZCCghfHOO+84GtDUnjJlip7hiV+yyy67TGEwN948DefmGJE9e/Y4V2y9xXIUphnBmzwE/PPYMjLQh5mq6B4FGdC9dj9D23mj9YfvgvkhtK0/nj4YLa9ZzQMHDsyKocn79q97rsyDDz6oZsyY4XzQ0kBAq+Paa6+N91ysXYPBMQHLBTIJ//nPf5zbc2VtjGllYayGIT4BvClEwPdPBnTn8Vm5cqW8FEo5rw0NBkvNLyyeDgyL+2OarrgWlKFxN7kzbUmZeSsovxmHQjxbAUssDFNMimSIT8Dd4nOvIYt/Vziv5nXXyT1HButvvLopGJ9B0xULyYIIphWFvNAdyCTA0KDlgFYEumGZdsUyKQvuveOOOxwVWH7BEJ8AZv7izSdCz5499dSL+HeE92peGxr3HJlhw4Z5PqWvdhBUF198sV6rc+mllyqzhsczsYWT7paTjX9GvEL//ve/r0s2fPhwhVW5XgGzUG3k56Ub5zBXCXOFEPAW5YknntBx/olNAMtDsEIa4zRokfr9jGKXJPtX8tbQ4K2OmTXrfq0tkeI1NwwNAvrEtgwNDBjWISFg8hq6SWg9mbkTaIkg70zDtGnTVI8ePbShRKsMq7gxXd0Yleuuu07deuutCm9tbG6Lgbd5MMx4m4Z8zVR61MeP17BodZp1YrGYmTlSsa7n4vlXXnlFPxeM0zz22GMKs6vx0gLr1dAVbd68eS4W23qZ8tbQuL+U8YzH3Llz1Y9//GMNrmXLltYAYuuEWK0ovJHBdgq2wkMPPaT1Yf4KxqWw5gl5uAcZ4xnbdMrhNZENr7ZnzZplfaoAygdDY6YjxCovBk5tT7yMlZet89hnBts3YEU/xrfwo4CPfH5oJXp1/W2VI9t68nYw+Morr3TYJVqBa/4JMcclmU2WHMUiEm/MBS0K/BNgCwe0QNxzeoSalEWsFEcfHwPN+IIiuI0MWk/IN9NgdLv14BUtFm2uWbNG4dVoUBMf3WUwcRtGxv0Mvepr8rJ5xN5EaImCpQnu54fW6Y033mgupX1018c938mt0J3Gfd7v+Dn0guA3Yvv60ZVBt+azzz7TK6pzYR2U/VqGV+O3v/1tva4LPyA2NxHLZWI0NLn8dFg2EggJgbztOoWEP6tBApEgQEMTicfMSpJAdgnQ0GSXP3MngUgQoKGJxGNmJUkguwRoaLLLn7mTQCQI0NBE4jGzkiSQXQI0NNnlz9xJIBIEaGgi8ZhZSRLILgFf1zphbZF7R6+pU6damSqfXWTMnQRIIFUCvhga+DfC3iVy+0ksLmMgARKIHgHrhga+mZs1axY9kqwxCZBATALWx2iM0yysEsUKZmz+w0ACJBBtAtZbNPAxjN3XsSwem/uY3eGijZm1J4FoE7BuaGJtNRltzKw9CUSbgPWuU7RxsvYkQAJeBGhovKjwHAmQgFUCNDRWcVIZCZCAFwEaGi8qPEcCJGCVAA2NVZxURgIk4EWAhsaLCs+RAAlYJUBDYxUnlZEACXgRsD6PxiuTIM79+te/Vk2bNnWygg+dXr16ObLtCPOzS5Q885tnotKHpkXjdsiFSks5EYhUr0v9Uk5VX6L0Ur+UE92f6nWpX8qp6kuUXuqXcqL7U70u9Us5VX2J0kv9Uk50f6rXpX4pp6ov0/S+tGi6dOmifUWjcC1atHDKCB/Y3bp10zI8O8IHMQMJkED4CfhiaIYOHepJrnXr1gofE2hoDAkeSSDcBLLWdbLtA1jqk7Ltxyj1S5n5pUZA8pNyatoSp5b6pZxYQ2oppH4pp6YtcWqpX8qJNdhNQZe4dnlSGwmQgAeBrLVoPMrCUyRAAiElQEMT0gfLapFALhGgocmlp8GykEBICdDQhPTBslokkEsEaGhy6WmwLCQQUgI0NCF9sKwWCeQSARqaXHoaLAsJhJQADU1IHyyrRQK5RMB3Q2P8POVSpVkWEiCBYAlYX+vUtm1b1bNnT9WoUSNVtmxZpzYnT55UmzZtUmPGjHHOMUICJBANAlaXIHTs2FE9+OCDcckVFhYqLLrcuXNn3HS8SAIkEB4C1ls0Bg0MydatW9UHH3yg0H3q0aOHqlChgipVqpQaN26c6t27t0nKIwmQQMgJWDU0+/fv192jZ555Ru3Zs6cIuhkzZqiXX35ZlStXTlWqVEldeumlauPGjUXSUCABEggngZIVK1Z8xFbVYGiWLl2qjh075qnyggsuUE2aNNHX4Jd7w4YNnul4kgRIIFwEfH/r5MZ19uxZRzxz5owTZ4QESCDcBAI1NO5tPVeuXBlusqwdCZCAQyAwQ4MxmYKCAp3x559/rnbs2OEUghESIIFwEwjM0IwcOdIhOX78eCfOCAmQQPgJBGJo4LMHb5sQ0GVat25d+MmyhiRAAg4B3w3NiBEjHMduu3fvVmzNOOwZIYHIEPDV0AwaNEi1b99ewzx48KC66667IgOWFSUBEvh/Ar4Zmj59+qjrr79e53TixAnVv3///8+VMRIggUgRsDoz2JC74YYbnCUGWEw5ePBgc8m3I30320VLnuRpk4D1Fg3c4Q4cOFCX8dSpU+qee+5RmDHsd5C+haVsO3+pX8rMLzUCkp+UU9OWOLXUL+XEGlJLIfVLOTVtiVNL/VJOrMFuCqstGsyVGTJkiFPCRYsWqW9+85v645z8OoLFltu2bZOnKZMACYSQgFVDA7/absuJFduxwpYtWxJuKRHrXp4nARLILwJWu07utUyJMKSSNpEuXJe+haWcjI5U0kj9Uk5FVzJppX4pJ6MjlTRSv5RT0ZVMWqlfysnoSCWN1C/lVHQlk1bql3IyOlJJI/VLORVdNtJa3fjKRoGogwRIIHwErLZowoeHNSIBErBBgIbGBkXqIAESiEuAhiYuHl4kARKwQYCGxgZF6iABEohLgIYmLh5eJAESsEGAhsYGReogARKIS4CGJi4eXiQBErBBgIbGBkXqIAESiEvAd0NTs2bNuAXgRRIggfATsLrWCbjgErdp06aqevXq2iulQYiV3FhEie0HDhw4YE7zSAIkEAEC1pcgzJ8/Py42rHF64IEHuHI7LiVeJIFwEfDF0Bw5ckRt3rxZffjhhwoeKa+44grVsmVLVb58eU3viy++UL169QoXSdaGBEggJgHrhiZmTl9dmDZtmoJbXISf//zn2hhpgX9IgARCTcD3wWA3vddff90RsUkWAwmQQDQIBGpoatSo4VA9evSoE2eEBEgg3AQCMzSdO3dW+CBgE55//OMf4SbL2pEACTgErL/eNpp79uypOnXqpCpUqKDHZcwWn4WFhWrq1Kl8xW1A8UgCESDgm6HBGEzDhg2LIERLZtSoURwELkKFAgmEn0DJihUrPuJHNTEeU7VqVfXZZ5+pkiVLqtKlS+uNy+GOBfGNGzf6kS11kgAJ5CCBwF5vX3755eqhhx7SRgYc+Ho7B78NLBIJ+EQgsMHgtWvXqgkTJjjVuPXWW504IyRAAuEmEJihAca33nrLcYtiJu6FGy9rRwIkAAK+DQbHwmvePtn2M0Nf0bGIp3eePNPjFuuusPOMVW9z3mqLpkqVKkav5/HOO+90zu/evduJ24gYA2Z0Sdmct3WU+qVsKx+jR+qXskln6yj1S9lWPkaP1C9lk87WUeqXsq18jB6pX8omna2j1C9lW/kkq8dqiwZbRDRr1kytWbNG/f3vf1fbt29XWGBZUFCg+vXrp9q2beuUa/HixU6cERIggXATsGpogAqvrtu3b68/sdCtW7dOvfHGG7Eu8zwJkEDICFg1NGjJNGjQQMXqQp08eVLNmjVLvfTSS9YxyjEfKdvOUOqXMvNLjYDkJ+XUtCVOLfVLObGG1FJI/VJOTVvi1FK/lBNrsJvCt3k0rVq1UrVq1VLVqlVTH3/8sXrvvffUnj177Jae2kiABPKCgG+GJi9qz0KSAAkEQsDqW6dASsxMSIAE8o4ADU3ePTIWmATyjwANTf49M5aYBPKOAA1N3j0yFpgE8o8ADU3+PTOWmATyjgANTd49MhaYBPKPAA1N/j0zlpgE8o4ADU3ePbLgCxxrpnfwJWGO+UrA6hKEWBCaNGmifvGLX+itPJFmyJAhat++fbGS83wOELj//vtV69atVeXKlfVzg+/0//73v+o3v/mNev/9962UcObMmXqbV2z3OmDAAE+d559/vnryySd1uuPHj6s77rjDMx1P5jaBQFo02JC8UqVK6qv9ifWnbNmyuU0l4qX73e9+p66++mq9Zs1sL1CmTBlVv3599cQTTyhbzv927Nihvw/YBO3ee+/1pI7tX9GiwneHLno8EeXFSd8NzW233aaqV6+eFzBYSKV+9rOfqUaNGmkU8JH+4osv6hbFli1b9LlSpUqpMWPGWEGFH6DTp09rXddcc42qWbNmEb3YVqRx48b63MGDB9X06dOLXKeQPwR8NTT44nzve9/TNE6cOJE/VCJc0iuvvFLX/uzZs+q+++5TM2bMUEuWLFHYa+jdd9/V12BsbrjhBiuUnn32Wa0HLSdsWO8OQ4cOdcSxY8c6cUbyj4Cvhubhhx9WJUqUUHv37rXWr88/xPlT4o4dOyrTrcWmZbt27SpS+D/+8Y+O3KNHDyeeSWTOnDnOeB1aL23atNHqMGaD7jbCsmXL9CZqWuCfvCTgm6H5zne+o/v02Afj0UcfzUs4USu0ac2g3v/85z+LVR/Gx3R1bG4uj66Y2S8FrRj4A7vxxht1/hgodnvPKFYonsgLAr4ZmoEDB2oAGMCTv4x5QSaChXSPpZluksSArVkR0FK1FfD9QKsFAW+54DLZ6MfgM0P+E7D3bXGxeOyxx/SWnnglOn78eNcVRnOZgHu+DAZfvcLnn3/unJaDt86FNCIwKBh8RjDdt82bN6u33347DW28JdcIWDc08EhpXn/il4khfwjgFbIJ2BXRK7gNTZ06dbySpH3uL3/5S5F75eBwkYsU8oqAdUMzbNgwDQCTuxYsWJBXMKJeWNNdicchmTTx7o93rVu3bkUuDxo0qIhMIX8JWDU0mHRVoUIFTePxxx/PXyoRLbl7CgJm5HoFTNwzYf/+/Saa8RFvmbC/tDvA8MQqhzsd47lPwOoSBMwmRcAXtnPnzvpjENSrV89E1c0336wOHz6sVq1apdAPZ8gNAseOHXMKgn/6Tz/91JFN5NxzzzVRa4P8GOsxb5nwVgtvmUaMGKEHhEeOHKmXrDiZMpKXBKwaGjNdHa2aeBO6OnXqpGHhDQMNTe58bw4dOuQUBm5z4LlCBjOOY15Hy+vpyGa+Fe7FBD74aMd6KsyrwSxlzO9ZsWJFOqp5T44QsGpo0JKBAzmvgCa3MUT41cLM0wMHDnglTetc2H0bB1E/GJZ27dpp/vjnlt5EzzvvPFW+fHl9/ejRo2k9J3mTmW+F8xjXwwQ+hHHjxqk//elP+jtzzz33WDc0QfDUFfn6T9jzc9fVK27V0Pzwhz/0ykOfwytv8zYKq7dtz60xRswUQMrmvK2j1C9lW/kYPVK/lE26TI5w7Ne3b1/dZWnRokUxVT/4wQ+cc8uXL3fimUTMfCu0kLDC3wSs7kceaP2WK1dOwdg89dRT5nLGR8lPyhlnIBRI/VIWyTMWpX4pZ5xBigqsDganmDeT5yCBbdu26VJhLsukSZOUeYXds2dPhdYHAozC5MmTdTyTP2a+FXS8+eabxX58MFZjZiJfe+21qnbt2plkx3uzSICGJovwczFrNPHNxDkM4MOgzJ8/X2EVvgkvv/yyiaZ9vOyyy5wWLvJDvl7hhRde0Kfxi4zV3gz5SSAwQ4MxGT+DHJyUsu28pX4p52t+6LJgc6lPPvmkWBUKCwvVlClT1HPPPVfsWqonsDLchHhdInTnzLIH7IeDrSNsBPm8pGwjD7cOqV/K7rQ24lK/lG3kkYoOusRNhVYE02JQGHNZVq9eTd/pEXz+tqpMQ2OLJPWQAAnEJBBY1ylmCXiBBEgg9ARoaEL/iFlBEsg+ARqa7D8DloAEQk+Ahib0j5gVJIHsE6Chyf4zYAlIIPQEaGhC/4hZQRLIPgEamuw/A5aABEJPgIYm9I84/yro3rs4/0rPEnsRsLp6GxlgM/KCggKvvJxzs2fPVrNmzXJkRnKDQDZ9YQfh6zs3KEezFNZbNBdeeKHjY9v42pZHrsLNzS9btnxhB+XrOzepR6NU1ls0BhsW4K1fv96IRY50oVEER84IWB2N1iY2L4Mv7Oeff97xIolC+uELW/r6/utf/6o3wMK2ENgTx/j6Nlt95gwsFiQlAtbXOmFlLxyRwS9Q//79UyoME2efALZgNZtRYTtNt/9rbNlg3NRiI3p4rsw0vPrqq9qPE1b3/+QnPymyJw32o2nWrJnOAqvGze57mebJ+4MnYL3rFHwVmKNNAkH6ws6Gr2+brKgreQI0NMmzikzKoHxhZ8vXd2QeZA5V1LcxGjhqx1sMuOeAo3ZsPL1o0SK1ZMmSHKo+i+JFwPjCvuqqq3z1hZ2sr29siu6n4zovBjxnl4BvLRp8MTAfAnvPwkcQ+tro70+cONFuDajNFwJB+MJ2z5cJ2te3L9CoNCYBXwwNBvbwq7h27Vq1YcOGIm5VLrroIu1KI2aJeCFnCPjtC9v4iEKFs+HrO2dAR6Ag1rtOeFPg5RQOXiyxTyw2mb7kkktUy5Yt1aZNmyKAOH+r6OULG54RbIVkukPJpLFVHurxj4D1Fo2XkUHx33jjDfX66687NcEbB4bcJRCEL+xs+vrOXfLhLJl1QxMP08KFC53LDRs2dOKM5BYB6Qv78ccf1wVE6wK+sG0F6evbS68fvr698uE5fwkEamjcTuONa1V/q0ft6RCI5Qsbuowv7HT0ynukr295HbIZx8m2uxCvsvFc8gSsj9HEy9rtZnXPnj3xkqZ8Ley+jYOqX5C+sLPh69t8sYLiGZX8TD1jHQNt0cAxmQnG9aqRMz1K38JSzlS/vF/ql7JMn6ks9Us5U/3mfrP8AC0IL1/YSGd8YZt70j3COZxxLOj+ETL6/PD1bXRLflI26WwdpX4p28rH6JH6pWzSBXW0amiGDx+uXnnlFe2Q3f3FadOmjZo2bZpeA4WKwQUq0jHkFoFs+MI2PzhB+PrOLdrRKo31rhMG77p27ao/XijxS4k9axhyi0AqvrCxWBa/kFjtfffdd2dUEXRhnnnmGT2D3Pj6lgpt+PqWOikHS8BqiwareU+fPh2zBhiXGTx4sJ7IFzNRmhfkYKGU01Qb8zapX8oxb0zzgtQv5TTVOrdlyxd2UL6+nYp+HZH8pCzTZypL/VLOVL+8X+qXskzvt2x9mwgUGM7YGzRooLBGBXubYLuBd955x++6UH8ICNDXdwgeokcVfDE0HvnwFAmQQIQJWO06RZgjq04CJBCHAA1NHDi8RAIkYIcADY0djtRCAiQQhwANTRw4vEQCJGCHAA2NHY7UQgIkEIcADU0cOLxEAiRghwANjR2O1EICJBCHQGCGBpP3GEiABKJJwPpaJ4OxRo0a6oEHHtAzhM2eIrh2/PhxtXjxYjV16lSTlEcSIIGQE/ClRdO8eXMFz4JYwe02MmAJGe5WGUiABKJDwHqLBi40sDrbbCoNf05r1qxRcCBft25dBadh2M+EgQRIIDoErBsabJxkjMzKlSuLbQkxffr06NBlTUmABDQB612nDh06aMUYi+G+M/yWkQAJgIBVQ9OuXTtVqtT/Gklwf8tAAiRAAiBgteuEfWhMWLZsmerZs6fC/iIYm4H/bWx8ha4TNqVmIAESiA6Bkl+9BXrEVnU7d+6s3XFAHxy4d+/eXR/RysEAMPwFYZtP7A8LV7kMJEAC0SBgtesEQ2JC27ZtFbYPhP/tefPmqa1bt+pL2Gu2V69eig7kDCkeSSD8BKx2nbBtpzuMHj1arV+/3jnVp08f1bt3by0PGTJE4cNAAiQQfgJWWzRHjhxxiO3cubOIkcGFmTNnqlOnTuk0derUcdIyQgIkEG4CVg3N/v37HVqmq+Sc+Dpy+PBhHcM4DQMJkEA0CPhmaE6cOOFJ8OTJk/p8tj3neRaOJ0mABHwhYHWMxngdREljdY0qV66sK1JYWGi1QvSlbBWnIk/ytEnAaotmy5Yter4MCgjPhzJgPg3WQiEcO3ZMXs5Ili0kKWek3ONmqV/KHrdkdErql3JGyj1ulvql7HFLRqekfilnpNzjZqlfyh63ZHRK6pdyRso9bpb6pexxi6+nrBoalBTrmxAwBvP000/rOP7g1bd7ScLChQuda4yQAAmEm4DVrhNQPfXUU+qKK65Q1apVUwUFBWr+/PkK3SSzNAFpMCD8/PPPI8pAAiQQAQLWWzRg1q9fP/Xhhx86+NxGZtOmTapv377ONVsR6VtYyrbyMXqkfimbdLaOUr+UbeVj9Ej9UjbpbB2lfinbysfokfqlbNLZOkr9UraVj9Ej9UvZpAvq6LtL3NatW6vGjRvr/WgwS5iBBEggegR8NzTRQ8oakwAJSAK+dJ1kJpRJgASiTYCGJtrPn7UngUAI0NAEgpmZkEC0CdDQRPv5s/YkEAgBGppAMDMTEog2ARqaaD9/1p4EAiFAQxMIZmZCAtEmQEMT7efP2pNAIASsrnW688471dVXX51Uwfft28etPJMixUQkkP8ErBoa7EEjfW3HQmR7P5pY+fA8CZBA9glYNTTLly9XZ86ciVkreD6oUaOGvr569eqY6XiBBEggXAQCXes0adIkVa9ePU3wRz/6kTpw4EC4aLI2JEACngQCGwxGS8YYGXispJHxfB48SQKhJBCYocEeNSbMnTvXRHkkARKIAIHADE2HDh00TgwCL1iwIAJoWUUSIAFDIBBDAyNz7rnn6jyxwx4DCZBAtAgEYmhuuukmh+qMGTOcOCMkQALRIBCIocFrbQS4zH3vvfeiQZa1JAEScAj4bmgGDRqkjE+ZN99808mYERIggegQ8N3QXHXVVZomdmGfMmVKdMiypiRAAg4BXw0NPCBUqFBBZ/bRRx85mTJCAiQQLQJWlyBIdLfccotzavbs2U7cjwh9RdulSp7kaZOAry2apk2b6rKePn1aLV261Ga5i+ky40DmgpTNeVtHqV/KtvIxeqR+KZt0to5Sv5Rt5WP0SP1SNulsHaV+KdvKx+iR+qVs0tk6Sv1StpVPsnp8MzRYy2QqR8dxyT4OpiOBcBLwzdB07drVIfbnP//ZiTNCAiQQPQK+GJr69eurKlWqaJoHDx5Uu3bt8p2s9C0sZdsFkPqlzPxSIyD5STk1bYlTS/1STqwhtRRSv5RT05Y4tdQv5cQa7KYIdJsIu0WnNhIggXwh4EuLJl8qz3KSAAkEQ4CGJhjOzIUEIk2AhibSj5+VJ4FgCNDQBMOZuZBApAnQ0ET68bPyJBAMARqaYDgzFxKINAEamkg/flaeBIIhQEMTDGfmQgKRJhCIoalWrVqkIbPyJBB1Ar5sE1GzZk01bNgw1bhxY1Wq1P+ywBToo0ePqpkzZ6rXXnst6txZfxKIFAHrSxCwP/CTTz6pSpSI3ViCO9yxY8dGCjQrSwJRJlCyYsWKj9gEMHHiRFWuXDmt8pNPPlGvvvqqwqZXX+WjatWqpbeOqFu3rtqxY4favXu3zaypiwRIIEcJWO86Va1aVVf17NmzasCAAU61sSfNqFGjVNu2bfU57CW8atUq5zojJEAC4SUQu3+TRp1btWrl3AX/2jLMmTPHOYVWDQMJkEA0CFg1NHv37nWoVapUyYmbyEUXXWSi2seTIzBCAiQQagJWDc2+ffvUsWPHNDB0oS6++OIi8Lp37+7If/vb35w4IyRAAuEmYP2tU/PmzdXo0aP14C/QwTvloUOHFHbdw5sovObGRuV4M8VAAiQQDQLWDQ2wYRvPP/zhD8qr+zR58mQ1b968aNBlLUmABDQB64amffv2avjw4c48mpMnT6ozZ87oV97GK8K//vUvnYbPgARIIBoErBuauXPnaiOD19sTJkxQK1ascEiilWPeNi1YsEBNmjTJucYICZBAeAlYHQy+/fbbnZYMDInbyADhXXfdpWCAELp06aKP/EMCJBB+AlYNTaNGjRxiy5cvd+LuCNyvIJQtW9Z9mnESIIEQE7A6M7hMmTIOKrOY0jnxdSTeGiiZNhWZvqJToZU4LXkmZpRKirDzTMTCaovmgw8+cPK77rrrnLiJYLsIs2UEBoltBjPQbHRK2Zy3dZT6pWwrH6NH6peySWfrKPVL2VY+Ro/UL2WTztZR6peyrXyMHqlfyiadraPUL2Vb+SSrx6qhcXeXOnXqpG6++WanHLVr19ZzZ0yFd+7c6VxjhARIINwErHadtmzZolauXKk6dOigV2n369dP9e3bVxUWFqrSpUs7JE+fPq3uv/9+R2aEBEgg3ASstmiAavz48erFF1/UxgUyWjBuI7N9+3b99gnXbAbpW1jKNvOCLqlfyswvNQKSn5RT05Y4tdQv5cQaUksh9Us5NW2JU0v9Uk6swW4K6/No3MXDJlhNmzbVM4Sx/wy2imAgARKIHgFfDU30cLLGJEACXgSsd528MuE5EiCBaBOgoYn282ftSSAQAjQ0gWBmJiQQbQI0NNF+/qw9CQRCgIYmEMzMhASiTYCGJtrPn7UngUAI/B+y82HnOv/BzAAAAABJRU5ErkJggg==;" vertex="1" parent="1">
                    <mxGeometry x="357" y="13" width="106" height="106" as="geometry"/>
                </mxCell>
                <mxCell id="3" value="" style="shape=image;verticalLabelPosition=bottom;labelBackgroundColor=default;verticalAlign=top;imageAspect=0;image=data:image/png,iVBORw0KGgoAAAANSUhEUgAAATYAAAEECAYAAACiDhgPAAAMQWlDQ1BJQ0MgUHJvZmlsZQAASImVVwdYU8kWnluSkJDQAghICb0JIjWAlBBaAOlFsBGSAKHEGAgqdmRRwbWgYgEbuiqi2AGxI3YWxd4XRFSUdbFgV96kgK77yvfm++bOf/85858z587cewcA9ZNcsTgH1QAgV5QviQ0JYIxNTmGQngJVoAmowBPYcnl5YlZ0dASAZbD9e3l3EyCy9pqDTOuf/f+1aPIFeTwAkGiI0/h5vFyIDwKAV/HEknwAiDLefGq+WIZhBdoSGCDEC2U4Q4GrZDhNgffKbeJj2RC3AKBC5XIlGQCoXYE8o4CXATXU+iB2EvGFIgDUGRD75uZO5kOcCrENtBFDLNNnpv2gk/E3zbQhTS43Ywgr5iIvKoHCPHEOd/r/mY7/XXJzpIM+rGClZkpCY2Vzhnm7nT05XIapEPeK0iKjINaC+IOQL7eHGKVkSkMTFPaoIS+PDXMGdCF24nMDwyE2hDhYlBMZoeTT0oXBHIjhCkGnCfM58RDrQbxQkBcUp7TZJJkcq/SF1qdL2Cwlf54rkfuV+XoozU5gKfVfZwo4Sn1MrTAzPgliCsQWBcLESIjVIHbMy44LV9qMLsxkRw7aSKSxsvgtII4ViEICFPpYQbokOFZpX5qbNzhfbFOmkBOpxPvzM+NDFfnBWnhcefxwLtgVgYiVMKgjyBsbMTgXviAwSDF37JlAlBCn1Pkgzg+IVYzFKeKcaKU9bibICZHxZhC75hXEKcfiiflwQSr08XRxfnS8Ik68MIsbFq2IB18GIgAbBAIGkMKaBiaDLCBs623ohXeKnmDABRKQAQTAQckMjkiS94jgNQ4Ugj8hEoC8oXEB8l4BKID81yFWcXUA6fLeAvmIbPAE4lwQDnLgvVQ+SjTkLRE8hozwH965sPJgvDmwyvr/PT/IfmdYkIlQMtJBjwz1QUtiEDGQGEoMJtriBrgv7o1HwKs/rM44E/ccnMd3e8ITQjvhEeEGoYNwZ5KwSPJTlGNAB9QPVuYi7cdc4FZQ0w0PwH2gOlTGdXED4IC7Qj8s3A96doMsWxm3LCuMn7T/NoMfnobSjuxERsnDyP5km59HqtmpuQ2pyHL9Y34UsaYN5Zs91POzf/YP2efDNvxnS2whdgA7h53CLmBHsQbAwE5gjVgrdkyGh1bXY/nqGvQWK48nG+oI/+Fv8MnKMpnnVOvU4/RF0ZcvmCZ7RwP2ZPF0iTAjM5/Bgl8EAYMj4jmOYDg7ObsAIPu+KF5fb2Lk3w1Et/U7N/8PAHxODAwMHPnOhZ0AYJ8H3P6Hv3M2TPjpUAXg/GGeVFKg4HDZhQDfEupwp+kDY2AObOB8nIE78Ab+IAiEgSgQD5LBRBh9JlznEjAVzATzQAkoA8vAKrAObARbwA6wG+wHDeAoOAXOgkvgCrgB7sHV0w1egD7wDnxGEISE0BA6oo+YIJaIPeKMMBFfJAiJQGKRZCQVyUBEiBSZicxHypByZB2yGalB9iGHkVPIBaQduYN0Ij3Ia+QTiqFUVBs1Qq3QkSgTZaHhaDw6Ac1Ap6CFaDG6BF2DVqO70Hr0FHoJvYF2oC/QfgxgqpguZoo5YEyMjUVhKVg6JsFmY6VYBVaN1WFN8DlfwzqwXuwjTsTpOAN3gCs4FE/AefgUfDa+GF+H78Dr8Rb8Gt6J9+HfCDSCIcGe4EXgEMYSMghTCSWECsI2wiHCGbiXugnviESiLtGa6AH3YjIxiziDuJi4nriHeJLYTuwi9pNIJH2SPcmHFEXikvJJJaS1pF2kE6SrpG7SBxVVFRMVZ5VglRQVkUqRSoXKTpXjKldVnqp8JmuQLcle5CgynzydvJS8ldxEvkzuJn+maFKsKT6UeEoWZR5lDaWOcoZyn/JGVVXVTNVTNUZVqDpXdY3qXtXzqp2qH6laVDsqmzqeKqUuoW6nnqTeob6h0WhWNH9aCi2ftoRWQztNe0j7oEZXc1TjqPHV5qhVqtWrXVV7qU5Wt1RnqU9UL1SvUD+gflm9V4OsYaXB1uBqzNao1DiscUujX5OuOUozSjNXc7HmTs0Lms+0SFpWWkFafK1irS1ap7W66BjdnM6m8+jz6VvpZ+jd2kRta22OdpZ2mfZu7TbtPh0tHVedRJ1pOpU6x3Q6dDFdK12Obo7uUt39ujd1Pw0zGsYaJhi2aFjdsKvD3usN1/PXE+iV6u3Ru6H3SZ+hH6Sfrb9cv0H/gQFuYGcQYzDVYIPBGYPe4drDvYfzhpcO3z/8riFqaGcYazjDcIthq2G/kbFRiJHYaK3RaaNeY11jf+Ms45XGx417TOgmviZCk5UmJ0yeM3QYLEYOYw2jhdFnamgaaio13WzaZvrZzNoswazIbI/ZA3OKOdM83XylebN5n4WJxRiLmRa1FnctyZZMy0zL1ZbnLN9bWVslWS2warB6Zq1nzbEutK61vm9Ds/GzmWJTbXPdlmjLtM22XW97xQ61c7PLtKu0u2yP2rvbC+3X27ePIIzwHCEaUT3ilgPVgeVQ4FDr0Omo6xjhWOTY4PhypMXIlJHLR54b+c3JzSnHaavTvVFao8JGFY1qGvXa2c6Z51zpfN2F5hLsMsel0eWVq72rwHWD6203utsYtwVuzW5f3T3cJe517j0eFh6pHlUet5jazGjmYuZ5T4JngOccz6OeH73cvfK99nv95e3gne290/vZaOvRgtFbR3f5mPlwfTb7dPgyfFN9N/l2+Jn6cf2q/R75m/vz/bf5P2XZsrJYu1gvA5wCJAGHAt6zvdiz2CcDscCQwNLAtiCtoISgdUEPg82CM4Jrg/tC3EJmhJwMJYSGhy4PvcUx4vA4NZy+MI+wWWEt4dTwuPB14Y8i7CIkEU1j0DFhY1aMuR9pGSmKbIgCUZyoFVEPoq2jp0QfiSHGRMdUxjyJHRU7M/ZcHD1uUtzOuHfxAfFL4+8l2CRIE5oT1RPHJ9Ykvk8KTCpP6hg7cuyssZeSDZKFyY0ppJTElG0p/eOCxq0a1z3ebXzJ+JsTrCdMm3BhosHEnInHJqlP4k46kEpITUrdmfqFG8Wt5vancdKq0vp4bN5q3gu+P38lv0fgIygXPE33SS9Pf5bhk7EioyfTL7Mis1fIFq4TvsoKzdqY9T47Knt79kBOUs6eXJXc1NzDIi1RtqhlsvHkaZPbxfbiEnHHFK8pq6b0ScIl2/KQvAl5jfna8Ee+VWoj/UXaWeBbUFnwYWri1APTNKeJprVOt5u+aPrTwuDC32bgM3gzmmeazpw3s3MWa9bm2cjstNnNc8znFM/pnhsyd8c8yrzseb8XORWVF72dnzS/qdioeG5x1y8hv9SWqJVISm4t8F6wcSG+ULiwbZHLorWLvpXySy+WOZVVlH1ZzFt88ddRv675dWBJ+pK2pe5LNywjLhMtu7ncb/mOcs3ywvKuFWNW1K9krCxd+XbVpFUXKlwrNq6mrJau7lgTsaZxrcXaZWu/rMtcd6MyoHJPlWHVoqr36/nrr27w31C30Whj2cZPm4Sbbm8O2VxfbVVdsYW4pWDLk62JW8/9xvytZpvBtrJtX7eLtnfsiN3RUuNRU7PTcOfSWrRWWtuza/yuK7sDdzfWOdRt3qO7p2wv2Cvd+3xf6r6b+8P3Nx9gHqg7aHmw6hD9UGk9Uj+9vq8hs6GjMbmx/XDY4eYm76ZDRxyPbD9qerTymM6xpccpx4uPD5woPNF/Unyy91TGqa7mSc33To89fb0lpqXtTPiZ82eDz54+xzp34rzP+aMXvC4cvsi82HDJ/VJ9q1vrod/dfj/U5t5Wf9njcuMVzytN7aPbj1/1u3rqWuC1s9c51y/diLzRfjPh5u1b42913ObffnYn586ruwV3P9+be59wv/SBxoOKh4YPq/+w/WNPh3vHsc7AztZHcY/udfG6XjzOe/ylu/gJ7UnFU5OnNc+cnx3tCe658nzc8+4X4hefe0v+1Pyz6qXNy4N/+f/V2je2r/uV5NXA68Vv9N9sf+v6trk/uv/hu9x3n9+XftD/sOMj8+O5T0mfnn6e+oX0Zc1X269N38K/3R/IHRgQcyVc+a8ABiuang7A6+0A0JIBoMPzGWWc4vwnL4jizCpH4D9hxRlRXtwBqIP/7zG98O/mFgB7t8LjF9RXHw9ANA2AeE+AurgM1cGzmvxcKStEeA7YFPU1LTcN/JuiOHP+EPfPLZCpuoKf238B39d8k3gwCt8AAACKZVhJZk1NACoAAAAIAAQBGgAFAAAAAQAAAD4BGwAFAAAAAQAAAEYBKAADAAAAAQACAACHaQAEAAAAAQAAAE4AAAAAAAAAkAAAAAEAAACQAAAAAQADkoYABwAAABIAAAB4oAIABAAAAAEAAAE2oAMABAAAAAEAAAEEAAAAAEFTQ0lJAAAAU2NyZWVuc2hvdNW+fj0AAAAJcEhZcwAAFiUAABYlAUlSJPAAAAHWaVRYdFhNTDpjb20uYWRvYmUueG1wAAAAAAA8eDp4bXBtZXRhIHhtbG5zOng9ImFkb2JlOm5zOm1ldGEvIiB4OnhtcHRrPSJYTVAgQ29yZSA2LjAuMCI+CiAgIDxyZGY6UkRGIHhtbG5zOnJkZj0iaHR0cDovL3d3dy53My5vcmcvMTk5OS8wMi8yMi1yZGYtc3ludGF4LW5zIyI+CiAgICAgIDxyZGY6RGVzY3JpcHRpb24gcmRmOmFib3V0PSIiCiAgICAgICAgICAgIHhtbG5zOmV4aWY9Imh0dHA6Ly9ucy5hZG9iZS5jb20vZXhpZi8xLjAvIj4KICAgICAgICAgPGV4aWY6UGl4ZWxZRGltZW5zaW9uPjI2MDwvZXhpZjpQaXhlbFlEaW1lbnNpb24+CiAgICAgICAgIDxleGlmOlBpeGVsWERpbWVuc2lvbj4zMTA8L2V4aWY6UGl4ZWxYRGltZW5zaW9uPgogICAgICAgICA8ZXhpZjpVc2VyQ29tbWVudD5TY3JlZW5zaG90PC9leGlmOlVzZXJDb21tZW50PgogICAgICA8L3JkZjpEZXNjcmlwdGlvbj4KICAgPC9yZGY6UkRGPgo8L3g6eG1wbWV0YT4KW72bMwAAABxpRE9UAAAAAgAAAAAAAACCAAAAKAAAAIIAAACCAAAXDa0K3yoAABbZSURBVHgB7J0JtE3VH8d/xmdIhjzUKkuD9GrFItJS0ooGPMkcMs9ElCEkswzlSR5lLEPmZKqVWDKshKVCiUiSIcs8j/H/f/fqXOe+d4fz7tnnOPf03Wu9d8+wz96//dnnfM8+e8xUpEiRG0JHAiRAAj4ikInC5qPcZFJIgAQUAQobbwQSIAHfEaCw+S5LmSASIAEKG+8BEiAB3xGgsPkuS5kgEiABChvvARIgAd8RoLDFaZbmz59fTp48GafW0+w77rhDjh8/ThAOEfCVsLVs2VKef/55herKlSvStGlTrdiSkpKkf//+6cL8559/5PTp03Lo0CH55JNP5MCBA+n86DiA9D355JOChyJr1qwqyGvXrsn+/ftl1qxZsnHjRlvRdOrUSSpWrBgIA2EfO3ZMhb9r1y5Zvnx54JyujQkTJghEOpqDiHfo0CGat6jn69atK/iz4t5++23Zs2ePFa9R/RQuXFjeeOMNueeeeyRPnjySKVMmuXHjhpw5c0YWL14s8+bNixpGNA/m/OvWrZscPnw43SWDBw+W4sWLC+7Zxo0bpzvvlwO+EjY83Hnz5g3kzaBBg2TTpk2Bfbsb5cuXl379+kUNZtWqVZKSkhLVX0Y8jBs3TooVKxb2khMnTtgW8mHDhknJkiXDxoGHEA/Gr7/+GtZPRk8sXLhQEhISol52+fJlqVOnTlR/0Tx07txZXnjhhWje1Hnk9Y8//mjJbyRPjz/+uPTp0yfwMgrld+3atTJy5MhQpywfM+df165dQ4rylClTBCILl5ycbDnsePPoG2ErWLCgKi2ZM2Dz5s0ycOBA8yFb22Zhg5Bs375dvXlz584td955p9x1112B8MePHy9ffvllYN/OBkqBSB/cpUuXZM2aNbJlyxZJTEyUMmXKqD+UaOyWUM0PxtatW1V8eAhQQsyWLZvax78PP/xQvv7668C+nQ1D2K5fv67SFC4slBxTU1PDnbZ83CxsKOkeOXIk7LUfffRRxPNhLzSdKF26tHoZGIdQAvzuu+9Uqf7RRx9VJfACBQrI999/L0OGDDG8xfRrzj8Km0+GVDVv3jzwiXHu3Dm57bbb5OLFi1KvXr2YbpJQF5mFbf369TJ8+PAgb/hUql69ujqGh6Zjx45B52PZqVSpkvTo0UNdihITwjx16lRQUBDVZ599Vn2OBp3I4E6kBwOfZU888YQK8cKFC1K/fv0Mhh7auyFsEGyrn4ihQ7J21CxsH3zwgXzzzTfWLozR18SJEwMvPLzo8MJL63DfQNg//vjjtKcytB8p/4yAWGIzSMTJr3ED4ZNl5cqVAYF57bXXZN++fVpSEU3YEMmyZctUXLoe1OnTpwve6HC9e/dWpUS148C/aA/G2LFj5b777lMx47N/9uzZtq3ws7ChRPbuu+8qRihRN2nSxDavSAFEyz9cS2GLRNCD55YuXao+C3/++WfBJwTqpOBWrFgheCB1uGjCVqFCBVWXgrjQgNC+fXtb0eIzEDci3NmzZ6Vhw4a2wot2cbQHo2zZsjJgwAAVDD7hWrVqFS3IqOf9LGyo40VVAdycOXNk5syZUXnY8RAt/xA2hc0OYZevxeef0WKGVja03hkPjI5KdSM5ZmEz14ngUxB1KS1atJCcOXMq7/isgNjacWah1F1fGMouKw+G8QLR9Zlv5BNK2pFeBEePHg1lcoaPmT9FP/vsM0GlfSino2Ub9yJaQeGaNWvmePcOc/6hkWfv3r3pkvbee++pOlOcYONBOjzeOvD+++9LiRIllFFGZo0YMUIeeeQRdQzN2uiOYdeZhS1cWPgExScaHli7rlGjRoI/uK+++kpL5Xkkm8wPRrjKZ0OIUCf00ksvRQrO0jkjvGiezS+SaH4jnTcLWyR/Olq2IZy33367isa4LyPFafecOf+shOWGTVbscMKPL1pFv/jiC9WUbi6dmUtxEBrUCdl1VoQNfb9QChg9erTd6KRnz57y9NNPq3BQ16ajr1Mko8wPRjhhM3ep0fFg+FnYjPsS98TLL78chL5KlSpB3T/Qp81uS7M5/4IiC7OjI//CBH3LD8e9sKGP0DvvvKNApn3LGhX5f/31V+BT1Q5xs7ChwyoecnS0zJcvn6pUx82Krh9w6I4RqjNvRuI3t0SibmTRokUZuTzDfs0PRjhhmzFjRqBDLVqi0Q3DjjOE7erVq4JSdjj3559/huxwGs5/uOPmEhuqLMJ1akartt20LVmyRDJnzixIW61atYJMMu5N80HUWUbqfmL2G2rbnH/hOooj/UZfTwpbKIoeOQbxKFeunLImbauh0aKIt2GNGjVsW2wWtlDdPRABSlW5cuVScdm9UVFnZ3RKRd2W3e4A0QCYH4xwwrZgwQLJkSOH6jWvg6khbLpakaOl0SxsTnf3MO6FUPef08IWLv/YeBDtDvHI+fnz5wcq7NP270L9Bt6YcDpuYivC1q5du4CITp06VT7//POYSaEEiBsUDp06ITxOOivCZpRCdI0E8LOwWRGRt956S5566imVrXZfhFbyz4pNTt5jboUd15+iGGJkdOuIBmzHjh2qziqav0jnrQhb1apVBWP24Ox2NUGfMaOriq7uFZHSF+3BKFq0aKCDKQZwo6XPrvOzsJkbsLC9bt26dLgobOmQaDkQ18LWpUuXwKB3jF8MVT+BtyEGjIeq58goQSvChr5mxuBiHS2ZKPFlz55dmWr3jR4tvdGEzdwv69tvvxV0HbDr/CxsNWvWlDZt2ihEGEpllL7NzChsZhr6tuNa2Iw6NOAIVxGKh++hhx5SxPr27SvGGMhYEFoRNnx+FipUSAWPQc3h+klZjR8zetSuXVt53717t2DWhlAOvdwxdtWOiyRsaGVGPzM0loRq5Ys1Xj8LG5iY69kwED5tHlHYYr1zIl8Xt8KGlh2jC4e5m0fa5KKvVdu2bdXhDRs2yNChQ9N6sbxvFja8gY1WStTl3X333aquxGhxwrRJhiBZjiCMR8RjDELH8DA0IhgPCGaqQOskSqQ6B8GjDxbq0fA5jGluzAP80ZqIzqc6nCFsEMtJkyZFDFLHtEluNh4gMRhTa+QL+v7hZYwhf6gPxqc9Br4bQ+bslsgjvZgMsKxjM0h49NfceXX16tWCTrrhnNECdf78eWnQoEE4b1GPm4Utkme0gqELio4pbxDPww8/rGaIME/vgzhQejJcJHE3/ET7NT8YofziwZw7d27ghRLKT0aPGcJm5TodHa3dFjakC6XsypUrByUxbf7pKAWb84+tonE6uwemzrn33nvVzYIi/rZt24JuHPOO+ZMVA5FjnXnWPFbSHD62UWLCrBc//fSTjBo1Ku1pLfuYGQJDdMyChoBROkRpBm9jOw6l2VKlSgUFgW4Y4IUhRjqm8QkK/P87GRG2cNUNacOMtI/ZUapVq6a8jBkzRpWeIvnXde7FF1+U1q1bq64yacNE6Rtdlew6c/6h/jnUkKrJkyfL/9cSVlHp4GnXZqeuj9tPUaeAxEO4+DSEAEFIcfPu3LkzHsymjf8SwGgSzKWHlnqdk3YS8E0CFLabLLhFAiTgEwIUNp9kJJNBAiRwkwCF7SYLbpEACfiEAIXNJxnJZJAACdwkQGG7yYJbJEACPiFAYfNJRjIZJEACNwlQ2G6y4BYJkIBPCFDYfJKRTAYJkMBNAhS2myy4RQIk4BMCjgpbyZIl1bQtxsBwDPnBKuZ0JEACJOAkAUeEDcvGYVycMX2PkQDMGIE/OhIgARJwkoB2YcMA8KSkpJA2U9hCYuFBEiABzQS0CxtWxylYsKBa7AMzXWC1H8wkCkdh05x7DI4ESCAkAe3ClpKSola8xloEmEwPky1iFlg4ClvIPOBBEiABzQS0C1ta+yhsaYlwnwRIwGkCFDanCTN8EiAB1wlQ2FxHzghJgAScJkBhc5owwycBEnCdAIXNdeSMkARIwGkCFDanCTN8EiAB1wlQ2FxHzghJgAScJkBhc5owwycBEnCdgG+EDQsmlyhRIgAQ62HWrVs3sK97g/HpJUqe8c1Tr/X2Q/ONsI0ePVoefPDBAJHLly9LnTp1Avu6NxifXqLkGd889VpvPzRHhK1KlSqSLVs2ZR1WTy9fvrza/uGHH2TDhg1qGyunr1y50n4K/g2BD4Y2lCog8iRPvQTcDc0RYVu2bJmlVCQnJ1vyZ8UTH0QrlKz7IU/rrKz49DtPKwzc9HPLhO3GjRtSo0YNbWllHY02lCog8iRPvQTcDc0RYXM3CYyNBEiABIIJUNiCeXCPBEjABwQobD7IRCaBBEggmACFLZgH90iABHxAgMLmg0xkEkiABIIJUNiCeXCPBEjABwQobD7IRCaBBEggmACFLZgH90iABHxAgMLmg0xkEkiABIIJOC5siYmJcvTo0eBYuUcCJEACDhLQLmwY8I5ZNe6//35JSEgImI7ZNrZt2yYDBw4MHOMGCZAACThBQKuwVaxYUXr16hXRzmvXrknXrl1l3759Ef3xJAmQAAnESsAxYYNw7dixQ37//XfB5ygGvOfOnVvZefbsWWnYsGGsNvM6EiABEohIQKuwJSUlSZMmTSQ1NVUOHjyYLuL58+dLzpw51fG+ffvK1q1b0/nhARIgARKwS0CrsEUzplOnTlK1alXlbeHChTJt2rRol/A8CZAACWSYgKvC1qFDB6levboyct68eTJ9+vQMG8wLSIAESCAaAVeFbdy4cVKsWDFlU5cuXWTv3r3R7ON5EiABEsgwAdeErVSpUjJ06FBl4MWLF6VevXoZNpYXkAAJkIAVAq4Jm7nhoH///rJlyxYr9tEPCZAACWSYgCvCZp4/f/369TJ8+PAMG8oLSIAESMAqAceFrU+fPlKhQgVlz4EDB6R9+/ZWbaM/EiABEoiJgKPCZm4FPXHihDRt2jQmI3kRCZAACWSEgGPC1rhx48DogvPnz0uDBg0yYhf9kgAJkEDMBBwRtpo1a0qbNm2UURj83q5dOzl27FjMRlq50FyPB/+XLl2SunXrWrk0Jj+MLyZsYS8iz7BoYjrhNs+YjHTwIu3CVqVKFTXIHTZfuXJFOnfuHHJ4le40+X2lbaZP7x1Dnnp5ei00rcKGvmpDhgyRTJkyqXQuXbpU0GAQymFw/M6dO0OdiukYb9SYsIW9iDzDoonphN95xgTFwYu0CluLFi3UXGxW7P3ll1+iTnFkJRzDj99vHKbPyGk9v+Sph6NXQ9EqbM2aNbM8omD79u3Su3dvbVzcrlNgfNqyTgVEnvHNU6/19kPTKmz2zWEIJEACJGCfAIXNPkOGQAIk4DECFDaPZQjNIQESsE+AwmafIUMgARLwGAEKm8cyhOaQAAnYJ0Bhs8+QIZAACXiMAIXNYxlCc0iABOwToLDZZ8gQSIAEPEaAwuaxDKE5JEAC9gk4LmyFCxeWI0eO2LeUIZAACZCARQLaha1Xr15SokQJKVCggGTNmjVgBmb6wKB3DJ05fvx44Dg3vENg1qxZkiVLFrlw4YK0bNkypGGJiYkyZswY5e/cuXPSunXrkP54kARuJQHtwrZs2bKI6bl+/br07NlT68weESPkScsEBg8eLKVLl1b+V61aJSkpKemuhag98MAD6jgXvU6Hhwc8QsARYTt9+rRgkPsff/whp06dknLlyknJkiUlV65cKtlOTwLpEbZxacaiRYskW7ZscuPGDVUaM1cjlC9fXvr166fSxane4zJ7/zNGaxe2SOSmTp0qhQoVUl4wswfEj85bBMyzH+/ZsycwaSisnD17tuTJk0cZ3K1bN9m9e7e3jKc1JPAvAVeF7dVXX5VXXnlFRT1nzhyZOXMmM8KDBKZMmSJo9IEbNGiQbNq0SdW51a5dWx1bs2aNjBo1Sm3zHwl4kYCrwvb666/Lc889pzhMnDhRlixZ4kUm/3mbihYtKqmpqWom5DNnzkjHjh1l+vTpkjlzZtWwUL9+/f88IwLwNgHXhK1y5coCYcPDgfqb5s2bs3XUw/dG9+7d5ZlnnlEWYkGehIQEtW2U4DxsOk0jAXFM2OrUqSOVKlWS3Llzq3o1Yx2Ea9euCT51sB4CnbcJLFiwQHLkyBEwUvesx4GAuUECmgk4Jmx4s5cpUybIXJTUsDI8Gw2CsHh2p1GjRoI/wyUnJxub/CUBTxNwTNiwpic+ZbJnzy758uULdPUAjfnz58unn37qaTA0TmTGjBmSP3/+AIrly5fLhAkTAvvcIAGvEnBM2NImuGzZstK3b1/VRwrn2N0jLSFv7WPkgdEKaliGztWtWrWSo0ePGof4SwKeJOCasCH1FSpUUJ+i2N61a5e8+eab2KTzGAF09Zg0aZJq6Ll69arq2oEqBDisB4tGIDoS8DIBV4UNINBogIaEkydPSpMmTbzM5j9r2/jx4wVdPuAgcIsXL1bjQ42hVCNGjJB169b9Z/kw4d4n4LqwGWNJdQ/J4bqUem62atWqqX5rCO3vv/8ODHJHKW7y5MnqpXTx4kXL68datYr5Z5WUNX9u87RmlXu+tApb3rx5BeNEw7l27dpJjRo11Olt27YFPkvD+c/Ica7snRFa4f2ax4p26tRJ9u/fH/Dco0cP1YUHB1asWCFjx44NnLO7wfyzSzD4erd5Bsd+6/e0CtuwYcMkKSlJNm/erG58jCWE0BUrVkx9dmIQteHwRlm9erWxa/vX7Yz0Y3xDhw6VUqVKqbxA3iCP0jqz8LVt21YOHz6c1ktM+37kaQbh9/SZ0+qFbe3Chlk8orktW7ZI//79o3nL0Hm/3zhOp++xxx6TgQMHKuaRZl/BcKqmTZsqfyjNYbiVDud0+tLayPjSEvHXvlZhq1WrlqD/Gj5JQzkMzZk7d67Mmzcv1Glbx9yuU/BbfJhk0si3kSNHytq1a8Pmh9kv5nDbuHFjWL9WT/iNZ9p0+z19adN7q/e1Cps5MZiwsEiRIqqDJz5XfvvtNzl48KDZC7dJgARIwBECjgmbI9YyUBIgARKwQIDCZgESvZAACcQXAQpbfOUXrSUBErBAgMJmARK9kAAJxBcBClt85RetJQESsECAwmYBEr2QAAnEFwEKW3zlF60lARKwQIDCZgESvZAACcQXAQpbfOUXrSUBErBAwBVhK168uFqf0ljQBRMVmlcYt2AnvbhAAEOlsmTJopbYwwy6oVxiYqKamw3+zp07F5jWKJTfaMfcji+aPTzvHwKuCBvWpCxQoECAGgZOm6fDCZzgxi0lgHGfGAoHt2rVKklJSUlnz5gxY8SYcHLhwoUybdq0dH6sHnA7Pqt20V/8E3Bc2Fq0aCFYis/sKGxmGt7aNk9L1Lp166CSNaad6tevnzJY10ShbsfnLdq0xikCjgqbee788+fPqzVGkRAKm1PZaT/cmjVrSps2bVRAe/bska5duwYCnT17tuTJk0ftd+vWTTDfnl3ndnx27eX18UHAUWEz5s4/dOiQWtnImMSQwubtmwMLWuOlBGes/G5etWrNmjVqgRddqXA7Pl12MxzvEnBM2Iy587FIMqaYxrTgFDbv3ghmy7CQS2pqqlrf4MyZM6qEjXrSzJkzq4YFTDap07kdn07bGZY3CTgmbEbdyfr162X48OFinnaaJTZv3gxmq7p3764WvMYxTBCakJCgThslOLNfHdtux6fDZobhXQKOCJshYleuXAksumscAwoKm3dvCLNlCxYskBw5cgQObd++XS10HTigecPt+DSbz+A8REC7sGHF9wEDBqgkTpgwQZYvX662KWweynWLpjRq1EjwZ7jk5GRj05Fft+NzJBEM1BMEtAsb1jTInTt30JqUSCmFzRP5nSEjZsyYoaZ2Ny7CSwovK6ec2/E5lQ6Ge+sJ/A8AAP//mYdGBgAAEv9JREFU7Z19UBVV+McfDExNQ8SiGrUSSpLKQZvohTLH6g8FtZCmkmzKtHxJTMVQg8YXHEnKlybQfEktM0pLICgtxxLHoEhHrSk1qcGcQlPRTCNMf7/n/H677b1371V2zy57937PjN495+ye85zPuXzv2d1zzhN21VVXnSdJ4YUXXqD+/fuL0saPH0+1tbVqyXl5edSrVy8RHzNmDNXV1al5OHAegaeffpoefvhhD8POnTtHI0aMoCNHjniky4jYXZ8Mm1GGcwmEyRS20tJSatWqFf3111/0+eefe7T6nnvuoU6dOom0L7/8khoaGqiqqor27NnjcR4iLU8gJiaGli5dKvqyqamJ5s2bR9OmTROGHThwgDIzM6UaaXd9Uo1HYY4kIFXYysrKKCws7KIbumXLFnr11Vcv+nycaA+BwsJC6tatm6iMBa6kpIQWLFhAcXFxIi0/P58qKyulGWN3fdIMR0GOJSBV2N577z2KiIjQbWzr1q1V0eNRAN/WsBCuXLlS9/zmJrJA9ujRQ73s77//pqFDh6px2QdurW/AgAHEjwo4/P777/TMM8+IYx5VLVu2TPThmTNnKD09XaSb/c/u+hR73dp/LdU+pV6nfEoVtkCNsvoZ22uvvUY33nijakJjYyOlpaWpcdkHbq3vo48+Ej9O58+fp7Fjx3o8C83KyqK+ffsKlJs2baJFixaZxmp3fYrBbu2/lmqfUq9TPiFsBnvCjX8Y2h8ff48JtEI0atQo+u233wwSJLK7Pq2hbuy/lmyftm4nHEPYDPaC2/4w+vTpQzNmzBA0At3GP/LIIzR8+HBxHr/ZVm5bm4vR7vq87XNb/7V0+7zrb+m4bcI2a9YsSkxMFO21YroHnpmY+yqtWbOGIiMjRSGvvPIKbd261W+B2nO5X6urq/2e6y9DW4Yd9Xnbge+LNxF3xW0TNndhQ2tAAAScTADC5uTegW0gAAKGCEDYDGHDRSAAAk4mAGFzcu/ANhAAAUMEIGyGsOEiEAABJxOAsDm5d2AbCICAIQIQNkPYcBEIgICTCUDYnNw7sA0EQMAQAQibIWy4CARAwMkEIGxO7p0QtY1XQJw4cSJEW49myyAgXdjmzp1L1113XUDbeCF1cXFxwHOQaT8BXuZ0ySWX0OnTp4l3tNULV1xxhdibjc87deqUuq2R3rnNSZs0aRL17t2bLr/8crE10j///CO2TeI1nT/99FNzisK5IEDShW316tXqTrn++PLuurxxIYKzCGjX827evJnmz5/vY6B2w8n169fTW2+95XNOcxMWLlxIsbGxupedPXuWXn75Zdq1a5duPhJBQI+AZcLGX8idO3fq1UmfffYZbd++XTcPiS1LQLstEW8yWV9frxqUlJREOTk5In7s2DF1lw/1BAMHkydPpvvuu09cybuKbNiwQYzUHnjgAUpISBDp/F0aMmSIgdJxSagSsEzYZH3xQ7VjWqrdgwcPppEjR4rq+RZwwoQJqilr166lDh06iDg77tm/f7+aZ/SAR32XXnqp2FF53LhxHhtbsq+Fm266SRStbFFutB5cF1oEIGyh1d8X1drly5cTbwXOYebMmfT111+LZ26K1yp2xsOiYzawg58XX3xRFLN3717i52zacMMNN6i3w9ptyrXn4BgE9AhA2PSohHgaO3J54403xEP8kydPis0k+dkpeyDjFwu82aSMMGXKFLr33ntFUez7Yt26dT7FKrfG7CNj0KBBPvlIAAE9ApYJG38R//zzT2rTpo34Y+Bf3I0bN/q45dMzCmktT0D77Iv9R/DtIgdlBCfDQn6DfvPNN4uieOT2/fff+xTLgte5c2eRnpKS4pOPBBDQI2CZsOlVxmk///wzPf/88/6yke4gAjyC4h8mJbAP2KlTpypR059FRUXUtWtXUQ4/19Pzn6A9h501a19mmDYABbiWgCXC1rFjR/r111/p8OHDFB4eLr680dHRKkTZfyBqwTiQSuDxxx8n/qcE2SOmt99+m6KiokTx/srW+ibIzc2lHTt2KObgEwT8EpAubLfccouud/d+/frRxIkTVd+i7Fl89+7dfg1DRssT0AoPW1NeXk48gpIVtH4P/Ambdt4chE0WefeXI13YAiHjKQL9+/cXp3zyySfiAXWg85HXcgR45YHyFlSxgp+b8u3gkSNHlCRTn2+++SZdc801ooynnnpKt1ytl3grnACZagAudiwBW4UtPj6eCgoKBAy91/uOpRRihvFUD543xm9Bm5qaxNQOHmFzOHDgAGVmZkohovUUxaP5ffv2+ZS7YsUKuvLKK0W6v1Gdz0VICHkCtgobP2dbtWqVgH7w4EEaPXp0yHeAEwFoR0nKxFjtLWF+fj5VVlaaNv2ll16iO+64Q5TDy6p4RYp3eP/996ldu3bEnulTU1O9sxEHAV0Ctgobz1niuUscqqqqaPbs2bpGGUnU/vrz9YGc/hop3/sat9Y3YMAA1QmydlIsj+KWLVsmnpGeOXOG0tPTvZE0O651vswvBfgZmjbwNA+e7sGBd/sYNmyYOJbxn1v7T2Fjd/uUep3yaauwaRfI+5uQaRSM9u0Zl8Fzr9LS0owWd8Hr3FqfMiGWR0hjx471WOKUlZVFffv2FWw2bdpEixYtuiCnC51QWloqbnn1+oufqbHQcigrK6MlS5ZcqLiLzndr/ykA7G6fUq9TPqUKW3Z2Nt12223CizjvDqFMuLz99tvpueeeU5+VWDGasrsj3VhfXl4e9erVS3w3t2zZQvyr7x20wjdq1CjduWfe1wSKsxf4nj17ilP48QSP4g8dOiR+lPiFAgcrbkPd2H8C1v//Z3f7tHU74Vi6sCUnJwdsF39JZ8yYQTU1NQHPa26m3R3ptvr69Okj+oW5B/rh0d4+1tXVqbetze0v5Xy+xeXlW9qJwEqe8snP2Xi0LzO4rf+82djdPu/6WzouVdj41i8jI4MiIiJ028W/xDwq4D8I2cHuZwpuq087p4xHUVu3bvXbRdpzeQ+36upqv+deTAZP6OY/ROXtp3INb1fE+72VlJQoSdI+3dZ/3mDsbp93/S0dlypsSmN4EfW1114r1vixyPH2N5gxrtDBZyACvOMH79LLYsk/hAggYISAJcJmxBBcAwIgAAKyCEDYZJFEOSAAAo4hAGFzTFfAEBAAAVkEIGyySKIcEAABxxCAsDmmK2AICICALAIQNlkkUQ4IgIBjCEDYHNMVMAQEQEAWAQibLJIoBwRAwDEEbBM23qnhjz/+cEzDYQgIgIB7CVgmbLz3Gm9RxCsQ2rdvrxI8deqU2HeLfVcigAAIgIAVBCwRNt6tgXdpaN26ta7NsvfW0q0EiSAAAiFLQLqwRUZGEjsB4W2lOfBmhd988w3V1tZSly5d6M4776S2bdvSE088EbLQ0XAQAAFrCUgXNq2j3W3bthE7xUUAARAAATsJSBe2DRs2CF+i/Czt0UcftbMtqAsEQAAEBAGpwsaOOdhBB4f169eLvbREBP+BAAiAgI0EpAqbdnfV8ePHU2JiIvH+Wvxs7fTp02J/Ld44UM/Nmo1tRlUgAAIuJyBV2FjMHnzwQYGMNwpMSkrywcdbg/Nojp25IIAACICAFQSkCpvWGQgbyyL27bffCocfsbGxqtMOzmMR5DelCCAAAiAgm4BUYdN6HGJDc3JyaOfOnarN7BfyscceE3GZHsXVCnAAAiAAAv9LQKqwTZ8+XcxTY7K//PILjRs3zgfyhx9+KCbuBvKE5HMREkAABECgGQSkCtuzzz5LqampovqKigoqLCz0MWXFihXCG5EVviJ9KkMCCIBASBKQKmzsfk9xcvvBBx/QqlWrfKAWFRVR165dRXpKSopPPhJAAARAwCwBqcKWkJBA+fn5wqbt27fTnDlzfOxTfFKyz8ghQ4b45BtNsNuPIuoz2lP614GnPhejqXbzNGqnVddJFTY2kr12t2vXjhobG4lHcNrA89kWL14sko4fPy51vajdnq9Rn7ZnzR+Dp3mG2hLs5qmt2wnH0oVNO5dN+wIhJiaG+FeEvX5zePfdd8U/WRDs7kjUJ6vn/q8c8AxunnKtN1+adGFjk3h3j6ioKNU6vu0MDw9X4w0NDZSRkaHGZRzgD0MGxf/KAM//WMg4cjtPGYxklmGJsLGBr7/+Ol1//fU+tu7evZumTZvmk242we5nCqjPbI95Xg+enjzMxuzmadZe2ddbJmyKob1796a4uDixyqCmpkZJxicIgAAIWEbAcmGzzHIUDAIgAAJ+CEDY/IBBMgiAQPASgLAFb9/BchAAAT8EIGx+wCAZBEAgeAlA2IK372A5CICAHwIQNj9gkAwCIBC8BCBswdt3sBwEQMAPAQibHzBIBgEQCF4CELbg7TtYDgIg4IeAVGHjjSb79evnpyrP5Pr6esrMzPRMRAwEQAAEJBCQKmwzZ84kXkJ1McGKhfAXUy/OAQEQcD8BqcJ2//3309133+2XWvfu3Sk6Olrkb9y4USyU93syMkAABEDAIAGpwnYhG7Tbgj/55JN09OjRC12CfBAAARBoNgHbhI1HaooPhEOHDhE/j0MAARAAASsI2CZsEyZMIL5V5cAjt/LycivagzJBAARAQK5f0UA8161bR23atCHZTlwC1Yk8EACB0CRgy4gtOTmZsrOzBeEdO3ZQbm5uaNJGq0EABGwhYIuwLVy4kGJjY0WDJk6cSPv27bOlcagEBEAgNAnYImxlZWUUFhZGJ06coGHDhoUmabQaBEDANgKWC9vo0aNp4MCBokElJSW0dOlS2xqHikAABEKTgOXCVlxcTJdddhmdP3+eUlNTQ5MyWg0CIGArAUuFjZdX8TIrDlrnyba2EJWBAAiEHAFLha2goIDi4+MF1Pnz59PmzZstA2y3H0XUJ7crwTO4ecq13nxplgqb8tKgqamJHnroIfPWBijB7Z620b4AnW8gCzwNQAuiSywTNl4Lmp6eLlB89dVXlJeXZykWfFHl4gVP8JRLwN7SLBO2NWvWUGRkpGjNmDFjqK6uztKW4Q9RLl7wBE+5BOwtzRJh69atGxUWFoqWHDt2jIYPH255q/CMRi5i8ARPuQTsLc0SYbO3CagNBEAABDwJQNg8eSAGAiDgAgIQNhd0IpoAAiDgSQDC5skDMRAAARcQgLC5oBPRBBAAAU8CEDZPHoiBAAi4gACEzQWdiCaAAAh4EoCwefJADARAwAUEIGwu6EQ0AQRAwJOALcIWFRVFx48f96wZMRAAARCwiIAlwhYTE0NZWVkUFxdH4eHhwnTeaPLkyZPEa0grKiosag6KBQEQAAGS736ve/futGDBAmrVqpVfvtXV1TRr1iy/+cgAARAAATMEpI/Y3nnnHerYsaOw6fDhw/Tpp59SbW0tpaSkEO+oqwje7NmzqaqqyoztuBYEQAAEdAlIF7aPP/5YVHTu3DkaNGiQR6U5OTmUlJQk0rZt20Zz5871yEcEBEAABGQQkCpsiYmJ6i3mwYMHiT1UacOtt95Kc+bMEUnwgaAlg2MQAAGZBKQKG780WL58ubCvoaGBMjIyPGwdPHgwjRw5UqTt2rWLpk+f7pGPCAiAAAjIICBV2NigtWvXUocOHYRtkydPph9//FG1k32KXn311SKen59PlZWVah4OQAAEQEAWAenC1rNnT8rNzaX27dsLG9n7O89h4111+cUBT/tgb1X85hQBBEAABKwgIF3Y2Ej2dbB48WJ15KY1fMmSJcTeqxBAAARAwCoC0oXtrrvuouzsbHVaR2NjI/3777/Utm1bCgsLE+347rvvxDlWNQrlggAIhDYB6cJWWloqRI2ne8ybN8/jORqP4rp06SKIl5eXU1FRUWjTR+tBAAQsISBV2EaMGKE6RubbTb7t9A6K8PFILi0tzTsbcRAAARAwTUCqsPEcNZ6rxoHXiv7www8+Bq5cuZI6d+4s0nk1AgIIgAAIyCYgVdgKCgooPj5e2Dh16lTas2ePj72rV6+mTp06iXSZwgY/mD6oTSWApyl8Phe7nadPg1s4Qaqw8UqDgQMHiiZ98cUXxEKnDbx9EQsbv0SQfSsKz+Va0uaPwdM8Q20JbuepbasTjqUKW0JCAvHEWw48X40XxBcXF4s4T8zltaHR0dEivnfvXpo0aZI4lvGf2784aJ+Mb8l/ZYDnfyzceCRV2BgQT/VITk5WWbHAnT17liIiItS0pqYm9SWDmmjyAF9UkwC9LgdPLyAmo27naRKP9MulCxtbyGtEhw4dqm4yqbV6//79YuRWX1+vTTZ97PZnGGif6a+IRwHg6YHDdRFLhE2hxJtO9ujRQ6xA4D3ZampqlCx8ggAIgIBlBCwVNsusRsEgAAIgEIAAhC0AHGSBAAgEJwEIW3D2G6wGARAIQADCFgAOskAABIKTAIQtOPsNVoMACAQgAGELAAdZIAACwUkAwhac/QarQQAEAhCAsAWAgywQAIHgJGCbsPEa0aNHjwYnJVhtiMCUKVPEhgcVFRW6O70YKtSCi4LFTgua7toi/wd553VrMpvbjgAAAABJRU5ErkJggg==;" vertex="1" parent="1">
                    <mxGeometry x="238" y="224" width="106" height="106" as="geometry"/>
                </mxCell>
                <mxCell id="4" value="" style="shape=image;verticalLabelPosition=bottom;labelBackgroundColor=default;verticalAlign=top;imageAspect=0;image=data:image/png,iVBORw0KGgoAAAANSUhEUgAAATgAAAD+CAYAAACuuRl3AAAMQWlDQ1BJQ0MgUHJvZmlsZQAASImVVwdYU8kWnluSkJDQAghICb0JIjWAlBBaAOlFsBGSAKHEGAgqdmRRwbWgYgEbuiqi2AGxI3YWxd4XRFSUdbFgV96kgK77yvfm++bOf/85858z587cewcA9ZNcsTgH1QAgV5QviQ0JYIxNTmGQngJVoAmowBPYcnl5YlZ0dASAZbD9e3l3EyCy9pqDTOuf/f+1aPIFeTwAkGiI0/h5vFyIDwKAV/HEknwAiDLefGq+WIZhBdoSGCDEC2U4Q4GrZDhNgffKbeJj2RC3AKBC5XIlGQCoXYE8o4CXATXU+iB2EvGFIgDUGRD75uZO5kOcCrENtBFDLNNnpv2gk/E3zbQhTS43Ywgr5iIvKoHCPHEOd/r/mY7/XXJzpIM+rGClZkpCY2Vzhnm7nT05XIapEPeK0iKjINaC+IOQL7eHGKVkSkMTFPaoIS+PDXMGdCF24nMDwyE2hDhYlBMZoeTT0oXBHIjhCkGnCfM58RDrQbxQkBcUp7TZJJkcq/SF1qdL2Cwlf54rkfuV+XoozU5gKfVfZwo4Sn1MrTAzPgliCsQWBcLESIjVIHbMy44LV9qMLsxkRw7aSKSxsvgtII4ViEICFPpYQbokOFZpX5qbNzhfbFOmkBOpxPvzM+NDFfnBWnhcefxwLtgVgYiVMKgjyBsbMTgXviAwSDF37JlAlBCn1Pkgzg+IVYzFKeKcaKU9bibICZHxZhC75hXEKcfiiflwQSr08XRxfnS8Ik68MIsbFq2IB18GIgAbBAIGkMKaBiaDLCBs623ohXeKnmDABRKQAQTAQckMjkiS94jgNQ4Ugj8hEoC8oXEB8l4BKID81yFWcXUA6fLeAvmIbPAE4lwQDnLgvVQ+SjTkLRE8hozwH965sPJgvDmwyvr/PT/IfmdYkIlQMtJBjwz1QUtiEDGQGEoMJtriBrgv7o1HwKs/rM44E/ccnMd3e8ITQjvhEeEGoYNwZ5KwSPJTlGNAB9QPVuYi7cdc4FZQ0w0PwH2gOlTGdXED4IC7Qj8s3A96doMsWxm3LCuMn7T/NoMfnobSjuxERsnDyP5km59HqtmpuQ2pyHL9Y34UsaYN5Zs91POzf/YP2efDNvxnS2whdgA7h53CLmBHsQbAwE5gjVgrdkyGh1bXY/nqGvQWK48nG+oI/+Fv8MnKMpnnVOvU4/RF0ZcvmCZ7RwP2ZPF0iTAjM5/Bgl8EAYMj4jmOYDg7ObsAIPu+KF5fb2Lk3w1Et/U7N/8PAHxODAwMHPnOhZ0AYJ8H3P6Hv3M2TPjpUAXg/GGeVFKg4HDZhQDfEupwp+kDY2AObOB8nIE78Ab+IAiEgSgQD5LBRBh9JlznEjAVzATzQAkoA8vAKrAObARbwA6wG+wHDeAoOAXOgkvgCrgB7sHV0w1egD7wDnxGEISE0BA6oo+YIJaIPeKMMBFfJAiJQGKRZCQVyUBEiBSZicxHypByZB2yGalB9iGHkVPIBaQduYN0Ij3Ia+QTiqFUVBs1Qq3QkSgTZaHhaDw6Ac1Ap6CFaDG6BF2DVqO70Hr0FHoJvYF2oC/QfgxgqpguZoo5YEyMjUVhKVg6JsFmY6VYBVaN1WFN8DlfwzqwXuwjTsTpOAN3gCs4FE/AefgUfDa+GF+H78Dr8Rb8Gt6J9+HfCDSCIcGe4EXgEMYSMghTCSWECsI2wiHCGbiXugnviESiLtGa6AH3YjIxiziDuJi4nriHeJLYTuwi9pNIJH2SPcmHFEXikvJJJaS1pF2kE6SrpG7SBxVVFRMVZ5VglRQVkUqRSoXKTpXjKldVnqp8JmuQLcle5CgynzydvJS8ldxEvkzuJn+maFKsKT6UeEoWZR5lDaWOcoZyn/JGVVXVTNVTNUZVqDpXdY3qXtXzqp2qH6laVDsqmzqeKqUuoW6nnqTeob6h0WhWNH9aCi2ftoRWQztNe0j7oEZXc1TjqPHV5qhVqtWrXVV7qU5Wt1RnqU9UL1SvUD+gflm9V4OsYaXB1uBqzNao1DiscUujX5OuOUozSjNXc7HmTs0Lms+0SFpWWkFafK1irS1ap7W66BjdnM6m8+jz6VvpZ+jd2kRta22OdpZ2mfZu7TbtPh0tHVedRJ1pOpU6x3Q6dDFdK12Obo7uUt39ujd1Pw0zGsYaJhi2aFjdsKvD3usN1/PXE+iV6u3Ru6H3SZ+hH6Sfrb9cv0H/gQFuYGcQYzDVYIPBGYPe4drDvYfzhpcO3z/8riFqaGcYazjDcIthq2G/kbFRiJHYaK3RaaNeY11jf+Ms45XGx417TOgmviZCk5UmJ0yeM3QYLEYOYw2jhdFnamgaaio13WzaZvrZzNoswazIbI/ZA3OKOdM83XylebN5n4WJxRiLmRa1FnctyZZMy0zL1ZbnLN9bWVslWS2warB6Zq1nzbEutK61vm9Ds/GzmWJTbXPdlmjLtM22XW97xQ61c7PLtKu0u2yP2rvbC+3X27ePIIzwHCEaUT3ilgPVgeVQ4FDr0Omo6xjhWOTY4PhypMXIlJHLR54b+c3JzSnHaavTvVFao8JGFY1qGvXa2c6Z51zpfN2F5hLsMsel0eWVq72rwHWD6203utsYtwVuzW5f3T3cJe517j0eFh6pHlUet5jazGjmYuZ5T4JngOccz6OeH73cvfK99nv95e3gne290/vZaOvRgtFbR3f5mPlwfTb7dPgyfFN9N/l2+Jn6cf2q/R75m/vz/bf5P2XZsrJYu1gvA5wCJAGHAt6zvdiz2CcDscCQwNLAtiCtoISgdUEPg82CM4Jrg/tC3EJmhJwMJYSGhy4PvcUx4vA4NZy+MI+wWWEt4dTwuPB14Y8i7CIkEU1j0DFhY1aMuR9pGSmKbIgCUZyoFVEPoq2jp0QfiSHGRMdUxjyJHRU7M/ZcHD1uUtzOuHfxAfFL4+8l2CRIE5oT1RPHJ9Ykvk8KTCpP6hg7cuyssZeSDZKFyY0ppJTElG0p/eOCxq0a1z3ebXzJ+JsTrCdMm3BhosHEnInHJqlP4k46kEpITUrdmfqFG8Wt5vancdKq0vp4bN5q3gu+P38lv0fgIygXPE33SS9Pf5bhk7EioyfTL7Mis1fIFq4TvsoKzdqY9T47Knt79kBOUs6eXJXc1NzDIi1RtqhlsvHkaZPbxfbiEnHHFK8pq6b0ScIl2/KQvAl5jfna8Ee+VWoj/UXaWeBbUFnwYWri1APTNKeJprVOt5u+aPrTwuDC32bgM3gzmmeazpw3s3MWa9bm2cjstNnNc8znFM/pnhsyd8c8yrzseb8XORWVF72dnzS/qdioeG5x1y8hv9SWqJVISm4t8F6wcSG+ULiwbZHLorWLvpXySy+WOZVVlH1ZzFt88ddRv675dWBJ+pK2pe5LNywjLhMtu7ncb/mOcs3ywvKuFWNW1K9krCxd+XbVpFUXKlwrNq6mrJau7lgTsaZxrcXaZWu/rMtcd6MyoHJPlWHVoqr36/nrr27w31C30Whj2cZPm4Sbbm8O2VxfbVVdsYW4pWDLk62JW8/9xvytZpvBtrJtX7eLtnfsiN3RUuNRU7PTcOfSWrRWWtuza/yuK7sDdzfWOdRt3qO7p2wv2Cvd+3xf6r6b+8P3Nx9gHqg7aHmw6hD9UGk9Uj+9vq8hs6GjMbmx/XDY4eYm76ZDRxyPbD9qerTymM6xpccpx4uPD5woPNF/Unyy91TGqa7mSc33To89fb0lpqXtTPiZ82eDz54+xzp34rzP+aMXvC4cvsi82HDJ/VJ9q1vrod/dfj/U5t5Wf9njcuMVzytN7aPbj1/1u3rqWuC1s9c51y/diLzRfjPh5u1b42913ObffnYn586ruwV3P9+be59wv/SBxoOKh4YPq/+w/WNPh3vHsc7AztZHcY/udfG6XjzOe/ylu/gJ7UnFU5OnNc+cnx3tCe658nzc8+4X4hefe0v+1Pyz6qXNy4N/+f/V2je2r/uV5NXA68Vv9N9sf+v6trk/uv/hu9x3n9+XftD/sOMj8+O5T0mfnn6e+oX0Zc1X269N38K/3R/IHRgQcyVc+a8ABiuang7A6+0A0JIBoMPzGWWc4vwnL4jizCpH4D9hxRlRXtwBqIP/7zG98O/mFgB7t8LjF9RXHw9ANA2AeE+AurgM1cGzmvxcKStEeA7YFPU1LTcN/JuiOHP+EPfPLZCpuoKf238B39d8k3gwCt8AAAA4ZVhJZk1NACoAAAAIAAGHaQAEAAAAAQAAABoAAAAAAAKgAgAEAAAAAQAAATigAwAEAAAAAQAAAP4AAAAAp5jh8wAAJ41JREFUeAHtnQmUVMXVxy+yy74IgyIQljMCUQIqKMGPyOYhQMQwxihgFCRKOAHEoEYRgohgkATBhBBkOQbimhAQRAKoLCEgoCCCBBARWUTZF2X381+xKq9rXjcz3fVe97z51zk9r269ereqfq/ndu1VJCsr62uhIwESIIEIErgogmVikUiABEhAEaCB4xeBBEggsgRo4CL7alkwEiABGjh+B0iABCJLgAYusq+WBSMBEqCB43eABEggsgRo4CL7alkwEiABGjh+B0iABCJLgAYuIq+2UqVKESlJ4SxGlSpVCmfBAy51sYD1p1V9r169pEOHDioPp0+fljvvvNNpfho2bCjDhg3LpfPcuXNy5MgR2bNnj0yfPl127dqVK46LAJTv+9//vuCfo1ix/77Ks2fPys6dO2XmzJmyatWqlJLp16+f3HDDDUYHdO/fv1/p/89//iPz5s0z91x5Jk6cKHkx1ocOHZK+ffumnGxOTo7gkxc3ZMgQ2bZtW16iXjBO9erVZdCgQXL55ZdLuXLlpEiRIvL111/L0aNHZfbs2fLyyy9fUMeFInjf3/333y979+7N9ciIESOkQYMGgu9s9+7dc90v6AGRNnBt27aVsmXLmnfUvHlzeeedd4ycqqd8+fIx+r36KlSoILVq1ZLrrrtOFi9eLL///e+9t1P2P/vss1KnTp1cemDo6tatK/hyp2rgLrvsslzlq1ixotSvX1/atGmj/iHwD/Lhhx/mykeyAdWqVZOSJUte8PHixYtfME5eItSoUSNXGeM9B0PkwuF7+Mgjj5gfJa0TRg7fG/wQ493+9re/1beSunrfX5kyZXx1XHrppXkuv6+CDA+MrIGrWrWq+rJ4+Xfs2NGpgfPqPnjwoGzYsEH9EuPLhH8cfHngYGhR43n99de9jyTtR60Q5YM7efKkLFmyRNauXSuXXHKJNGvWTH2SVh7nwfXr16s7qHmgxggDAwM/ZswYmTBhgixYsCDOk8kFnz9/XpUp3tOoSbp2qPnu27cvrlrUyFN1TZs2laFDhxo1qBGuWLFC1fKvvPJKVSOvXLmylChRwsShJ3kCkTVwnTt3NlSOHz+ufqW++93vmjDXnk2bNql/dq9eNKE6deqkgpAfFwaudevWxrihOfOLX/xCDh8+bJJF8wbGFTUsl27atGkxzTM011A7hevdu7dzA4cuheHDh7sswgV1zZo1SxYuXHjBeKlE8Dar8X344x//aNTB0E2aNEk1vWHg6VInENlBhpYtWyo6p06dUjUcCKVLl1ZV/9Sx5U0D+pO0Q9PLhYMx0W7UqFExxk2Ho68FfXBBuieeeEK2b9+ukrj44ovl9ttvDzK5SOhGDU3X6tGH6DVu3gLiewNDR5c6gcgaONRi4LZu3Srz5883pH70ox8Zf9AebWSRjosmFZqHaL7AHTt2TDWJlZCmP88//7xJuV27dsZPjz+BW2+91dxw3aQ3iumJIRDJJiqaheiwhVu2bJns2LFDUJND5/U111wTA8CVoEcxoQ/GFX0td999t1HvYsSxXr16Rt/mzZuNP12eNWvWqJE/sEZ/nEsHnehTjOe++OKLeLeSDkd6NWvW9H3exUi4tzzeH13fBB0Hot8UI/u2835v7XtRkCNp4Lz9T9qwoDO3cePGqgaEkSq/l53KC0V/1Ny5c3OpwCDACy+8IK+99lque/kNqPPNyJp2LmqEWlcqV/SV4YcjLyOf+UkH+tDvF8+tXLlS0Ex26e644w7Bx8+5GAnH9067AwcOaG8o18ceeyyUdDItkUgaOF3TwcimdkuXLlUGDjI6/IPuo9Lp4heydu3aWkzp6q1dBFGDSSZzMOAwRhddFNnejmSw+D6Dvko4zCe0HZr43toU5sSxGWtTyr8cOQOHOUb6i/Lee+8ZIqjJ6RGsVq1aOTdwmAYCo4mmFeaKYS4avrSYMoIaJX69/SYFmwzmweOdOnDmzJk8PBF8FO9oH6auuKpZonxPPfVU3AJ88sknce8lewPfkXhzBzGFJFWnfwRgvGw3cOBAO0jWrVuXcNpKrgcSBMSbcP7LX/4y13SqBGoK3K3IGTjMddNu0aJF2quuqNGhk95bE4qJkIKAGtW7775rNKBJM3nyZDUjHb/cV199tWCQINE8K/NwHM/u3bvNHVejskZhkh6MTMPhn9aVcYM+zKxHMzRMh24M7zt0nTZqu/gu6B9g1/oT6YOx9FuF0adPn0gbuMi1K7xz3R566CGZMWOG+aBmBYdaVvv27RN9H5zdg6HTDsuqUnGffvqpeTxT1i7qWiX64ugSE8DINxy+f7ZDtwk+y5cvt29RToFApAwcOuF1jQJMYNC8H91EwL2wDJy3aZNqzVHPO0P+dT8j/OlyWIqmmWIyNV1iAt4arneNb+KneDcVApFqonrnuGF9pF9zEP1vaCJggXEYTtcakRaaXak4GDjUlFBrQnM31SZvKnnBs/fcc49RgWVqdIkJYKUCRvLhunXrpqYwJX6Cd1MlECkD553jNnjwYF8235wDK1dccYVaS9mkSRPRayx9IzsI9NYUXRgBTEX58Y9/rHL28MMPC3aJ8HOYNe8iPT/dCMNcQ8z1g8Oo4NNPP638/BOfAJbRYccO9MOhBh70O4qfk8JzJzIGDqOUepa/d3qI/SoxXQQGDg59Hq4MHAwn1onCYdIrmqOoLeq5T6h5Ie1U3dSpU6VLly7KQKMWil1FsKxHG7ObbrpJ7rrrLsEopMvtoTA6jR8EjA4jXb3kCOUJYjoDatl6HW88ZnqOY7z7mRj+6quvqveCfriRI0cKVoNgMAzridHkb9SoUSZmu8DmKTIGzvvPkMhozZkzR37+85+rF3bVVVc5e3HYQiherREjjNhWyJV79NFHlT7MP0O/I9akIg1v53UiI59MPvwmwGKKyEsvveR8yg3yBwOnp/XEyy865F1P2I6Xlqtw7POGbYywwwz6L/FjhI/9/lAr9uticZWPwqInMoMM119/vXlnF9oRQv/zY45aXjZXNIotT6I+NdSg8M+HrYxQ4/LOybPU5FvEziXow8EABv4x4LzGDbVFpJuq07q9ejDVAYv5V69eLZhiENaEaW8etN+FcfO+Q7/y6rRcXrE3IGreYKmd9/2hNt61a1d9K+mrtzze+Ypehd443vCo+It807TKPeswKqUrJOVAkxHNxy+//FLt8JEJ61QLCXonxfy///s/te4WP1wuNw91krkCroQGroC/QGafBEggPoHINFHjF5F3SIAECisBGrjC+uZZbhIoBARo4ArBS2YRSaCwEqCBK6xvnuUmgUJAgAauELxkFpEECisBGrjC+uZZbhIoBARo4ArBS2YRSaCwEqCBK6xvnuUmgUJAINS1qFj76d1BdMqUKU6WFBWC98QikgAJJEEgFAOH80Gxd5i9zTYWHdORAAmQQFAEAjdwY8aMkYYNGwaVf+olARIggbgEAu+D04fdYtcC7KiBTf/oSIAESCAMAoHX4A4dOqRO88H2MNjUT+9GG0bhmAYJkEDhJhC4gYu3pXbhxs7SkwAJhEEg8CZqGIVgGiRAAiTgR4AGzo8Kw0iABCJBgAYuEq+RhSABEvAjQAPnR4VhJEACkSBAAxeJ18hCkAAJ+BGggfOjwjASIIFIEKCBi8RrZCFIgAT8CAQ+D84v0TDCxo4dK9nZ2SYpnEGZk5NjZNcepueWKHkWbJ5uc5+8tsjW4LwH6QKPLSePzP9JW78t+z+VfKit35aT1+z/pK3flv2fSj7U1m/LyWv2f9LWb8v+TyUfauu35eQ1+z9p67dl/6cKfmgoNbh27dpJ8eLFFa3GjRsbaldccYV07NhRyTgJftGiReYePSRAAiSQKoFQDNzAgQN989msWTPBRzsaOE2CVxIgARcEMqaJit1GXDpbny27TAu6bP22zPTyR8DmZ8v503bh2LZ+W76whvzFsPXbcv60XTi2rd+WL6yhYMYokpWV5dayFEwOzDUJkEAECWRMDS6CbFkkEiCBNBOggUvzC2DyJEACwRGggQuOLTWTAAmkmQANXJpfAJMnARIIjgANXHBsqZkESCDNBGjg0vwCmDwJkEBwBGjggmNLzSRAAmkmQAOX5hfA5EmABIIjELqB0+ekBlckaiYBEiCB/xIIfC1qixYtpFu3blKvXj0pWbKk4X7q1Cl5//33Zfjw4SaMHhIgARJwSSDQpVo33HCDPPTQQwnze/bsWcFi/B07diSMx5skQAIkkF8CgdfgdIZgwDZt2iQfffSRoJnapUsXKVOmjBQrVkxGjRolt99+u47KKwmQAAk4IRCogdu/f79qhv7hD3+Q3bt3x2R4xowZ8sorr0jp0qWlXLly0qRJE1m/fn1MHAokQAIkkAqBomXLlv1NKgoSPQsDt3jxYjl27JhvtGrVqkmDBg3UvcOHD8u6det84zGQBEiABJIhEPooqjeT58+fN+K5c+eMnx4SIAEScEEgrQbOu3358uXLXZSHOkiABEjAEEibgUOfW506dVRGvvrqK9m+fbvJFD0kQAIk4IJA2gzckCFDTP5Hjx5t/PSQAAmQgCsCaTFwOPMSo6dwaJquXbvWVXmohwRIgAQMgdAN3COPPGIOZN61a5ew9mbeBT0kQAKOCYRq4Pr27SstW7ZURTh48KDcd999jotDdSRAAiTwPwKhGbju3btLp06dVMonTpyQO++883+5oI8ESIAEAiAQ6EoGnd+bb77ZLMXCIvt+/frpW4Fd0c+XnZ1t9J88eVJycnKM7NrD9NwSJc+CzdNt7pPXFngNrl27dtKnTx+Vw9OnT0v//v0FKxyCdkWKFIlJwpZjbjoQbP227CCJGBW2fluOiexAsPXbsoMkYlTY+m05JrIDwdZvyw6SiFFh67flmMgOBFu/LTtIIiNVBFqDw1y3AQMGmIIvWLBAvve976mPCfzWg0X4mzdvtoMpkwAJkEDSBAI1cM2aNRPvLwV2EInnNm7ceMGtleI9y3ASIAES8CMQaBPVu9bUL3FvWH7iep+L5//6669jbtlyzE0Hgq3flh0kEaPC1m/LMZEdCLZ+W3aQRIwKW78tx0R2INj6bdlBEjEqbP22HBPZgWDrt2UHSWSkikA3vMzIEjNTJEAChYZAoDW4QkORBSUBEshIAjRwGflamCkSIAEXBGjgXFCkDhIggYwkQAOXka+FmSIBEnBBgAbOBUXqIAESyEgCNHAZ+VqYKRIgARcEaOBcUKQOEiCBjCRAA5eRr4WZIgEScEEgdANXvXp1F/mmDhIgARK4IIFA16Ii9YceekhtW1S5cmV1ir3OEXYWweJ6bItz4MABHcwrCZAACTgjEPhSrblz5ybMLNagPvjgg9xJJCEl3iQBEkiGQCgG7siRI7Jhwwb5+OOPBSfYX3vttXLVVVfJxRdfrPIc9GaUyYDhMyRAAgWfQOAGLhGiqVOnSrVq1VSUX//618oIJorPeyRAAiSQHwKhDzJ4M/fmm28aEZtj0pEACZCASwJpNXBVqlQxZTl69Kjx00MCJEACLgikzcC1bdtW8IHD5nv/+te/XJSHOkiABEjAEAh8mohOqVu3btK6dWspU6aM6nfTW5mfPXtWpkyZwqkiGhSvJEACzgiEZuDQx1a3bt2YjKPm9thjj3FwIYYKBRIgAVcEipYtW/Y3rpQl0oP+tooVK8qXX34pRYsWleLFi6sDaXCsIPzr169P9DjvkQAJkEC+CaRtmsg111wjjz76qDJuyDWnieT73fEBEiCBCxBI2yDDmjVrZMyYMSZ7d911l/HTQwIkQAIuCKTNwCHzK1asUCOo8OsJv/DTkQAJkIALAqENMsTLrB5NdX1OIxbxZ2dnm2SDXg7G9AxqJx7ydILRKAmbp0k4zZ5Aa3AVKlRIWLx7773X3N+1a5fxu/Bow6l12bIOd3W19duyq3S0Hlu/Let4rq62flt2lY7WY+u3ZR3P1dXWb8uu0tF6bP22rOO5utr6bdlVOpmmJ9AaHLZKatiwoaxevVr++c9/ytatWwUL7+vUqSM9e/aUFi1aGB4LFy40fnpIgARIwAWBQA0cMogpIC1btlSfeBleu3atvPXWW/FuM5wESIAEkiIQqIFDza127doSr6l66tQpeemll+Tll19OKvOJHrL79Gw50bPJ3LP123IyOhM9Y+u35UTPJnPP1m/LyehM9Iyt35YTPZvMPVu/LSejM9Eztn5bTvRsMvds/bacjM6C8Exo8+CaNm0qWVlZUqlSJdm7d69s2bJFdu/eXRAYMY8kQAIFlEBoBq6A8mG2SYAECjCBQEdRCzAXZp0ESCACBGjgIvASWQQSIAF/AjRw/lwYSgIkEAECNHAReIksAgmQgD8BGjh/LgwlARKIAAEauAi8RBaBBEjAnwANnD8XhpIACUSAAA1cBF5i2EWItzIl7HwwPRK4EIFAl2rFS7xBgwby+OOPqy3LEWfAgAGyb9++eNEZngEEHnjgAWnWrJmUL19evbfTp0/LZ599Jr/73e9k27ZtTnI4c+ZMtZ09trXv1auXr85LLrlExo0bp+IdP35c7rnnHt94DCQBEEhLDQ4HzZQrV06+OQ9CfUqWLMm3kcEEnnnmGbnxxhvVmmK9zU6JEiWkVq1a8vTTT4urQ7u3b9+uvg/Y/PT+++/3JYJt7lGDxHeHR036ImKgh0DoBu7uu++WypUre7JAbyYT+NWvfiX16tVTWcSmoS+++KKqQW3cuFGFFStWTIYPH+6kCPjhO3PmjNLVpk0bqV69eoxebK9Vv359FXbw4EGZNm1azH0KJGATCNXA4Qt7yy23qDycOHHCzgvlDCRw/fXXq1ydP39eBg0aJDNmzJBFixYJ9vr78MMP1T0YuZtvvtlJ7qdPn670oKaIg4i8buDAgUYcMWKE8dNDAvEIhGrghg0bJhdddJHs2bPHWb9NvIIxPHUCN9xwg+juA2xWunPnzhilf/7zn43cpUsX40/FM3v2bNMfi9pa8+bNlTr0yaFbA27JkiVq81Ql8A8JJCAQmoH74Q9/qPpssA/VE088kSBLvJUpBHTtDfn597//nStbMHq6Seny0CA0efV+Zai14Tzdrl27qvQxAOE9jS1XphhAAh4CoRm4Pn36qGTRMWzXBDz5oTeDCHj7SnVz1M4etqCHQ83clcP3A7U0OIzaTpkyxejHoAYdCeSVgLtvZYIUR44cqbYux9SC0aNHJ4jJW5lEwDvfDZ36fu6rr74ywfaggLmRhAeGDIMacLqZvGHDBnnnnXeS0MZHCiuBwA0cTrDX0wjwS0xXcAhgKoZ22IXZz3kN3GWXXeYXJemwv//97zHP2oMOMTcpkIAPgcAN3ODBg1WymBQ6b948nywwKFMJ5KXZmZc4yZavY8eOMY/27ds3RqZAAhciEKiBw2TNMmXKqDw8+eSTF8oL72cYAe9UHqwg8HOY8Kvd/v37tTflK0ZNcX6H18HgxcuHNx79JKAJBLpUC7Pf4fCP0rZtW/XRCV9++eXaK7fddpscPnxYVq5cKehnocsMAseOHTMZgbH54osvjKw9pUqV0l5ng0foy9OjphilxajpI488ogYahgwZopb2mUTpIYEEBAI1cHpZD2pxiSaCtm7dWmURI2Y0cAneVsi3Dh06ZFLE8Y84Cc12up9OT+uw7ycj6/mSeBYTf1esWKHmTWJeHFZVYH7esmXLklHNZwoZgUANHGpuOPjZz6Fpow0gfqUxU/7AgQN+UZMKGzt2rGRnZ5tnMSKXk5NjZNeeKKYHg3bdddcpVDAqCxcujMFWtWpVufjii1XY0aNHY+4lK+j5knge/baY+As3atQoee6559R3pn///s4NXBTfnwL37Z+wy+dNO53+QA3cT3/607hlw9QRPbqK3URcz43TxlNnwJZ1uKurrd+WXaWj9dj6bVnHS+WKA7l79OihmoaNGzfOpeonP/mJCVu6dKnxp+LR8yVRI8SOM9phtxmkgdp+6dKlBUZu/Pjx+nbKV5ufLaecgKXA1m/LVvSURVu/LaecQIYqCHSQIUPLzGzlg8DmzZtVbMxFmzhxouipIN26dRPUtuBgjCZNmqT8qfzR8yWh4+233871o4e+OL1yon379lKjRo1UkuOzhYAADVwheMmpFBFNGz3hFgNDMGRz584V7Aqj3SuvvKK9SV+vvvpqU6NHekjXz73wwgsqGDUQ7D5CRwKJCKTNwKHPLUhnd3rbsuu0bf22XFDTQ9MQm0p+/vnnuYpw9uxZmTx5sjz//PO57uU3ADuVaJeo6Ylms14ehv3osIWSC2e/L1t2kYZXh63flr1xXfht/bbsIo1M1FEkKyvr60zMGPOUmQQw2IC5aKtWrZLdu3dnZiaZKxL4lgANHL8KJEACkSWQtiZqZImyYCRAAhlDgAYuY14FM0ICJOCaAA2ca6LURwIkkDEEaOAy5lUwIyRAAq4J0MC5Jkp9JEACGUOABi5jXgUzQgIk4JoADZxrotRHAiSQMQRo4DLmVTAjJEACrgkEupsIMotDZurUqZMw37NmzZKXXnopYRzeDJ/AzJkzpWjRooKj+rDDrp/DqoZx48apeMePH1fLuvzi5SUs6unlhQHjuCUQeA3u0ksvFWyKmOjDXSHcvlRX2rZv367eG848xfbzfu7RRx8VnL6F94sjIVNxUU8vFTZ8NjkCgRs4nS0szF69erXvh0fBaUqZdcVuHXp7ojZt2oh9LCAWumOXXTgcKzht2rSUChD19FKCw4eTIlD0m1/e3yT1ZB4fuuWWW9QGhThzAaeU40Bf+/Ppp5/mURujhU0AWxdhKyNsT4RNL9944w2TBZxdqs8sxZkJ8c5ONQ/kwRP19PKAgFEcEgitBucwz1QVIgFsGY4tk+BQW2vevLnyo0+uXLlyyo8frK1btyp/qn+inl6qfPh8/gjQwOWPV6GMPXz4cLVrLwqPWnjFihXNqVcYgMBOuy5d1NNzyYq6EhMIrYmKpkznzp2le/fu0qVLF2nZsqX6p0HHMl1mE8AGk9iqHKPheI+dOnUyhwnhMBjX+8JFPb3MftvRyl1oNTicgI7RNvyD4IzNhg0bqtrAhAkTokU0oqVBf5veulz3u+GIx6AGiKKeXkS/JhlXrFBqcPiHwEAC+mmw9TWOEtTHzcHYXXnllbJ48eKMg8MMxRIoVqyYelc6tHfv3tobyDXq6QUCjUpjCARu4LZt2ybPPPOMzJs3T52U9Oabb8o//vEP2bt3r1x//fVqdA7TDz744APTmR2TQwoZQ+DBBx9UI+I6Q6iRr1mzRovOr1FPzzkwKsxFIPAmaryT6t966y2BsdMOe/3TZS4BjJqitu11HTt2VOczeMNc+aOenitO1JOYQOAGLlHy8+fPN7fr1q1r/PRkFgHUsLt27aoyhYm/Tz75pPKjX3XIkCHOMxv19JwDo8K4BNJq4L744guTMd0nZwLoyRgCw4YNU6fbI0PTp0+XFStWCLoe4OrVqyeua99RT0+B459QCAS+2D5RKTAzXjvXUw1wcHB2drZWr0YAc3JyjOzaE9X0cHo9zh+F++yzzwQTceEwPeS5555Tfaj9+/eXZcuWqfBU/0Q9Pc0nqt8XXb5Muaa1BocDhbXbvHmz9jq5YmmR19my954Lv63fll2k4dVh67dlb9xU/H369FGP46Dgxx9/3KjC6oalS5cquXTp0gIj58JFPT3NyH5ftqzjubra+m3ZVTqZpidQA/fwww/Lq6++qr783toalvtMnTpVKleurHhgfhXi0WUWgZEjR5oJvW+//bbs3LkzJoNYwaAX47dv315S3RUm6unFwKMQCoFADRxKUKpUKenQoYM89dRTMnfuXPUZOnSoYAseONQMsGccXWYRwAL7Jk2aqEzhBwhNKj/3wgsvqGDUCLAbSLIu6ukly4XPpUYgUAOHib36F94vm+h369evXyBzqWA4vc6Wvfdc+G39tuwiDa8OW78te+Mm4x80aJB5bPz48cZve15++WXB0io49NVhC6VkXNTTs5nY78uW7fipyrZ+W05Vf6Y+XyQrKyvWEgSQU3zxa9euLVWrVlVNHozAvfvuuwGkRJUkQAIk8D8CoRi4/yVHHwmQAAmERyDQJmp4xWBKJEACJJCbAA1cbiYMIQESiAgBGriIvEgWgwRIIDcBGrjcTBhCAiQQEQI0cBF5kSwGCZBAbgI0cLmZMIQESCAiBGjgIvIiWQwSIIHcBNJm4DDpl44ESIAEgiQQ2nZJVapUEWxBjRUN3xw2bcp0/PhxWbhwoUyZMsWE0UMCJEACLgiEUoNr1KiRTJ48WZ2M7jVuKADkNm3auCgLdZAACZBADIHAa3A4mAS7hWB7azhsmrh69WrBeag1a9ZUB89gPzE6EiABEnBNIHADhw0MtXFbvnx5rq2Rpk2b5rpM1EcCJEACikDgTdRWrVqphNDXxn3f+K0jARIIk0CgBu66664THN4Lt2DBgjDLxbRIgARIQAJtourDSsB5yZIl0q1bN3UCE/revvzyS8GGl2iibtmyha+CBEiABJwTCPRk+7Zt26pj5ZBrnL/QuXNndUWtDgMLOP8S25mXLFlS1q1b57xwVEgCJFC4CQTaRIUB0w5bWWOb5DVr1shrr70mmzZtUrewlz+O8+PBz5oUryRAAq4IBNpELV68eEw+cdjMe++9Z8K6d+8ut99+u5IHDBgg+NCRAAmQgCsCgdbg9GEkyOyOHTtijBvCZs6cKadPn4ZXLrvsMnXlHxIgARJwRSBQA7d//36TT90kNQHfeg4fPqx86IejIwESIAGXBEIzcCdOnPDN96lTp1R4YTlp2xcCA0mABAIhEGgf3ObNm02m4zVBy5cvr+KcPXvWxHXhwUHF2dnZRhUOL8ZgRlCO6bklS54Fm6fb3CevLdAa3MaNG9V8N2QPJ5fbDvPhsFYV7tixY/btlGS7RmjLKSn3edjWb8s+j6QUZOu35ZSU+zxs67dln0dSCrL123JKyn0etvXbss8jKQXZ+m05JeU+D9v6bdnnkUgEBWrgQAjrT+HQx/bss88qP/5gCol36db8+fPNPXpIgARIwAWBQJuoyOD48ePl2muvlUqVKkmdOnVk7ty5guaoXsKFOBho+Otf/wovHQmQAAk4IxB4DQ457dmzp3z88ccm017j9v7770uPHj3MPVceTCr2Olv23nPht/Xbsos0vDps/bbsjevCb+u3ZRdpeHXY+m3ZG9eF39Zvyy7S8Oqw9duyN64Lv63fll2kkYk6imRlZcVagoBz2axZM6lfv77aDw6rGuhIgARIICgCoRu4oApCvSRAAiRgEwiliWonSpkESIAEwiBAAxcGZaZBAiSQFgI0cGnBzkRJgATCIEADFwZlpkECJJAWAjRwacHOREmABMIgQAMXBmWmQQIkkBYCNHBpwc5ESYAEwiBAAxcGZaZBAiSQFgKBrkW999575cYbb8xTwfbt28cty/NEipFIgATySiBQA4c94MqWLZunvLjeDy5PiTISCZBApAkEauCWLl0q586diwsQJ2lVqVJF3V+1alXceLxBAiRAAskQSOta1IkTJ8rll1+u8v2zn/1MDhw4kEwZ+AwJkAAJ+BJI2yADam7auOGEexo33/fDQBIggRQIpM3AYY847ebMmaO9vJIACZCAMwJpM3CtWrVShcDgwrx585wViIpIgARIQBNIi4GDcStVqpTKA3b0pSMBEiCBIAikxcDdeuutpiwzZswwfnpIgARIwCWBtBg4TA+BO3LkiGzZssVleaiLBEiABAyB0A1c3759RZ/J+Pbbb5uM0EMCJEACrgmEbuB+8IMfqDLgVJ/Jkye7Lg/1kQAJkIAhEKqBw4laZcqUUYl/8sknJhP0kAAJkEAQBAJdqmVn+I477jBBs2bNMv4gPGPHjpXs7Gyj+uTJk5KTk2Nk1x6m55YoeRZsnm5zn7y2UGtw2uCcOXNGFi9enHyu8/Ck7ufTUW1Zh7u62vpt2VU6Wo+t35Z1PFdXW78tu0pH67H127KO5+pq67dlV+loPbZ+W9bxXF1t/bbsKp1M0xOagcNaUw2VBz5n2teA+SGBaBIIzcB16NDBEPzLX/5i/PSQAAmQQFAEQjFwtWrVkgoVKqgyHDx4UHbu3BlUeYxejNJ6nS1777nw2/pt2UUaXh22flv2xnXht/Xbsos0vDps/bbsjevCb+u3ZRdpeHXY+m3ZG9eF39Zvyy7SyEQdad0uKROBME8kQALRIRBKDS46uFgSEiCBgkSABq4gvS3mlQRIIF8EaODyhYuRSYAEChIBGriC9LaYVxIggXwRoIHLFy5GJgESKEgEaOAK0ttiXkmABPJFgAYuX7gYmQRIoCARoIErSG+LeSUBEsgXgbQYuEqVKuUrk4xMAiRAAskQCGW7pOrVq8vgwYOlfv36UqzYf5PEUpGjR4/KzJkz5fXXX08m73yGBEiABBISCHypFs5fGDdunFx0UfzK4qpVq2TEiBEJM8qbJEACJJBfAkXLli37m/w+lJ/4EyZMkNKlS6tHPv/8c/nb3/4m2Ozym3QlKytLbaFUs2ZN2b59u+zatSs/qhmXBEiABBISCLyJWrFiRZWB8+fPS69evUxmsCfcY489Ji1atFBhOKth5cqV5j49JEACJJAqgfjtxlQ1f/N806ZNjZbdu3cbv/bMnj1bewW1ODoSIAEScEkgUAO3Z88ek9dy5coZv/Z85zvf0V51RqoR6CEBEiABBwQCNXD79u2TY8eOqWyiqXrFFVfEZLlz585GfuONN4yfHhIgARJwQSDwUdRGjRrJ0KFD1aACMozT7A8dOiTY5Rcjq5guggNoMNJKRwIkQAIuCQRu4JBZbFf+pz/9SfyaqZMmTZLXXnvNZZmoiwRIgAQUgcANXMuWLeXhhx828+BOnTol586dU1NH9ClbH3zwgYrDd0ICJEACLgkEbuDmzJmjjBumiYwZM0aWLVtm8o9anR49nTdvnkycONHco4cESIAEUiUQ6CBD7969Tc0NBsxr3JDx++67T2D44Nq1a6eu/EMCJEACrggEauDq1atn8rl06VLj93pwjCBcyZIlvcH0kwAJkEDKBAJdyVCiRAmTQb3I3gR860m0RtWOmx957Nixkp2dbR45efKk5OTkGNm1h+m5JUqeBZun29wnry3QGtxHH31kcnbTTTcZv/Zg2yS9dRIGH1w6PYChddqyDnd1tfXbsqt0tB5bvy3reK6utn5bdpWO1mPrt2Udz9XV1m/LrtLRemz9tqzjubra+m3ZVTqZpidQA+dtlrZu3Vpuu+02U/4aNWqouW8a9I4dO8w9ekiABEjABYFAm6gbN26U5cuXS6tWrdSuIT179pQePXrI2bNnpXjx4ib/Z86ckQceeMDI9JAACZCACwKB1uCQwdGjR8uLL76ojBpk1Ni8xm3r1q1qNBX3XDqskPA6W/bec+G39duyizS8Omz9tuyN68Jv67dlF2l4ddj6bdkb14Xf1m/LLtLw6rD127I3rgu/rd+WXaSRiToCnwfnLTQ2v0THP1Y0YP83bJlERwIkQAJBEQjVwAVVCOolARIgAT8C/w9rXyWgCasxHAAAAABJRU5ErkJggg==;" vertex="1" parent="1">
                    <mxGeometry x="427" y="224" width="106" height="106" as="geometry"/>
                </mxCell>
                <mxCell id="5" value="" style="shape=image;verticalLabelPosition=bottom;labelBackgroundColor=default;verticalAlign=top;imageAspect=0;image=data:image/png,iVBORw0KGgoAAAANSUhEUgAAAUAAAAEICAYAAAAumy2rAAAMQWlDQ1BJQ0MgUHJvZmlsZQAASImVVwdYU8kWnluSkJDQAghICb0JIjWAlBBaAOlFsBGSAKHEGAgqdmRRwbWgYgEbuiqi2AGxI3YWxd4XRFSUdbFgV96kgK77yvfm++bOf/85858z587cewcA9ZNcsTgH1QAgV5QviQ0JYIxNTmGQngJVoAmowBPYcnl5YlZ0dASAZbD9e3l3EyCy9pqDTOuf/f+1aPIFeTwAkGiI0/h5vFyIDwKAV/HEknwAiDLefGq+WIZhBdoSGCDEC2U4Q4GrZDhNgffKbeJj2RC3AKBC5XIlGQCoXYE8o4CXATXU+iB2EvGFIgDUGRD75uZO5kOcCrENtBFDLNNnpv2gk/E3zbQhTS43Ywgr5iIvKoHCPHEOd/r/mY7/XXJzpIM+rGClZkpCY2Vzhnm7nT05XIapEPeK0iKjINaC+IOQL7eHGKVkSkMTFPaoIS+PDXMGdCF24nMDwyE2hDhYlBMZoeTT0oXBHIjhCkGnCfM58RDrQbxQkBcUp7TZJJkcq/SF1qdL2Cwlf54rkfuV+XoozU5gKfVfZwo4Sn1MrTAzPgliCsQWBcLESIjVIHbMy44LV9qMLsxkRw7aSKSxsvgtII4ViEICFPpYQbokOFZpX5qbNzhfbFOmkBOpxPvzM+NDFfnBWnhcefxwLtgVgYiVMKgjyBsbMTgXviAwSDF37JlAlBCn1Pkgzg+IVYzFKeKcaKU9bibICZHxZhC75hXEKcfiiflwQSr08XRxfnS8Ik68MIsbFq2IB18GIgAbBAIGkMKaBiaDLCBs623ohXeKnmDABRKQAQTAQckMjkiS94jgNQ4Ugj8hEoC8oXEB8l4BKID81yFWcXUA6fLeAvmIbPAE4lwQDnLgvVQ+SjTkLRE8hozwH965sPJgvDmwyvr/PT/IfmdYkIlQMtJBjwz1QUtiEDGQGEoMJtriBrgv7o1HwKs/rM44E/ccnMd3e8ITQjvhEeEGoYNwZ5KwSPJTlGNAB9QPVuYi7cdc4FZQ0w0PwH2gOlTGdXED4IC7Qj8s3A96doMsWxm3LCuMn7T/NoMfnobSjuxERsnDyP5km59HqtmpuQ2pyHL9Y34UsaYN5Zs91POzf/YP2efDNvxnS2whdgA7h53CLmBHsQbAwE5gjVgrdkyGh1bXY/nqGvQWK48nG+oI/+Fv8MnKMpnnVOvU4/RF0ZcvmCZ7RwP2ZPF0iTAjM5/Bgl8EAYMj4jmOYDg7ObsAIPu+KF5fb2Lk3w1Et/U7N/8PAHxODAwMHPnOhZ0AYJ8H3P6Hv3M2TPjpUAXg/GGeVFKg4HDZhQDfEupwp+kDY2AObOB8nIE78Ab+IAiEgSgQD5LBRBh9JlznEjAVzATzQAkoA8vAKrAObARbwA6wG+wHDeAoOAXOgkvgCrgB7sHV0w1egD7wDnxGEISE0BA6oo+YIJaIPeKMMBFfJAiJQGKRZCQVyUBEiBSZicxHypByZB2yGalB9iGHkVPIBaQduYN0Ij3Ia+QTiqFUVBs1Qq3QkSgTZaHhaDw6Ac1Ap6CFaDG6BF2DVqO70Hr0FHoJvYF2oC/QfgxgqpguZoo5YEyMjUVhKVg6JsFmY6VYBVaN1WFN8DlfwzqwXuwjTsTpOAN3gCs4FE/AefgUfDa+GF+H78Dr8Rb8Gt6J9+HfCDSCIcGe4EXgEMYSMghTCSWECsI2wiHCGbiXugnviESiLtGa6AH3YjIxiziDuJi4nriHeJLYTuwi9pNIJH2SPcmHFEXikvJJJaS1pF2kE6SrpG7SBxVVFRMVZ5VglRQVkUqRSoXKTpXjKldVnqp8JmuQLcle5CgynzydvJS8ldxEvkzuJn+maFKsKT6UeEoWZR5lDaWOcoZyn/JGVVXVTNVTNUZVqDpXdY3qXtXzqp2qH6laVDsqmzqeKqUuoW6nnqTeob6h0WhWNH9aCi2ftoRWQztNe0j7oEZXc1TjqPHV5qhVqtWrXVV7qU5Wt1RnqU9UL1SvUD+gflm9V4OsYaXB1uBqzNao1DiscUujX5OuOUozSjNXc7HmTs0Lms+0SFpWWkFafK1irS1ap7W66BjdnM6m8+jz6VvpZ+jd2kRta22OdpZ2mfZu7TbtPh0tHVedRJ1pOpU6x3Q6dDFdK12Obo7uUt39ujd1Pw0zGsYaJhi2aFjdsKvD3usN1/PXE+iV6u3Ru6H3SZ+hH6Sfrb9cv0H/gQFuYGcQYzDVYIPBGYPe4drDvYfzhpcO3z/8riFqaGcYazjDcIthq2G/kbFRiJHYaK3RaaNeY11jf+Ms45XGx417TOgmviZCk5UmJ0yeM3QYLEYOYw2jhdFnamgaaio13WzaZvrZzNoswazIbI/ZA3OKOdM83XylebN5n4WJxRiLmRa1FnctyZZMy0zL1ZbnLN9bWVslWS2warB6Zq1nzbEutK61vm9Ds/GzmWJTbXPdlmjLtM22XW97xQ61c7PLtKu0u2yP2rvbC+3X27ePIIzwHCEaUT3ilgPVgeVQ4FDr0Omo6xjhWOTY4PhypMXIlJHLR54b+c3JzSnHaavTvVFao8JGFY1qGvXa2c6Z51zpfN2F5hLsMsel0eWVq72rwHWD6203utsYtwVuzW5f3T3cJe517j0eFh6pHlUet5jazGjmYuZ5T4JngOccz6OeH73cvfK99nv95e3gne290/vZaOvRgtFbR3f5mPlwfTb7dPgyfFN9N/l2+Jn6cf2q/R75m/vz/bf5P2XZsrJYu1gvA5wCJAGHAt6zvdiz2CcDscCQwNLAtiCtoISgdUEPg82CM4Jrg/tC3EJmhJwMJYSGhy4PvcUx4vA4NZy+MI+wWWEt4dTwuPB14Y8i7CIkEU1j0DFhY1aMuR9pGSmKbIgCUZyoFVEPoq2jp0QfiSHGRMdUxjyJHRU7M/ZcHD1uUtzOuHfxAfFL4+8l2CRIE5oT1RPHJ9Ykvk8KTCpP6hg7cuyssZeSDZKFyY0ppJTElG0p/eOCxq0a1z3ebXzJ+JsTrCdMm3BhosHEnInHJqlP4k46kEpITUrdmfqFG8Wt5vancdKq0vp4bN5q3gu+P38lv0fgIygXPE33SS9Pf5bhk7EioyfTL7Mis1fIFq4TvsoKzdqY9T47Knt79kBOUs6eXJXc1NzDIi1RtqhlsvHkaZPbxfbiEnHHFK8pq6b0ScIl2/KQvAl5jfna8Ee+VWoj/UXaWeBbUFnwYWri1APTNKeJprVOt5u+aPrTwuDC32bgM3gzmmeazpw3s3MWa9bm2cjstNnNc8znFM/pnhsyd8c8yrzseb8XORWVF72dnzS/qdioeG5x1y8hv9SWqJVISm4t8F6wcSG+ULiwbZHLorWLvpXySy+WOZVVlH1ZzFt88ddRv675dWBJ+pK2pe5LNywjLhMtu7ncb/mOcs3ywvKuFWNW1K9krCxd+XbVpFUXKlwrNq6mrJau7lgTsaZxrcXaZWu/rMtcd6MyoHJPlWHVoqr36/nrr27w31C30Whj2cZPm4Sbbm8O2VxfbVVdsYW4pWDLk62JW8/9xvytZpvBtrJtX7eLtnfsiN3RUuNRU7PTcOfSWrRWWtuza/yuK7sDdzfWOdRt3qO7p2wv2Cvd+3xf6r6b+8P3Nx9gHqg7aHmw6hD9UGk9Uj+9vq8hs6GjMbmx/XDY4eYm76ZDRxyPbD9qerTymM6xpccpx4uPD5woPNF/Unyy91TGqa7mSc33To89fb0lpqXtTPiZ82eDz54+xzp34rzP+aMXvC4cvsi82HDJ/VJ9q1vrod/dfj/U5t5Wf9njcuMVzytN7aPbj1/1u3rqWuC1s9c51y/diLzRfjPh5u1b42913ObffnYn586ruwV3P9+be59wv/SBxoOKh4YPq/+w/WNPh3vHsc7AztZHcY/udfG6XjzOe/ylu/gJ7UnFU5OnNc+cnx3tCe658nzc8+4X4hefe0v+1Pyz6qXNy4N/+f/V2je2r/uV5NXA68Vv9N9sf+v6trk/uv/hu9x3n9+XftD/sOMj8+O5T0mfnn6e+oX0Zc1X269N38K/3R/IHRgQcyVc+a8ABiuang7A6+0A0JIBoMPzGWWc4vwnL4jizCpH4D9hxRlRXtwBqIP/7zG98O/mFgB7t8LjF9RXHw9ANA2AeE+AurgM1cGzmvxcKStEeA7YFPU1LTcN/JuiOHP+EPfPLZCpuoKf238B39d8k3gwCt8AAAA4ZVhJZk1NACoAAAAIAAGHaQAEAAAAAQAAABoAAAAAAAKgAgAEAAAAAQAAAUCgAwAEAAAAAQAAAQgAAAAAKRQWRgAAKmdJREFUeAHtnQmYFMUVxx+3CMglAiq6EXBFokQgqARFOTR4RJQ1xot4RolfEPEGFFERFYx4JMQgwqcQBa+ooBJA5ZCIihdBiSiiAkblBg9Ow7+SKntqe/aa1709M//3fbNdr7r6VdWvZ99Ud11VmjVr9oNQSIAESCAPCVTNwzqzyiRAAiRgCNAB8otAAiSQtwToAPP21rPiJEACdID8DpAACeQtATrAvL31rDgJkAAdIL8DJEACeUuADjBvbz0rTgIkQAfI7wAJkEDeEqADzLJb37BhwywrMYsbJNC4ceOgynAlE6heyfmrZH/BBRfIcccdZ2xt3bpV+vbtq2LXGmnTpo0MHTrUqu64Y8cO2bBhg6xatUomTJggK1ascOc0A6jfL37xC8E/T/Xq/7tl27dvl88++0wmTZokCxYsyCi7yy67TI466ihnA7ZXr15t7P/73/+WadOmuXNagTFjxkhZnPm6deukX79+GWdbVFQk+JRFhgwZIh999FFZkpaapmnTpjJw4EBp0aKF1KtXT6pUqSI//PCDbNy4UZ555hmZMmVKqTZKSxC8f1dccYV88cUXxS655ZZbpHXr1oLv7Nlnn13sfL5G5IQD7N69u9StW9fdw06dOsnrr7/u9EwDe+yxR4r9oL369evLfvvtJ0cccYTMmjVL7r777uDpjMP333+/FBQUFLMDR3jAAQcIvvyZOsB99tmnWP0aNGggrVq1km7dupl/GPwDffDBB8XKUdGIvfbaS2rVqlXq5TVq1Cg1TVkSNG/evFgd010HR6Uh+B4OGjTI/WhZm3CC+N7ghxr39s4777SnKnQM3r86deqE2th7773LXP9QAzkamfUOcM899zRfpuD96dWrl6oDDNpeu3atLFq0yPyS48uGfyx8uSBwxGgxPf/888FLKhxGqxL1g3z//fcye/ZsWbhwoTRp0kTat29vPhU2nubCd99915xBywUtTjgg/ACMHDlS7rvvPpk+fXqaKysWvXPnTlOndFejJaotaDl/+eWXac2iRZ+pHHbYYXLjjTc6M2hRzp8/3zwlHHLIIaZF36hRI6lZs6ZLw0D8BLLeAZ500kmO2ubNm82v3E9/+lMXpx14//33jTMI2sUj2oknnmiiUB4NB9i1a1fn/PC49Pvf/17Wr1/vssXjE5wvWmiaMn78+JTHPzwOonULufDCC9UdIF5ZDBs2TLMKpdp6+umnZcaMGaWmyyRB8LEd34c///nPzhwc4QMPPGAe7fEDQKk8AlnfCdK5c2dDb8uWLaaFBKV27drm0SIurHifZQWPdhoCZ2NlxIgRKc7PxuNdD94BRim33nqrLFu2zGSx++67y5lnnhlldjlhGy08+1SAd5hB5xesIL43cISUyiOQ9Q4QrSDI0qVL5YUXXnAkf/WrX7lw1AHrhJGPxiMbHj/xeATZtGmTeeQ2SiX9efjhh13OPXr0cGEGwgmcfvrp7oT2KwNnmAEVAln9CIzHTrxQhsydO1eWL18uaAni5XrHjh1VAPlGbC8s4uF88a7n/PPPd8k0ekxbtmzp7C1ZssSFKyvw5ptvmp5LsMb7QE2BTbzTTCdff/11ulMVjkd+++67b+j1Gj35wfoEf5RDM1SOxHtbjEzwJfi99c/ls57VDjD4/ss6Hrxsbtu2rWlBoact7MuQyQ3H+7CpU6cWM4FOikcffVSee+65YufKG1Gwq2fQikaL0trK5Ih3dfhhKUvPbXnygT28d0wnr732muAxXFPOOusswSdMNHry8b2zsmbNGhuM5XjDDTfEkk+uZJLVDtC2lNAza2XOnDnGAUJHh0TU78hsvviF3X///a2a0THYOomiBVSRwsHBw1lVrZr1b00qUv1yXYN3pRCMp/QFrxCCrTGMCeRjsk8pPj1rHSDGWNkv0ttvv+2IoSVoe+C6dOmi7gAxzAVOFY9uGCuHsXj4UmNIDFqk+PUPGzTtCliGQHBoxLZt28pwRfRJgr2VGJqj1TJF/e644460Ffj000/TnqvoCXxH0o2dxBCZTMX+SMC5+TJgwAA/St55550Sh+UUu6CEiHQD8v/whz8UGy5Wgpm8OZW1DhBj/azMnDnTBs0RLUJ0IgRbUikJMlDQInvrrbecBTwyjR071ozoxy9/hw4dBJ0YJY0zcxenCaxcudKd0epVdgYrGEDPOgT/1FrOD/YwMwGPuXEKXpME76F23mgt47tgf6C17ZdkD840bBbLxRdfTAcYAi5rn2eCY/2uvfZamThxovugZQZBK61nz54h1daPgiO0gmlrmcjnn3/uLk/K3FHbKsW7QErJBNBzD8H3zxe8lsFn3rx5/inqlUAgKx0gOglsiwTM4PCCH/sIgnNxOcDgo1OmLU877g7lt+85Ea4swVQ/yxSDzSklEwi2kINzrEu+imcrg0BWPgIHx/hhfmrY4ybe/+ERBBPA4xDb6kReeKzLROAA0dJCqwuP05k+UmdSFlx70UUXOROYBkgpmQBmemAkAqRPnz5miFbJV/BsZRHISgcYHON39dVXh7Lbtd+xHHTQQWYua7t27cTOcQ1NrBAZbGlqOAkMtTnttNNMya677jrBKh9hglkHGvmF2UYcxlpirCMEvZqjRo0yYf5JTwDTFLHiCt4DogUf9T1KXxKeKY1A1jlA9LLaWRLB4S9+RTEcBg4QgncuWg4QjhXzdCEYFIzHXbQ27dgvtNyQd6by0EMPycknn2wcOFqxWBUG06asszv++OPlvPPOE/Siai7/hd51/GCgdxv52ildqE8UwzXQSrfzqNMxs2M8051PYvwTTzxh7gveAw4fPlwwmwaddZjPjVcKBx98cBKLnXdlyjoHGPxnKcmpPfvss/K73/3O3NBDDz1U7cZiiah0rU70kGLZKC0ZPHiwsYfxd3jviTnByCP4cr2kH4GKlCNsgDCGwEyePFl9SBHKBwdohy2lKy86DLQHtKfLSyse6/xhmSqsEIT3p/ixwse/f2hVh73C0SoH7ZRMIOs6QY488khXo9JW9LDOAWP0yrL4pjPsBUp6p4cWGP45sVQVWmzBMYmemXKrWHkG75DQwYJ/HEjQ+aG1iXwzFWs7aAdDObDYwhtvvCEYQhHXgPJgGWxYw/kF72FYfW1emkesDYmWO1haCd4/tOZ79+5tT1X4GKxPcLxm0GAwTTA+38NVdj3SFR+tme9UElp/PJLi8fTbb781K7QkYZ5wQlElslhHH320mfeMHzbNxWUTWdksKRQdYJbcKBaTBEhAn0DWPQLrI6BFEiCBfCVAB5ivd571JgESEDpAfglIgATylgAdYN7eelacBEiADpDfARIggbwlQAeYt7eeFScBEqAD5HeABEggbwnQAebtrWfFSYAEIpkLjLm3wRVox40bpzJli7eLBEiABDQJqDpA7I+LteP8ZdwxKZxCAiRAAkkjoOYAR44cKW3atEla/VgeEiABEkhLQO0doN0MGqtOYEUULApJIQESIIEkE1BrAa5bt87sRoXlf7Doo13NOMmVZ9lIgATym4CaA0y3ZHt+42XtSYAEkkxA7RE4yZVk2UiABEggjAAdYBgVxpEACeQFATrAvLjNrCQJkEAYATrAMCqMIwESyAsCdIB5cZtZSRIggTACdIBhVBhHAiSQFwToAPPiNrOSJEACYQTUxgGGGY8j7q677pLCwkKXFfZgLSoqcrp2gPnpEiXP7OapW/r4rWV9CzC40TTw+bo2Ut++rzO/8hHw+fl6+ayVntq37+ulWyhfCt++r5fPWumpffu+XrqF/Eqh2gLs0aOH1KhRwxBs27atI3nQQQdJr169jL5t2zaZOXOmO8cACZAACVQWAVUHOGDAgNB6tG/fXvCxQgdoSfBIAiRQmQRifwTGajGa4tvzdc28YMu37+vMr3wEfH6+Xj5rpaf27ft66RbKl8K37+vls1Z6at++r5duIb9SVGnWrJmuR8ovfqwtCZBAFhOIvQWYxaxYdBIggRwjQAeYYzeU1SEBEig7ATrAsrNiShIggRwjQAeYYzeU1SEBEig7ATrAsrNiShIggRwjQAeYYzeU1SEBEig7ATrAsrNiShIggRwjQAeYYzeU1SEBEig7gcgcoN0nuOxFYUoSIAESiJeA2lzgww8/XPr06SMtW7aUWrVquVps2bJF3nvvPRk2bJiLY4AESIAEkkBAZSrcUUcdJddee22J9dm+fbtgsYTly5eXmI4nSYAESCAuAmotQFtgOLj3339fPv74Y8Fj8Mknnyx16tSR6tWry4gRI+TMM8+0SXkkARIggUoloOIAV69ebR5z//SnP8nKlStTKjRx4kR5/PHHpXbt2lKvXj1p166dvPvuuylpqJAACZBAZRCoVrdu3ZsyzRgOcNasWbJp06ZQU3vttZe0bt3anFu/fr288847oekYSQIkQAJxEoisFzhYiZ07dzp1x44dLswACZAACVQmgVgcYHB5/Hnz5lVmfZk3CZAACTgCkTtAvPMrKCgwGX733XeybNkylzkDJEACJFCZBCJ3gEOGDHH1u/32212YARIgARKobAKROkDs+YreXwgefRcuXFjZ9WX+JEACJOAIROYABw0a5DYsX7FihbD155gzQAIkkBACkTjAfv36SefOnU0V165dK5deemlCqstikAAJkMCPBNQd4Nlnny0nnniiyeGbb76Rvn37/pgbQyRAAiSQIAIqM0FsfU455RQ31Q2LIFx22WX2VGRHvGcsLCx09r///nspKipyunaA+ekSJc/s5qlb+vitqbUAe/ToIRdffLGpwdatW6V///6CGSJRS5UqVVKy8PWUkwqKb9/XFbJIMeHb9/WUxAqKb9/XFbJIMeHb9/WUxAqKb9/XFbJIMeHb9/WUxAqKb9/XFbLIKRMqLUCM9bv88ssdmOnTp8vPfvYz83GR/w9gkYQlS5b40dRJgARIIHYCKg6wffv2EvylwQow6WTx4sWlLp2V7lrGkwAJkIAmAZVH4OBc39IKV560pdnC+R9++CElma+nnFRQfPu+rpBFignfvq+nJFZQfPu+rpBFignfvq+nJFZQfPu+rpBFignfvq+nJFZQfPu+rpBFTplQWRA1p4iwMiRAAnlDQKUFmDe0WFESIIGcIkAHmFO3k5UhARIoDwE6wPLQYloSIIGcIkAHmFO3k5UhARIoDwE6wPLQYloSIIGcIkAHmFO3k5UhARIoDwE6wPLQYloSIIGcIkAHmFO3k5UhARIoD4HIHGDTpk3LUw6mJQESIIHYCajMBUapr732WrMsVaNGjaR69R/NYmUYLH6AZY/WrFkTewWZIQmQAAmkI6A2FW7q1Knp8jDxmAN8zTXXcCWYEinxJAmQQJwEVB3ghg0bZNGiRfLJJ5/I+vXr5ec//7kceuihsvvuu5s6Rb1YaZzgmBcJkED2E1BzgCWheOihh2SvvfYySa6//nrjJEtKz3MkQAIkEAeByDpBgoV/6aWXnIrFUykkQAIkkAQCsTjAxo0bu7pu3LjRhRkgARIggcokELkD7N69u+ADweKMr776amXWl3mTAAmQgCPw43gVF5VZoE+fPtK1a1epU6eOee9nl8rfvn27jBs3jkNhMsPLq0mABBQJqDtAvOM74IADUoqIlt8NN9zAzo8UKlRIgAQqm0C1unXr3qRZCLzva9CggXz77bdSrVo1qVGjhtkwCdtmIvzuu+9qZkdbJEACJFBhApEPg+nYsaMMHjzYOD+UksNgKnyveCEJkIAygcg7Qd58800ZOXKkK/Z5553nwgyQAAmQQGUSiNwBonLz589321faAdGVWWnmTQIkQAIgoN4Jkg6r7Q3W3qcUiywUFha6bKOebsf8HGqVAHmqYHRG4ubpMs7SgEoLsH79+iVW/5JLLnHnV6xY4cIaAetYrS1ft/FaR9++r2vlY+349n3dptM6+vZ9XSsfa8e37+s2ndbRt+/rWvlYO759X7fptI6+fV/XyidX7Ki0ALEUVps2beSNN96Qf/zjH7J06VLBwggFBQVy7rnnyuGHH+54zZgxw4UZIAESIIHKJKDiAFEBDHHp3Lmz+aSr0MKFC+Xll19Od5rxJEACJBArARUHiJbf/vvvL+kehbds2SKTJ0+WKVOmqFfOf6fo69oZ+vZ9nfmVj4DPz9fLZ6301L59Xy/dQvlS+PZ9vXzWSk/t2/f10i3kVwr1cYCHHXaYNGvWTBo2bChffPGFfPjhh7Jy5cr8osrakgAJZAUBdQeYFbVmIUmABEhgFwGVXmCSJAESIIFsJEAHmI13jWUmARJQIUAHqIKRRkiABLKRAB1gNt41lpkESECFAB2gCkYaIQESyEYCdIDZeNdYZhIgARUCdIAqGGmEBEggGwnQAWbjXYupzOlm9sSUPbMhgcgJqEyFS1fK1q1by80332yWxEeayy+/XL788st0yRmfAAJXXnmltG/fXvbYYw9z37Zu3Sr/+c9/5I9//KN89NFHKiWcNGmS2S4B2yZccMEFoTabNGkio0ePNuk2b94sF110UWg6RpJAJgQibQFiI6R69erJrn1HzKdWrVqZlJXXRkzgnnvukWOPPdbM6bbLKNWsWVP2228/GTVqlGhtar9s2TLzfcDiuFdccUVorbCNAlqg+O5wK9VQRIxUIBCZAzz//POlUaNGCkWkiTgIXHXVVdKyZUuTFRaVfeyxx0wLbPHixSauevXqMmzYMJWi4Idx27Ztxla3bt2kadOmKXaxfFqrVq1M3Nq1a2X8+PEp56mQgBaBSBwgvtCnnnqqKeM333yjVVbaiZDAkUceaazv3LlTBg4cKBMnTpSZM2cK1nr84IMPzDk4wVNOOUWlFBMmTDB20NLERllBGTBggFNvueUWF2aABLQJROIAhw4dKlWrVpVVq1apvTfSrjjt/UjgqKOOEvt6AovZfvbZZz+e3BX661//6vSTTz7ZhTMJPPPMM+59MFp7nTp1MubwThCvTSCzZ882i+sahX9IIAIC6g7whBNOMO+MsA7ZrbfeGkGRaVKbgG39we4///nPYubhFO0jq+amVniktuvVodWH/aR79+5t8kcHSXA3wWKFYgQJKBBQd4AXX3yxKRZeXPstCYXy0kQEBILvau3jrp8NtjiAoGWvJfh+oJUHQa/zuHHjnH10ulBIIGoCet/mXSUdPny4WRofQyduv/32qMtO+0oEguP90OkQJt99952L9jst3IkKBODo0OkCsY/hixYtktdff70C1ngJCZSPgJoD7NixoxsmgV9ySvYQwFATK1jFO0yCDnCfffYJS1LhuKeeeirlWr9TJOUkFRJQJKDmAK+++mpTLAyanTZtmmIRaSpqAmV5rC1LmoqWs1evXimX9uvXL0WnQgJREVBxgBjMWqdOHVPG2267Laqy0m5EBIJDlTADI0wwINrK6tWrbTDjI3p9sX9MUOAQ05UjmI5hEsiUgMpUOMwegOAfqXv37uZjC9aiRQsblDPOOEPWr18vr732muA9DyUZBDZt2uQKAmf09ddfO90GdtttNxtU69zCu0Tb64teZvT6Dho0yHSEDBkyxEyddJkyQAIREFBxgHbaFFqBJQ2U7dq1q6kCevzoACO4mxU0uW7dOncltjfFTn6+2PeEdtiKf74iuh0vimsxMHr+/Plm3CjGBWJWCsYnzp07tyKmeQ0JlImAigNEyw8bo4cJHp2sg8SvPGYarFmzJixpheLuuusuKSwsdNeiR7GoqMjp2oFczA8O74gjjjCo4HRmzJiRgm3PPfeU3Xff3cRt3Lgx5VxFFTteFNfjvTEGRkNGjBghDz74oPnO9O/fX90B5uL9M+D+/yfu+gXzzsawigP8zW9+k7buGBpjJ9FjNRjtsYHWudoC+LqN1zr69n1dKx9rx7fv6zZdJkdsWH/OOeeYR8+2bdsWM/XrX//axc2ZM8eFMwnY8aJoUWLFICtYLQh54Gmhdu3aAid477332tMZH31+vp5xBp4B376ve8kzVn37vp5xBjlmQKUTJMeY5GV1lixZYuqNsXhjxowRO9SlT58+gtYaBM7qgQceMOFM/tjxorDxyiuvFPtRxLtAO/OkZ8+e0rx580yy47UkkJYAHWBaNPl1Ao9OdkAyOq7g6KZOnSpY1cfK448/boMVPnbo0ME9ESA/5Bsmjz76qIlGCwarx1BIIAoCkTtAvPOLUvyX8r6unbdv39ezNT88emLR0a+++qpYFbZv3y5jx46Vhx9+uNi58kZgpRkrJT3a4rHcTr/DeoRYIktD/Pvl6xp5BG349n09mFYj7Nv3dY08cslGlWbNmv2QSxViXXQIoDMEY/EWLFggK1eu1DFKKySQMAJ0gAm7ISwOCZBAfAQifwSOryrMiQRIgATKR4AOsHy8mJoESCCHCNAB5tDNZFVIgATKR4AOsHy8mJoESCCHCNAB5tDNZFVIgATKR4AOsHy8mJoESCCHCNAB5tDNZFVIgATKR4AOsHy8mJoESCCHCKisBgMe2ASpoKCgRDRPP/20TJ48ucQ0PBk/gUmTJkm1atUEW1FiheYwwayQ0aNHm3SbN2820+bC0pUlLu78ylImpslPAmotwL333luwaGZJH67qkcwv2bJly8x9w56/2N4gTAYPHizYPQ73F1ueZiJx55dJWXltbhNQc4AWEybOv/HGG6EfbnVoKSXriNVW7PJT3bp1E3/bSyxEgFWaIdg2c/z48RlVIO78MiosL85pAmpzgbFSCDbYxj9I3759cxpaLlYOWxnYRUo/+ugjGTBggKsmlqaqV6+e0dFCXLp0qTtX0UDc+VW0nLwutwmotwBzG1fu1g5L0mNJLAhae506dTJhvBO0zm/27Nkqzg+G487PVIZ/SMAjQAfoAclnddiwYWbVZzBAC7BBgwZu1zZ0kGClZk2JOz/NstNWbhBQ6wW2OPBPg14+bKOIfxpseDN9+nSZOXOmTcJjQglgvxa08o455hjBzn3jxo0z+4SguKNGjVIvddz5qVeABrOegHoLsGrVqqa3EHtLYI/ZNm3amNbEfffdl/Ww8qECcHR2aXzcQwi2MI2qAyvu/PLhHrKOZSdQbdewhpvKnjx9ylNPPVXwD/P555+b90RYWh1bZdrtFOEMDznkEJk1a1Z6IzyTCALVq1c398oW5sILL7TBSI5x5xdJJWg0Kwmo9QLDuYVtdn7ssccK9oGw2/MNGjRI3nvvvayElS+FfuSRR0zr3dZ32rRpZqc4q2sf485Pu/y0l70E1B6Bw5wfsLz88svy0ksvOULYa4KSXALo9UVrPSi9evUy+4ME47TCceenVW7ayQ0Cag6wJBwvvPCCO33AAQe4MAPJIoAB0L179zaFwsDo2267zYTxXnfIkCHqhY07P/UK0GDWE4jFAX799dcOlH0n6CIYSAyBoUOHul7fCRMmyPz58wWDoiEtW7YU7dZ73PklBjQLkhgC6sNgwmrWtm1bF629xSI21i4sLHT20YNZVFTkdO1AruZ3wgknCPbfhWDoEgYqQ0aMGCEPPvigeYfbv39/mTt3ronP9E/c+dny5ur9q6z62Xyz9RhLCxAbbltZsmSJDaocbeeKNebrNl7r6Nv3da18rB3fvq/bdJke7TQ4bKR98803O3OYHTJnzhyj165dW+AENSTu/GyZfX6+btNpHX37vq6Vj7Xj2/d1m47H/xFQcYDXXXedPPHEE+afI9jaw3Sqhx56yMwRRnZonSEdJVkEhg8fboYsoVSvvPKKYIByUDADxC6W0LNnT8l0VZ+48wvWhWESCBJQcYAwiJkfxx13nNxxxx0ydepU87nxxhsFSyxB0LLAmoGUZBHo0KGDtGvXzhQKP1B4RAwTLIgAQYsCq7lUVOLOr6Ll5HX5QUDFAWJ1ENtCCMOG936XXXaZvPnmm2GnM4qDYw2KrwfPaYR9+76ukUfQhm/f14NpKxLGGE0r9957rw0WO06ZMkU2bNhg4vGuEEtkVUTizs8vo8/P1/30meq+fV/P1L5/vW/f1/30+a6rDYQGSPxj7L///rLnnnuaRyr0IL711lv5zpj1JwESSCgBVQeY0DqyWCRAAiQQSkDlETjUMiNJgARIIOEE6AATfoNYPBIggegI0AFGx5aWSYAEEk6ADjDhN4jFIwESiI4AHWB0bGmZBEgg4QToABN+g1g8EiCB6AjQAUbHlpZJgAQSTiByB4hB0RQSIAESSCIB9eWwGjduLNdcc42ZEbJrvxFX582bN8uMGTPMTmMukoG8JIBdA6tVq2Z2DcSK0GHSpEkTGT16tEmH705wRaGw9IwjgYoQUG0BHnzwwTJ27FjBijBB54eCQe/WrVtFyshrcozAsmXLzPcBC2VcccUVobUbPHiw2V0Q35tXX301NA0jSSBTAmoOsH79+ma1l5o1a5oyYVHN5557Tu655x558sknZdWqVbJz585My8vrc4AAVpOxi2fgRxFL4wcFCy20atXKRK1du1bGjx8fPM0wCagRUJsLfNVVV5kNtVGyefPmcekrtVuUm4ZOOeUUsYuiYtGMAQMGuIpi6a169eoZHS1ErDZEIYEoCKi1ALt06WLKh/c1XPcviluVWzax5D5Wm4agtYfFcyF4J2id3+zZs+n8DBX+iYqAigM84ogjBJtbQ6ZPnx5VWWk3xwgMGzbMLJSLaqEF2KBBA7cr3bfffitYiZpCAlESUOkFtpvpoKD41e7Tp4/ZQWzfffc1PX1YEBXvcT788MMo60LbWUYAS+/j+3LMMcfIHnvsYUYIYAtOyKhRo7KsNixuNhKotquX7aZMC969e3ezbSLsNGrUSE466SRzRKsQG+ngJTeWy69Vq5a88847mWbH63OIALbePO2008wThH2KWLRokTz88MM5VEtWJakEVB6Bg7146MHDMtxY/h69wO+//76pO/aSwHaV3Bg9qV+FyivXU089lZL59ddfn6JTIYGoCKi0AH/5y18KBq5awWZIjz32mCxcuNAMfobzO+SQQ8zpAw88UF588UWblEcSMAPn8aRgBUOqotg/xtrnkQQsAZUWoN0sB0aXL18ub7/9trVvjhj5v3XrVhPeZ599Us5RyW8C6PVt2LBhCoRevXql/KCmnKRCAooEVBzg6tWrXZHsI6+L+H9g/fr1JoT3gBQSAAG8Oundu7eBgYHRt912mwmjI2TIkCEmzD8kECUBdQf4zTffhJZ3y5YtJp471YfiycvIoUOHiu31nTBhgqBDBIOiIS1btjQjCfISDCsdGwGVYTBLlixxBU73iIthDpDt27e7tBoBbORdWFjoTGFzb3S2RCXMT4fsCSecYLZRhTVMm8TAaMiIESPkwQcfNBuw9+/fX+bOnWvitf7w/mmRzA07Ki3AxYsXm/F+QNKhQ4diZDAeEC+2IZs2bSp2PpMIv0Xp65nYDrvWt+/rYddkEufb9/VMbIdd69v39bBrKhJnp8FhxMDNN9/sTGB2yJw5c4yOjhE4QU3x6+PrmnnBlm/f17M9P+3yx21PxQGi0Jj/C8E7vvvvv9+E8QfveYJT41544QV3joH8JDB8+HCpUaOGqfwrr7wiGBAdFMwAsYsl9OzZU5o3bx48zTAJqBFQc4D33nuvrFu3zhSsoKBApk6dKn//+9/N6H5McYKgI+Rvf/ubCfNPfhLAE0K7du1M5fG6Ao+kYYIFESBoMWH1GAoJREFAzQGicOeee6588sknrpx2ZD8i3nvvPTnnnHPcOa0AHqGC4uvBcxph376va+QRtOHb9/VgWo2wb9/XM81j4MCBzgR+NNPJlClTxA6vwlRLDLDXEL8+vq6RR9CGb9/Xg2k1wr59X9fII5dsqC2H5UNp3769WeUDi19yUKtPhzoJkEASCETmAJNQOZaBBEiABEoioPoIXFJGPEcCJEACSSNAB5i0O8LykAAJxEaADjA21MyIBEggaQToAJN2R1geEiCB2AjQAcaGmhmRAAkkjQAdYNLuCMtDAiQQGwE6wNhQMyMSIIGkEaADTNodYXlIgARiI6CyHNYll1wixx57bJkKjdU+Lr/88jKlZSISIAESiJKAigPEGoC7dpcrUzm11wMsU6ZMRAIkQAIhBFQcINZv27FjR4j5/0VhJ7jGjRsbZcGCBWnT8QQJkAAJxEkglrnAY8aMkRYtWph6/fa3v5U1a9bEWUfmRQIkQAKhBCLvBEHLzzq/lStX0vmF3gZGkgAJVAaByB0g1gi08uyzz9ogjyRAAiRQ6QQid4BdunQxlUTnx7Rp0yq9wiwACZAACVgCkTpAOL/ddtvN5IUVoSkkQAIkkCQCkTrA008/3dV14sSJLswACZAACSSBQKQOEMNfINjb4cMPP0xCfVkGEiABEnAEInOA/fr1c3uiYutDCgmQAAkkjUBkDvCYY44xdcWuVGPHjk1avVkeEiABEpBIHCB2hKtTp47B++mnnxIzCZAACSSSgMpUOL9mZ511lot6+umnXTiKADbWLiwsdKax2XZRUZHTtQPMT5coeWY3T93Sx28tkhagdUjbtm2TWbNmRVqrKlWqpNj39ZSTCopv39cVskgx4dv39ZTECopv39cVskgx4dv39ZTECopv39cVskgx4dv39ZTECopv39cVssgpE+oOEHN9LXRuiJ5T3xVWhgRyjoC6AzzuuOMcpEceecSFGSABEiCBpBFQdYD77bef1K9f39Rx7dq18tlnn0VeX/QyB8XXg+c0wr59X9fII2jDt+/rwbQaYd++r2vkEbTh2/f1YFqNsG/f1zXyCNrw7ft6MK1G2Lfv6xp55JKNWJbDyiVgrAsJkEDuEFBtAeYOFtaEBEggHwjQAebDXWYdSYAEQgnQAYZiYSQJkEA+EKADzIe7zDqSAAmEEqADDMXCSBIggXwgQAeYD3eZdSQBEgglQAcYioWRJEAC+UCADjAf7jLrSAIkEEogUgfYsGHD0EwZSQIkQAJJIKC6HFbTpk3l6quvllatWkn16v8zjak4GzdulEmTJsnzzz+fhDqzDCRAAiRgCKhNhcP+H6NHj5aqVdM3KhcsWCC33HIL0ZMACZBAIghUq1u37k0aJbnvvvukdu3axtRXX30lTz75pGAx1F32pVmzZmaJrH333VeWLVsmK1as0MiSNkiABEggIwJqj8ANGjQwBdm5c6dccMEFrlBYE/CGG26Qww8/3MRhr5DXXnvNnWeABEiABCqLQPrn1XKU6LDDDnOpV65c6cI28Mwzz9igoBVIIQESIIEkEFBxgKtWrXJ1qVevngvbwE9+8hMbNHsEO4UBEiABEqhEAioO8Msvv5RNmzaZauBR+KCDDkqp0kknneT0F1980YUZIAESIIHKJKDWC3zwwQfLjTfeaDo9UKENGzbIunXrBKtEo2cYw2GwQRJ6iikkQAIkkAQCag4QlcFy+H/5y18k7DH4gQcekOeeey4JdWYZSIAESMAQUHOAnTt3luuuu86NA9yyZYvs2LHDDI2xu8T961//MmnIngRIgASSQEDNAT777LPG+WEYzMiRI2Xu3LmufmgV2t7fadOmyZgxY9w5BkiABEigsgiodIJceOGFruUHBxd0fqjYpZdeKnCMkB49epgj/5AACZBAZRNQcYAtW7Z09ZgzZ44LBwPYJhNSq1atYDTDJEACJFBpBFRmgtSsWdNVwC6C4CL+HyhpjrCftjz6XXfdJYWFhe6S77//XoqKipyuHWB+ukTJM7t56pY+fmsqLcCPP/7Ylfz44493YRvAslh2aSx0jmiK7WCxNn3dxmsdffu+rpWPtePb93WbTuvo2/d1rXysHd++r9t0Wkffvq9r5WPt+PZ93abTOvr2fV0rn1yxo+IAg4+9Xbt2lTPOOMPxad68uRn7Z2/E8uXL3TkGSIAESKAyCag8Ai9evFjmzZsnXbp0Mau+nHvuuXLOOefI9u3bpUaNGq5+27ZtkyuvvNLpDJAACZBAZRJQaQGiArfffrs89thjxulBR4sv6PyWLl1qeoNxTlMwwyQovh48pxH27fu6Rh5BG759Xw+m1Qj79n1dI4+gDd++rwfTaoR9+76ukUfQhm/f14NpNcK+fV/XyCOXbKiNAwxCweKo6JjAjBCs/4clsSgkQAIkkDQCkTjApFWS5SEBEiCBMAJqj8BhxhlHAiRAAkkmQAeY5LvDspEACURKgA4wUrw0TgIkkGQCdIBJvjssGwmQQKQE6AAjxUvjJEACSSZAB5jku8OykQAJREqADjBSvDROAiSQZAIqU+FKqmDjxo1lzZo1JSXhuRwjcM0115iZQM8//7wsWrQosbXLlnImFmAWFKxjx45y9tlnFysp9iafPHmyqDvApk2bysCBA6VFixZmJgimxGE6zsaNGwX7A0+ZMqVYYRhRMoHWrVubBJhOGIdkkl+TJk3k6KOPNsX86quvInWA2VLOOO6ZRh6Z8KxI/nHkd+CBB4rNJ1hGbNeh7gA7deokgwYNEn9NQDhBbJjUt29fKSgokDvvvDNYFoZLIIBd9e6++26T4tFHH5VJkyaVkDrzU3HnV9ESZ0s5K1q/uK+Lm2dc+aGlF9ykDVv02pWpwPi/qFWJEbrznbYAAAAASUVORK5CYII=;" vertex="1" parent="1">
                    <mxGeometry x="623" y="224" width="106" height="106" as="geometry"/>
                </mxCell>
                <mxCell id="6" value="" style="shape=image;verticalLabelPosition=bottom;labelBackgroundColor=default;verticalAlign=top;aspect=fixed;imageAspect=0;image=data:image/png,iVBORw0KGgoAAAANSUhEUgAAARQAAAEKCAYAAADTrKqSAAAMQWlDQ1BJQ0MgUHJvZmlsZQAASImVVwdYU8kWnluSkJDQAghICb0JIjWAlBBaAOlFsBGSAKHEGAgqdmRRwbWgYgEbuiqi2AGxI3YWxd4XRFSUdbFgV96kgK77yvfm++bOf/85858z587cewcA9ZNcsTgH1QAgV5QviQ0JYIxNTmGQngJVoAmowBPYcnl5YlZ0dASAZbD9e3l3EyCy9pqDTOuf/f+1aPIFeTwAkGiI0/h5vFyIDwKAV/HEknwAiDLefGq+WIZhBdoSGCDEC2U4Q4GrZDhNgffKbeJj2RC3AKBC5XIlGQCoXYE8o4CXATXU+iB2EvGFIgDUGRD75uZO5kOcCrENtBFDLNNnpv2gk/E3zbQhTS43Ywgr5iIvKoHCPHEOd/r/mY7/XXJzpIM+rGClZkpCY2Vzhnm7nT05XIapEPeK0iKjINaC+IOQL7eHGKVkSkMTFPaoIS+PDXMGdCF24nMDwyE2hDhYlBMZoeTT0oXBHIjhCkGnCfM58RDrQbxQkBcUp7TZJJkcq/SF1qdL2Cwlf54rkfuV+XoozU5gKfVfZwo4Sn1MrTAzPgliCsQWBcLESIjVIHbMy44LV9qMLsxkRw7aSKSxsvgtII4ViEICFPpYQbokOFZpX5qbNzhfbFOmkBOpxPvzM+NDFfnBWnhcefxwLtgVgYiVMKgjyBsbMTgXviAwSDF37JlAlBCn1Pkgzg+IVYzFKeKcaKU9bibICZHxZhC75hXEKcfiiflwQSr08XRxfnS8Ik68MIsbFq2IB18GIgAbBAIGkMKaBiaDLCBs623ohXeKnmDABRKQAQTAQckMjkiS94jgNQ4Ugj8hEoC8oXEB8l4BKID81yFWcXUA6fLeAvmIbPAE4lwQDnLgvVQ+SjTkLRE8hozwH965sPJgvDmwyvr/PT/IfmdYkIlQMtJBjwz1QUtiEDGQGEoMJtriBrgv7o1HwKs/rM44E/ccnMd3e8ITQjvhEeEGoYNwZ5KwSPJTlGNAB9QPVuYi7cdc4FZQ0w0PwH2gOlTGdXED4IC7Qj8s3A96doMsWxm3LCuMn7T/NoMfnobSjuxERsnDyP5km59HqtmpuQ2pyHL9Y34UsaYN5Zs91POzf/YP2efDNvxnS2whdgA7h53CLmBHsQbAwE5gjVgrdkyGh1bXY/nqGvQWK48nG+oI/+Fv8MnKMpnnVOvU4/RF0ZcvmCZ7RwP2ZPF0iTAjM5/Bgl8EAYMj4jmOYDg7ObsAIPu+KF5fb2Lk3w1Et/U7N/8PAHxODAwMHPnOhZ0AYJ8H3P6Hv3M2TPjpUAXg/GGeVFKg4HDZhQDfEupwp+kDY2AObOB8nIE78Ab+IAiEgSgQD5LBRBh9JlznEjAVzATzQAkoA8vAKrAObARbwA6wG+wHDeAoOAXOgkvgCrgB7sHV0w1egD7wDnxGEISE0BA6oo+YIJaIPeKMMBFfJAiJQGKRZCQVyUBEiBSZicxHypByZB2yGalB9iGHkVPIBaQduYN0Ij3Ia+QTiqFUVBs1Qq3QkSgTZaHhaDw6Ac1Ap6CFaDG6BF2DVqO70Hr0FHoJvYF2oC/QfgxgqpguZoo5YEyMjUVhKVg6JsFmY6VYBVaN1WFN8DlfwzqwXuwjTsTpOAN3gCs4FE/AefgUfDa+GF+H78Dr8Rb8Gt6J9+HfCDSCIcGe4EXgEMYSMghTCSWECsI2wiHCGbiXugnviESiLtGa6AH3YjIxiziDuJi4nriHeJLYTuwi9pNIJH2SPcmHFEXikvJJJaS1pF2kE6SrpG7SBxVVFRMVZ5VglRQVkUqRSoXKTpXjKldVnqp8JmuQLcle5CgynzydvJS8ldxEvkzuJn+maFKsKT6UeEoWZR5lDaWOcoZyn/JGVVXVTNVTNUZVqDpXdY3qXtXzqp2qH6laVDsqmzqeKqUuoW6nnqTeob6h0WhWNH9aCi2ftoRWQztNe0j7oEZXc1TjqPHV5qhVqtWrXVV7qU5Wt1RnqU9UL1SvUD+gflm9V4OsYaXB1uBqzNao1DiscUujX5OuOUozSjNXc7HmTs0Lms+0SFpWWkFafK1irS1ap7W66BjdnM6m8+jz6VvpZ+jd2kRta22OdpZ2mfZu7TbtPh0tHVedRJ1pOpU6x3Q6dDFdK12Obo7uUt39ujd1Pw0zGsYaJhi2aFjdsKvD3usN1/PXE+iV6u3Ru6H3SZ+hH6Sfrb9cv0H/gQFuYGcQYzDVYIPBGYPe4drDvYfzhpcO3z/8riFqaGcYazjDcIthq2G/kbFRiJHYaK3RaaNeY11jf+Ms45XGx417TOgmviZCk5UmJ0yeM3QYLEYOYw2jhdFnamgaaio13WzaZvrZzNoswazIbI/ZA3OKOdM83XylebN5n4WJxRiLmRa1FnctyZZMy0zL1ZbnLN9bWVslWS2warB6Zq1nzbEutK61vm9Ds/GzmWJTbXPdlmjLtM22XW97xQ61c7PLtKu0u2yP2rvbC+3X27ePIIzwHCEaUT3ilgPVgeVQ4FDr0Omo6xjhWOTY4PhypMXIlJHLR54b+c3JzSnHaavTvVFao8JGFY1qGvXa2c6Z51zpfN2F5hLsMsel0eWVq72rwHWD6203utsYtwVuzW5f3T3cJe517j0eFh6pHlUet5jazGjmYuZ5T4JngOccz6OeH73cvfK99nv95e3gne290/vZaOvRgtFbR3f5mPlwfTb7dPgyfFN9N/l2+Jn6cf2q/R75m/vz/bf5P2XZsrJYu1gvA5wCJAGHAt6zvdiz2CcDscCQwNLAtiCtoISgdUEPg82CM4Jrg/tC3EJmhJwMJYSGhy4PvcUx4vA4NZy+MI+wWWEt4dTwuPB14Y8i7CIkEU1j0DFhY1aMuR9pGSmKbIgCUZyoFVEPoq2jp0QfiSHGRMdUxjyJHRU7M/ZcHD1uUtzOuHfxAfFL4+8l2CRIE5oT1RPHJ9Ykvk8KTCpP6hg7cuyssZeSDZKFyY0ppJTElG0p/eOCxq0a1z3ebXzJ+JsTrCdMm3BhosHEnInHJqlP4k46kEpITUrdmfqFG8Wt5vancdKq0vp4bN5q3gu+P38lv0fgIygXPE33SS9Pf5bhk7EioyfTL7Mis1fIFq4TvsoKzdqY9T47Knt79kBOUs6eXJXc1NzDIi1RtqhlsvHkaZPbxfbiEnHHFK8pq6b0ScIl2/KQvAl5jfna8Ee+VWoj/UXaWeBbUFnwYWri1APTNKeJprVOt5u+aPrTwuDC32bgM3gzmmeazpw3s3MWa9bm2cjstNnNc8znFM/pnhsyd8c8yrzseb8XORWVF72dnzS/qdioeG5x1y8hv9SWqJVISm4t8F6wcSG+ULiwbZHLorWLvpXySy+WOZVVlH1ZzFt88ddRv675dWBJ+pK2pe5LNywjLhMtu7ncb/mOcs3ywvKuFWNW1K9krCxd+XbVpFUXKlwrNq6mrJau7lgTsaZxrcXaZWu/rMtcd6MyoHJPlWHVoqr36/nrr27w31C30Whj2cZPm4Sbbm8O2VxfbVVdsYW4pWDLk62JW8/9xvytZpvBtrJtX7eLtnfsiN3RUuNRU7PTcOfSWrRWWtuza/yuK7sDdzfWOdRt3qO7p2wv2Cvd+3xf6r6b+8P3Nx9gHqg7aHmw6hD9UGk9Uj+9vq8hs6GjMbmx/XDY4eYm76ZDRxyPbD9qerTymM6xpccpx4uPD5woPNF/Unyy91TGqa7mSc33To89fb0lpqXtTPiZ82eDz54+xzp34rzP+aMXvC4cvsi82HDJ/VJ9q1vrod/dfj/U5t5Wf9njcuMVzytN7aPbj1/1u3rqWuC1s9c51y/diLzRfjPh5u1b42913ObffnYn586ruwV3P9+be59wv/SBxoOKh4YPq/+w/WNPh3vHsc7AztZHcY/udfG6XjzOe/ylu/gJ7UnFU5OnNc+cnx3tCe658nzc8+4X4hefe0v+1Pyz6qXNy4N/+f/V2je2r/uV5NXA68Vv9N9sf+v6trk/uv/hu9x3n9+XftD/sOMj8+O5T0mfnn6e+oX0Zc1X269N38K/3R/IHRgQcyVc+a8ABiuang7A6+0A0JIBoMPzGWWc4vwnL4jizCpH4D9hxRlRXtwBqIP/7zG98O/mFgB7t8LjF9RXHw9ANA2AeE+AurgM1cGzmvxcKStEeA7YFPU1LTcN/JuiOHP+EPfPLZCpuoKf238B39d8k3gwCt8AAAA4ZVhJZk1NACoAAAAIAAGHaQAEAAAAAQAAABoAAAAAAAKgAgAEAAAAAQAAARSgAwAEAAAAAQAAAQoAAAAAasueYAAAJLNJREFUeAHtnQmUFMUZx0tOYblXOZRj5XgIRgyooASCCuIjQjQBYxAhihBFEkENSBRQggYSTGJEQwgBfAY0eIRwSQiicsSIgFwBCSgi4cgqh7AgLCwY/mWq7K3t2Zmarhlmuv/13tL1VVd/VfXr5pvq6qr6zqlbt+4XgoEESIAEHBAo40AHVZAACZCAJECDwgeBBEjAGQEaFGcoqYgESIAGhc8ACZCAMwI0KM5QUhEJkAANCp8BEiABZwRoUJyhpCISIAEaFD4DJEACzgjQoDhDSUUkQAI0KHwGSIAEnBGgQXGGkopIgARoUPgMkAAJOCNAg+IMpVtFNWvWdKuQ2tJKIDc3N63lZUph5TKlIonUo3///qJr164y64kTJ0S/fv0SuSzhPC1atBCPPvpoifynTp0Shw4dEnv27BHPPfec2LVrV4k8LhLQvm984xsCD2O5cl/emqKiIrFz504xc+ZMsXLlykDFDB48WHTs2FHrgO59+/ZJ/f/+97/FggUL9DlXkUmTJolEjOPBgwfFoEGDAhfbq1cvgb9EwsiRI8UHH3yQSNa4eerUqSMeeOAB0aBBA1G1alVxzjnniC+++EIcPnxYzJkzR7z00ktxdcTL4L1/999/v9i7d2+JS8aOHSuaNWsm8Mz26dOnxPlUJ2SVQencubOoUqWKZtK2bVvx7rvvajlopFq1asX0e/VVr15dNGzYUFx11VViyZIl4je/+Y33dOD4M888I/Ly8krogWFp3LixwMMU1KBceOGFJdpXo0YN0bRpU3HdddfJBxAP5Pvvv1+iHskm1K5dW1SsWDHu5eXLl4+bJ5EM9erVK9HGWNfhP76LgOfw4Ycf1j8CSieMCp4b/PDh3v7yl79Up5I6eu9fTk6Or44LLrgg4fb7KgiYmDUG5bzzzpM3x9vebt26OTUoXt0HDhwQGzdulL80uHl4UHGzEGDY8Iv+2muveS9JOo5eD9qHcPz4cbF06VKxZs0acf7554s2bdrIv6SVx7hw/fr18gx+WdEjwn9oGNQJEyaIiRMnikWLFsW4Mrnk06dPyzbFuho9JdcBPbv8/PyYatHjDBpat24tRo8erdWgx/P222/LXuyll14qe5y1atUSFSpU0HnCHMkag9K9e3d9H44cOSKt8Ne+9jWd5jqyefNm+Z/Lqxdd8htvvFEmoT4uDEqnTp20MUH3+N577xWfffaZLhbdZRgz9CBchunTpxfr7qP7j94Xwl133eXcoOAVdcyYMS6bEFfX7NmzxeLFi+PmC5LB+5qG5+F3v/udVgfDMnnyZPkqB4MahZA1g7Lt27eX96OwsFD+gkOoVKmS7Eqm60ZhPEAFdOVdBPznVWHcuHHFjIlKx7syxlBSGR5//HGxfft2WUTlypVF7969U1lcKHSjB6J6rRgD8hoTbwPx3MCwRCFkjUHBrzTCtm3bxMKFC/W9+fa3v63jqY4oo4ZyXHTR8bqB7jBCQUGBfMWSwln65/nnn9cld+nSRccZ8Sdwyy236BOuXxG14iyLZMUrD14zMMCFsHz5crFjxw6BngoG+6644oqUIFdfWaAcxgzvynfeeacuy8UXkSZNmmh9W7Zs0fGzFVm9erX8MgHWGE9xGaATY0KxwqeffhrrVNLpKK9+/fq+17v4Uudtj/dHzrdAx4kY98KXRzN4n1vzXDrkrDAo3vED9R8Zg1+XXHKJ/IXHSLof3CAAMZ4wf/78EiowaPriiy+KefPmlThnm5B3ZuRfBRc9HqUryBFjHTDUiXyZsSkH+jBuEyu88847Aq9dLsNtt90m8OcXXHypw3Onwv79+1U0LcdRo0alpRzbQrLCoKhfcnx5UWHZsmXSoEDGAGmqxxhUufgFaNSokRIDHb2/nqn4hU6mcjCY+M9fpkzWvA0n00wn12CsCQHzecyAV0ZvbwFzUqLwWpTxBgXf+NWNWbt2rb5v6KmoEfYOHTo4Nyj4LAwjha465mpgLggeEnxCRo8Jv05+k+B0BROIeD8lnjx5MoErUp/F+zUCn7Jd9ZzQvl/84hcxG/Dxxx/HPJfsCTwjsebu4JNy0KCMLoyFGYYOHWomiXXr1pX6GbvEBaUkxJpg+eMf/7jE9IpS1Dg/lfEGBXNNVHj99ddVVB7RY8GgpveXvliGAAJ6DO+9957WgC7ylClT5IxH/DJdfvnlAoOqpc1z0BfHiOzevVufcfXVSCtMMoIvZwj4T+LKmEAfZm7itSadAa/F3nvoumz05vAsqB881/pL0wfj5DfLd+DAgWfVoGR8v9Y71+Shhx4SM2bM0H/oOSCgF3H99deXxt/ZORgWFTBNPkj4z3/+oy/PlLUfqteEsRSG0gngyxwCnj8z4DUcfytWrDBPhVrOaIOCQUv1i4m7AAPi/VNdTpxLl0HxdpWD9ozUvA/UX40TIX62ApYWKKaYPMhQOgFvD867Rqr0q8J9NqNfebxzTLC+xO/1AuMn6HJiQVQ6guoVoSx044MEGBT0BNArwOtT0FeoIHXBtQMGDNAqsOyAoXQCmAmLL40IPXv2lFMaSr8i/Gcz2qB455gMGzbM926c8c0sLr74YrkW5bLLLhNqjYpvZgeJ3p6Qi/90+DT93e9+V9ZsxIgRAqtI/QJmZbooz0830jDXB3NtEPDV4sknn5Rx/hObAJZFYEUvxlHQw0z1PYpdk8w5k7EGBV9R1CxS7+diEx0+H8OgIOCd1ZVBgaHCOhsETPLC6w16Q2ruAXoWKDtomDZtmujRo4c0iOhlYdUxpmkr43HDDTeIO+64Q+AricvtGvD1DAYYX69QrppCjvak4vMmepFqHVQsZmqOUazzmZj+yiuvyPuCcZQnnnhCYLYxPh5gPRZeIVu2bJmJ1U5ZnTLWoHgfvtKMxNy5c8UPf/hDCahVq1bOQGFJf6xeEb6AYJm/q/DII49IfZj/gXEjrOlBGd7BvtKMajL18JvwhU/Gs2bNcv4JHvWDQVGf+WPVFwOYricoxirLVTr2OcG2AliBjvEnGH/8mfcPvT6/V3ZX9cgUPRk7KHv11VdrRvFWjKr/bJgjkshmPlqxESltTAQ9BDzs2FoAPQrvnBhDjbWIlc14B8eALx5EBK8xQW8I5QYNSrdXDz59YvHhqlWrBD45pmuCoLcOKu7CmHjvoV97VVkuj9gbBz1LsFTBe//Q27z55pvVqaSP3vZ45wt5FXrzeNPTFT/nTNe+5KycdJXOcnwJ4BUEryOff/65XAGcCet8fCvKRF8C3/zmN+W6JfxQuNysyrewDEukQcmwG8LqkEA2E8jYV55shsq6k0BUCdCgRPXOs90kkAICNCgpgEqVJBBVAjQoUb3zbDcJpIAADUoKoFIlCUSVAA1KVO88200CKSBAg5ICqFRJAlElQIMS1TvPdpNACggEWsuDtTPeHaKmTp3qZIp4CtpJlSRAAmkgkJRBgX8a7J1hbluIRVIMJEAC0SVgbVDg+7ZFixbRJcaWkwAJxCRgPYainBthVSNW3GKTGQYSIAESAAHrHgp8uGK3bSzXxiYyarcx4iQBEiABa4MSa4tCoiQBEiAB61ceIiMBEiCBWARoUGKRYToJkIA1ARoUa2S8gARIIBYBGpRYZJhOAiRgTYAGxRoZLyABEohFgAYlFhmmkwAJWBOgQbFGxgtIgARiEbCehxJLUarTf/WrX4nmzZvrYuADpVevXlp2HWF5bomSZ3bzTLT2WdND8TpOQuNMOdEGJ5rP1G/KiepJNJ+p35QT1ZNoPlO/KSeqJ9F8pn5TTlRPovlM/aacqJ5E85n6TTlRPYnmM/WbcqJ6XOdLqofSpUsX6YsXlVHe5xGHj+Fu3bohKn3xwscrAwmQQHQIJGVQhg4d6kuoTZs2An8q0KAoEjySQDQIpOyVx7WPVVOfKbu+XaZ+U2Z5dgRMfqZspy1+blO/KcfXYJfD1G/Kdtri5zb1m3J8DanJQVekqeFKrSQQSQIp66FEkiYbTQIRJ0CDEvEHgM0nAZcEaFBc0qQuEog4ARqUiD8AbD4JuCRAg+KSJnWRQMQJ0KBE/AFg80nAJQEaFJc0qYsEIk6ABiXiDwCbTwIuCQQ2KMpPj8tKURcJkEB2ErBey9OuXTvRs2dP0aRJE1GxYkXd6sLCQrFhwwYxZswYncYICZBAtAhYTb3v2LGjeOihh0olVFRUJLB4cMeOHaXm40kSIIHwEbDuoSgEMBibN28WH374ocBrT48ePUROTo4oV66cGDdunOjdu7fKyiMJkEBECFgZlH379snXmmeffVbs3r27GKIZM2aIl19+WVSqVElUrVpVXHbZZWL9+vXF8lAgARIIN4GyVapUeSzRJsKgLFmyRBQUFPheUrt2bdGsWTN5Dn6P161b55uPiSRAAuEkEPgrjxfL6dOntXjq1CkdZ4QESCAaBJwaFO92kCtWrIgGQbaSBEhAE3BmUDBmkpeXJxUfO3ZMbN++XRfCCAmQQDQIODMoI0eO1MTGjx+v44yQAAlEh4ATgwKfK/i6g4BXnTVr1kSHIFtKAiSgCQQ2KA8//LB2wLVr1y7B3olmywgJRI5AIIMyaNAg0b59ewntwIED4p577okcQDaYBEjgKwJJG5Q+ffqIG2+8UWo6evSo6Nev31daGSMBEogkAauZsorQTTfdpKfWY1Hg4MGD1amUHekb1y1a8iRPtwS+1GbdQ4Eb0oEDB8qrT5w4Ie677z6BGbSpDqbvVlN2Xb6p35RZnh0Bk58p22mLn9vUb8rxNdjlMPWbsp22+LlN/aYcX0Nqclj1UDDXZMiQIbomixYtEl//+tfln078fwSLBrds2WImUyYBEggxASuDAr/FXkuIFcaxwqZNm+JudRDrWqaTAAlkJwGrVx7vWp14zbXJG08Xzpu+W005ER02eUz9pmyjK5G8pn5TTkSHTR5Tvynb6Eokr6nflBPRYZPH1G/KNroSyWvqN+VEdNjkMfWbso0ul3mtNlhyWTB1kQAJhI+AVQ8lfM1ni0iABFwSoEFxSZO6SCDiBGhQIv4AsPkk4JIADYpLmtRFAhEnQIMS8QeAzScBlwRoUFzSpC4SiDgBGpSIPwBsPgm4JECD4pImdZFAxAkENih16tSJOEI2nwRIQBGwWsuDi+CKtHnz5qJWrVrSS6BShJXHWAyIZfH79+9XyTySAAlEiID11Pv58+eXigdreIYPH86VxqVS4kkSCCeBpAzKoUOHxMaNG8VHH30k4CHwyiuvFK1atRKVK1eWlI4fPy569eoVTmJsFQmQQEwC1gYlpqYzJ6ZNmybgjhThpz/9qTQ6UuA/JEACkSAQeFDWS+mNN97QIjZjYiABEogWAacGJTc3V9M7fPiwjjNCAiQQDQLODErnzp0F/hCw2cs//vGPaBBkK0mABDQB68/G6sqePXuKTp06iZycHDluoraGLCoqElOnTuWnYwWKRxKIEIGkDQrGSBo3blwMFXomo0aN4mBsMSoUSCA6BMpWqVLlsWSai/GSGjVqiM8//1yULVtWlC9fXm5gDTcbiK9fvz4ZtbyGBEggiwk4+2x8xRVXiEceeUQaE/DgZ+MsfipYdRJIkoCzQdnVq1eLCRMm6GrccccdOs4ICZBANAg4MyjA9fbbb2t3F2qCWzQwspUkQAIgkPSgbCx86muPaz8h9MUbi3hy6eSZHLdYV4WdZ6x2m+lWPZTq1aub1xeT7777bi3v2rVLx11ElKFSukxZpbs6mvpN2VU5So+p35RVPldHU78puypH6TH1m7LK5+po6jdlV+UoPaZ+U1b5XB1N/absqhxbPVY9FGxd0KJFC7Fq1Srx97//XWzbtk1goWBeXp7o27evaNeunS5/8eLFOs4ICZBANAhYGRQgwSfh9u3by79YiNasWSPefPPNWKeZTgIkEFICVgYFPZNGjRqJWK8+hYWFYtasWeKll15yjssckzFl1wWa+k2Z5dkRMPmZsp22+LlN/aYcX4NdDlO/Kdtpi5/b1G/K8TWkJkfS81Bat24t6tatK2rWrCn27t0rtm7dKnbv3p2aWlIrCZBAVhBI2qBkRetYSRIggbQSsPrKk9aasTASIIGsI0CDknW3jBUmgcwlQIOSufeGNSOBrCNAg5J1t4wVJoHMJUCDkrn3hjUjgawjQIOSdbeMFSaBzCVAg5K594Y1I4GsI0CDknW3jBUmgcwlYDX1PlYzmjVrJn72s5/JLSCRZ8iQISI/Pz9Wdqb/n8DMmTPl9pnYRrN///6+XM4//3zx1FNPyXxHjhwRAwYM8M2XSGLYy0uEAfOkloCTHgo2pq5atao4sz+t/KtYsWJqax0S7du3b5e8sBnV/fff79sqbKuJtVNgG9Q1SdjL8wXIxLQSCGxQ7rzzTlGrVq20VjoshcEQnzx5UjbnuuuuE3Xq1CnWNGwH0bRpU5l24MABMX369GLnbYWwl2fLg/ndEwhkUPAf4Dvf+Y6s1dGjR93XLgIan3vuOdlKbJCDjb29YejQoVocO3asjgeJhL28IGx4bXACgQzKo48+KsqUKSP27NkjPvjgg+C1iaCGOXPm6PEm9Ebatm0rKWBMBa+RCEuXLpWbWUkh4D9hLy8gHl4ekEDSBuVb3/qWaNiwodyU+vHHHw9YjWhfPmbMGL25N3ol8Hd08803SygYsPV6E3BBKuzluWBEHckRSNqgDBw4UJaIgcKdO3cmVzqvkgTAD70QhGrVqklXruj5ITz55JPy6PKfsJfnkhV12RFIyqA88cQTcivIEydOiPHjx9uVyNy+BGA4jh8/Ls+pr2QbN24U7777rm/+oIlhLy8oH16fHAFrgwIPgfBrjACn6AzuCPzlL38ppswcpC120oEQ9vIcIKIKSwLWBmXYsGGyiP/+979iwYIFlsUxe2kEunXrVuz0oEGDismuhbCX55oX9cUnYGVQMPkqJydHav35z38eXztzJEwAX3WwP6834D88ZsqmIoS9vFQwo874BKwMyrXXXis1Ys5J586dBQZm1V+DBg10abfeeqtMv/TSS3UaI7EJYD6P+qqDiW7KWGNgduTIkbEvTPJM2MtLEgsvc0DAai2P8k6GXspNN90Us/hOnTrJc/higYFFhtIJqPk8yIWJZ/ARjXk9mJfSpEkT0bFjR7F8+fLSlVicDXt5FiiY1TEBK4OCngkcffmFChUq6MWB+JU9ffq02L9/v1/WpNLC6jtWzecBFIxLYeIZwrhx48Qf//hHyfS+++5zZlDCXp6Ed+afsD4vZ6t9qtx4RyuD8v3vfz+mPnxKVl9/sNrY9dwU1TtSFTBlle7qaOo3ZVflqPk8cNSEFdsqYLX2smXLBHp7lSpVEjAqTz/9tDqd9DHs5Skw5v0yZZXP1dHUb8quylF6TP2mrPKl+2g1hpLuyoW9PDWfB+186623ShhhzJBViwevv/56Ua9evUBIwl5eIDi82AkBGhQnGO2VXH755bpHhwlt6KL7hRdffFEm4xcIq4WTDWEvL1kuvM4tAWcGBWMmqQym71ZTdl22qd+Ug5b3wAMPaBWlvcrAT/ShQ4dkXqydwpYGyYSwl2cyMe+XKZv5g8qmflMOqt+83tRvymb+dMl0RZou0iyHBCJAwFkPJQKs2EQSIIE4BGhQ4gDiaRIggcQJ0KAkzoo5SYAE4hCgQYkDiKdJgAQSJ0CDkjgr5iQBEohDgAYlDiCeJgESSJwADUrirJiTBEggDgEalDiAeJoESCBxAjQoibNiTkcE4AmRIZwErFYbAwE2pc7LyyuVxuzZs8WsWbNKzcOT6SeQbt/G3hY++OCDok2bNnJXf6xLwgbn2K7h17/+NX06eUFledy6h3LBBRdoH8bKl7F5DLoqNsuZZmz10+3bWIH47W9/K7DbH3omapk99s/B2iTsvq+2vVD5ecxeAtY9FNXUoqIisXbtWiUWO6bK9UOxQihYE8BqZfQesUkWfCm/8MIL2mshlLn2pQydP/nJT+Suc4hjVfVf//pX2TPBdgyXXHKJKFeunIDjMbUFJvIxZC8B68WBzz//vHSODufd/fr1y96WR7Tm2LpTbbKEbSa9/pOxVYJyf4oNybdt2xaY0quvvirgZwir0X/0ox8V2/MF+720aNFCljFlyhS9W13gQqngrBGwfuU5azVlwU4IpNO3MfbCVU7LYJzMXfz+8Ic/6Db16NFDxxnJXgI0KNl775Kuebp8G1999dW6jv/85z91XEVgZNSOdLVr11bJPGYxgaTHUODQG18Nzj33XAGH3hixX7RokXj99dezGEc0qq58G19zzTUp9aVcq1YtDfT999/XcW8Em0edd955Qvly9p5jPPsIJN1DwQOAUXt0aeGgCu/CeB+fOHFi9lGIYI3T4dvYO98EY25+4dixYzoZ/oIYsptAUgYFA2z4lVu9erVYt25dMXcZF110kXQBkd1YolH7VPs2xnQCFfbu3auixY5eg3LhhRcWO0ch+whYv/JgZN7PeRfmGWDfUswzgMfAVq1aiQ0bNmQfkQjV2M+38aRJk5wRSOQ1JpE8zipERSknYN1D8TMmqOWbb74p3njjDV1hjPAzZC6BdPg2hmM4FWL5aMYENxX27dunojxmKQFrg1JaOxcuXKhPN27cWMcZySwC6fJtXFBQoBtuOoJXJzCor4L5WVml85g9BJwalE8//VS3vHLlyjrOSGYRiOXbGLVUvpRd1PjgwYNaTaNGjXTcG1HjLJniBsJbN8btCViPoZRWBKZSq7B7924VdXKkr1onGEU6fRtv3bpVXHXVVbLieAVevHhxsUbgc7H64Tl8+HCxc0EFPi9BCSZ3vdMeyoABA3QttmzZouMuImpRmdJlyird1dHUb8quylF6TP2mrPIFPapp9+gR+PlShn7lSzloWXBSphzAeX9slN7vfe97Kir9OGvBQcTkZ8oOiiimwtRvysUyOxBM/absoIikVFgZlBEjRohXXnlFOu72PiBt27YV06ZNk2t8UAssAkM+hswikG7fxmi9+mHBfCV8QVKfhnv27Cl7S8gD4zZ58mREGbKcgPUrDwbRunbtKv/82o6HA3umMGQWARvfxlj0iV88rE6+9957AzUErx7PPvusnFHdoEEDX8Px8ssvByqDF2cOAaseinfthV8TMG4yePBgOeHN73yQNHPQzpSD6Pa71tRvyn7XBEkz9ZtyEN24Nt2+jVV98/PzBV6FP/nkE5Wkj9gCA6uMsYLddTD5mTLLc03gS33W2xfgMmyMg1F7DKphbw0sg3/vvfdSU0NqDRUBDM5iTsrKlSuF64H7UIHK0sYkZVCytK2sNgmQQIoJWL3ypLguVE8CJJDlBGhQsvwGsvokkEkEaFAy6W6wLiSQ5QRoULL8BrL6JJBJBGhQMulusC4kkOUEaFCy/Aay+iSQSQRoUDLpbrAuJJDlBJwZFExyYyABEog2Aeu1PApXbm6uGD58uJwxq/a0wLkjR47IZepTp05VWXkkARKICIGkeigtW7aUazCw4thrTMAMMtxcMpAACUSPgHUPBa4RsJpYbS4MfzyrVq0ScMRdv359AedO2E+DgQRIIHoErA0KNuhRxmTFihUltiqYPn169CiyxSRAApKA9StPhw4d5IUYK+G+J3yKSIAEvASsDAr2By1X7stODdyOMpAACZCAl4DVKw/2QVFh6dKlAtv4YX8LjJ3AvzH2t8ArDzYnZiABEogegbJnvso8lmizO3fuLN0sID8cYXfv3l0e0WvBQCz8vWB7SOwfChelDCRAAtEiYPXK43Vm3a5dO7m5MPwbz5s3T2zevFmSw16kvXr1EnT0Fa0Hia0lARCweuXBdo/eMHr0aLF27Vqd1KdPH9G7d28pDxkyROCPgQRIIDoErHoohw4d0mR27NhRzJjgxMyZM8WJEydkHuUuQV/ACAmQQOgJWBkUrzNr9YpjEvrss89kEsZRGEiABKJFIGmDcvToUV9ShYWFMj1TPJn5VpKJJEACKSFgNYaivMChJrFeaapVqyYrCp8rLgN91bqkKQR5kqdbAl9qs+qhbNq0Sc43waXwRGcGzEfBWh+EgoIC83Qg2ezxmHIg5T4Xm/pN2eeSQEmmflMOpNznYlO/KftcEijJ1G/KgZT7XGzqN2WfSwIlmfpNOZByn4tN/absc0lakqwMCmqE9TsIGCN55plnZBz/4JOydyr+woUL9TlGSIAEokHA6pUHSJ5++mlx5ZVXipo1a4q8vDwxf/58gdcbNSUfeTAw+8ILLyDKQAIkECEC1j0UsOnbt6/46KOPNCavMdmwYYO4/fbb9TlXEdM3rSm7KkfpMfWbssrn6mjqN2VX5Sg9pn5TVvlcHU39puyqHKXH1G/KKp+ro6nflF2Vo/SY+k1Z5Uv3MbAr0jZt2oimTZvK/VAwa5aBBEggugQCG5ToomPLSYAETAJJvfKYSiiTAAmQAAjQoPA5IAEScEaABsUZSioiARKgQeEzQAIk4IwADYozlFREAiRAg8JngARIwBkBGhRnKKmIBEiABoXPAAmQgDMCVmt57r77bnHttdcmVHh+fj63gEyIFDORQHgIWBkU7IFi+jKOhcL1fiixymE6CZBA5hCwMijLli0Tp06dill77HSfm5srz69cuTJmPp4gARIIJwGna3kmTZokGjRoIEn94Ac/EPv37w8nNbaKBEjAl4CzQVn0TJQxgQdBGhNf3kwkgVATcGZQsEeKCnPnzlVRHkmABCJEwJlB6dChg8SGwdgFCxZECCGbSgIkoAg4MSgwJueee67UiR3bGEiABKJJwIlBueWWWzS9GTNm6DgjJEAC0SLgxKAox+hwVbp169ZoEWRrSYAENIHABmXQoEFC+QR56623tGJGSIAEokcgsEG55pprJDXsuj1lypToEWSLSYAENIFABgU73ufk5EhlH3/8sVbKCAmQQDQJWE29NxHddtttOmn27Nk6nooIffG6pUqe5OmWwJfaAvVQmjdvLrWcPHlSLFmyJBX10zrVOI1KMGWV7upo6jdlV+UoPaZ+U1b5XB1N/absqhylx9Rvyiqfq6Op35RdlaP0mPpNWeVzdTT1m7Krcmz1JG1QsFZHNYIOvmyxMz8JhJNA0gala9eumsif/vQnHWeEBEggugSSMigNGzYU1atXl9QOHDggdu7cmXKCpu9WU3ZdAVO/KbM8OwImP1O20xY/t6nflONrsMth6jdlO23xc5v6TTm+htTkcLp9QWqqSK0kQALZQiCpHkq2NI71JAESSC8BGpT08mZpJBBqAjQoob69bBwJpJcADUp6ebM0Egg1ARqUUN9eNo4E0kuABiW9vFkaCYSaAA1KqG8vG0cC6SVAg5Je3iyNBEJNwIlBqVmzZqghsXEkQAKJEUhq+4I6deqIYcOGiaZNm4py5b5Ugam/hw8fFjNnzhSvvfZaYqUzFwmQQKgIWE+9x/6xTz31lChTJnbnBm5Ix44dGypQbAwJkEB8AmXPOD9/LH62r3JMnDhRVKpUSSZ88skn4tVXXxXYXAlO1OvWrSu3NKhfv77Yvn272LVr11cXMkYCJBB6AtavPDVq1JBQTp8+Lfr3768BYU+UUaNGiXbt2sk07DX7zjvv6POMkAAJhJ9A7PcWn7a3bt1ap8J/sRnmzJmjk9BLYSABEogWASuDsmfPHk2natWqOq4iF110kYoK+OhhIAESiBYBK4OSn58vCgoKJCG8+lx88cXFaHXv3l3Lf/vb33ScERIggWgQsP7K07JlSzF69Gg5CAtE6IkcPHhQYBc3fPnB52NsWI0vQQwkQALRImBtUIAH2z/+/ve/F36vPZMnTxbz5s2LFkW2lgRIQBKwNijt27cXI0aM0PNQCgsLxalTp+SnZLUL/r/+9S+Zh4xJgASiRcDaoMydO1caE3w2njBhgli+fLkmhl6L+rqzYMECMWnSJH2OERIggfATsBqUveuuu3TPBAbDa0yA6p577hEwNAhdunSRR/5DAiQQHQJWBqVJkyaazLJly3TcG4FbDYSKFSt6kxknARKIAAGrmbIVKlTQSNSiQJ3w/0hpa3zMvDYyffHa0IqflzzjM7LJEXaeibKw6qF8+OGHWu8NN9yg4yqCbQzUVgYYrHUZ1ICv0mnKKt3V0dRvyq7KUXpM/aas8rk6mvpN2VU5So+p35RVPldHU78puypH6TH1m7LK5+po6jdlV+XY6rEyKN7XnE6dOolbb71Vl1evXj0590Q1bMeOHfocIyRAAtEgYPXKs2nTJrFixQrRoUMHuaq4b9++4vbbbxdFRUWifPnymtjJkyfFgw8+qGVGSIAEokHAqocCJOPHjxd//vOfpRGBjB6J15hs27ZNfu3BOZfB9N1qyi7Lgi5TvymzPDsCJj9TttMWP7ep35Tja7DLYeo3ZTtt8XOb+k05vobU5LCeh+KtBjZbat68uZwxi/1PsIUBAwmQQHQJBDIo0cXGlpMACfgRsH7l8VPCNBIgARIAARoUPgckQALOCNCgOENJRSRAAjQofAZIgAScEaBBcYaSikiABGhQ+AyQAAk4I0CD4gwlFZEACVg7+oqFLDc3Vxw7dizWaaaHkMDw4cPlMgy4oIXTt0wN2VLPTOVnU6//AYPkCS9R2nSeAAAAAElFTkSuQmCC;" vertex="1" parent="1">
                    <mxGeometry x="50" y="224" width="109.98" height="106" as="geometry"/>
                </mxCell>
                <mxCell id="7" value="&lt;font color=&quot;#000000&quot;&gt;&lt;span style=&quot;background-color: rgb(255, 255, 255);&quot;&gt;WinRate=0.5&lt;br&gt;N=25&lt;br&gt;&lt;/span&gt;&lt;/font&gt;" style="text;html=1;strokeColor=none;fillColor=none;align=center;verticalAlign=middle;whiteSpace=wrap;rounded=0;" vertex="1" parent="1">
                    <mxGeometry x="168" y="259" width="60" height="30" as="geometry"/>
                </mxCell>
                <mxCell id="11" value="&lt;font color=&quot;#000000&quot;&gt;&lt;span style=&quot;background-color: rgb(255, 255, 255);&quot;&gt;WinRate=0.3&lt;br&gt;N=28&lt;br&gt;&lt;/span&gt;&lt;/font&gt;" style="text;html=1;strokeColor=none;fillColor=none;align=center;verticalAlign=middle;whiteSpace=wrap;rounded=0;" vertex="1" parent="1">
                    <mxGeometry x="355" y="262" width="60" height="30" as="geometry"/>
                </mxCell>
                <mxCell id="12" value="&lt;font color=&quot;#000000&quot;&gt;&lt;span style=&quot;background-color: rgb(255, 255, 255);&quot;&gt;WinRate=0.2&lt;br&gt;N=22&lt;br&gt;&lt;/span&gt;&lt;/font&gt;" style="text;html=1;strokeColor=none;fillColor=none;align=center;verticalAlign=middle;whiteSpace=wrap;rounded=0;" vertex="1" parent="1">
                    <mxGeometry x="546" y="259" width="60" height="30" as="geometry"/>
                </mxCell>
                <mxCell id="13" value="&lt;font color=&quot;#000000&quot;&gt;&lt;span style=&quot;background-color: rgb(255, 255, 255);&quot;&gt;WinRate=0.3&lt;br&gt;N=25&lt;br&gt;&lt;/span&gt;&lt;/font&gt;" style="text;html=1;strokeColor=none;fillColor=none;align=center;verticalAlign=middle;whiteSpace=wrap;rounded=0;" vertex="1" parent="1">
                    <mxGeometry x="745" y="259" width="60" height="30" as="geometry"/>
                </mxCell>
                <mxCell id="14" value="" style="endArrow=classic;html=1;fontColor=#000000;exitX=0.25;exitY=1;exitDx=0;exitDy=0;entryX=0.5;entryY=0;entryDx=0;entryDy=0;strokeColor=#000000;" edge="1" parent="1" source="2" target="3">
                    <mxGeometry width="50" height="50" relative="1" as="geometry">
                        <mxPoint x="473" y="244" as="sourcePoint"/>
                        <mxPoint x="523" y="194" as="targetPoint"/>
                        <Array as="points">
                            <mxPoint x="384" y="161"/>
                            <mxPoint x="291" y="161"/>
                        </Array>
                    </mxGeometry>
                </mxCell>
                <mxCell id="15" value="" style="endArrow=classic;html=1;strokeColor=#000000;fontColor=#000000;exitX=0.75;exitY=1;exitDx=0;exitDy=0;entryX=0.5;entryY=0;entryDx=0;entryDy=0;" edge="1" parent="1" source="2" target="4">
                    <mxGeometry width="50" height="50" relative="1" as="geometry">
                        <mxPoint x="473" y="244" as="sourcePoint"/>
                        <mxPoint x="523" y="194" as="targetPoint"/>
                        <Array as="points">
                            <mxPoint x="437" y="157"/>
                            <mxPoint x="480" y="157"/>
                        </Array>
                    </mxGeometry>
                </mxCell>
                <mxCell id="16" value="" style="endArrow=classic;html=1;strokeColor=#000000;fontColor=#000000;exitX=1;exitY=1;exitDx=0;exitDy=0;entryX=0.5;entryY=0;entryDx=0;entryDy=0;" edge="1" parent="1">
                    <mxGeometry width="50" height="50" relative="1" as="geometry">
                        <mxPoint x="460" y="119" as="sourcePoint"/>
                        <mxPoint x="673" y="224" as="targetPoint"/>
                        <Array as="points">
                            <mxPoint x="460" y="142"/>
                            <mxPoint x="673" y="147"/>
                        </Array>
                    </mxGeometry>
                </mxCell>
                <mxCell id="17" value="" style="endArrow=classic;html=1;strokeColor=#000000;fontColor=#000000;exitX=0;exitY=1;exitDx=0;exitDy=0;entryX=0.5;entryY=0;entryDx=0;entryDy=0;" edge="1" parent="1" source="2" target="6">
                    <mxGeometry width="50" height="50" relative="1" as="geometry">
                        <mxPoint x="473" y="244" as="sourcePoint"/>
                        <mxPoint x="523" y="194" as="targetPoint"/>
                        <Array as="points">
                            <mxPoint x="357" y="148"/>
                            <mxPoint x="229" y="148"/>
                            <mxPoint x="105" y="148"/>
                            <mxPoint x="105" y="167"/>
                        </Array>
                    </mxGeometry>
                </mxCell>
                <mxCell id="18" value="&lt;font color=&quot;#000000&quot;&gt;&lt;span style=&quot;background-color: rgb(255, 255, 255);&quot;&gt;C4&lt;/span&gt;&lt;/font&gt;" style="text;html=1;strokeColor=none;fillColor=none;align=center;verticalAlign=middle;whiteSpace=wrap;rounded=0;" vertex="1" parent="1">
                    <mxGeometry x="98" y="175" width="60" height="30" as="geometry"/>
                </mxCell>
                <mxCell id="19" value="&lt;font color=&quot;#000000&quot;&gt;&lt;span style=&quot;background-color: rgb(255, 255, 255);&quot;&gt;D3&lt;/span&gt;&lt;/font&gt;" style="text;html=1;strokeColor=none;fillColor=none;align=center;verticalAlign=middle;whiteSpace=wrap;rounded=0;" vertex="1" parent="1">
                    <mxGeometry x="290" y="175" width="60" height="30" as="geometry"/>
                </mxCell>
                <mxCell id="20" value="&lt;font color=&quot;#000000&quot;&gt;&lt;span style=&quot;background-color: rgb(255, 255, 255);&quot;&gt;F5&lt;/span&gt;&lt;/font&gt;" style="text;html=1;strokeColor=none;fillColor=none;align=center;verticalAlign=middle;whiteSpace=wrap;rounded=0;" vertex="1" parent="1">
                    <mxGeometry x="470" y="178" width="60" height="30" as="geometry"/>
                </mxCell>
                <mxCell id="21" value="&lt;font color=&quot;#000000&quot;&gt;&lt;span style=&quot;background-color: rgb(255, 255, 255);&quot;&gt;E6&lt;/span&gt;&lt;/font&gt;" style="text;html=1;strokeColor=none;fillColor=none;align=center;verticalAlign=middle;whiteSpace=wrap;rounded=0;" vertex="1" parent="1">
                    <mxGeometry x="677" y="175" width="60" height="30" as="geometry"/>
                </mxCell>
                <mxCell id="22" value="" style="endArrow=classic;html=1;strokeColor=#000000;fontColor=#000000;exitX=0.25;exitY=1;exitDx=0;exitDy=0;" edge="1" parent="1" source="6">
                    <mxGeometry width="50" height="50" relative="1" as="geometry">
                        <mxPoint x="473" y="244" as="sourcePoint"/>
                        <mxPoint x="52" y="369" as="targetPoint"/>
                    </mxGeometry>
                </mxCell>
                <mxCell id="23" value="" style="endArrow=classic;html=1;strokeColor=#000000;fontColor=#000000;exitX=0.5;exitY=1;exitDx=0;exitDy=0;" edge="1" parent="1" source="6">
                    <mxGeometry width="50" height="50" relative="1" as="geometry">
                        <mxPoint x="473" y="244" as="sourcePoint"/>
                        <mxPoint x="103" y="367" as="targetPoint"/>
                    </mxGeometry>
                </mxCell>
                <mxCell id="24" value="" style="endArrow=classic;html=1;strokeColor=#000000;fontColor=#000000;exitX=0.75;exitY=1;exitDx=0;exitDy=0;" edge="1" parent="1" source="6">
                    <mxGeometry width="50" height="50" relative="1" as="geometry">
                        <mxPoint x="473" y="244" as="sourcePoint"/>
                        <mxPoint x="153" y="368" as="targetPoint"/>
                    </mxGeometry>
                </mxCell>
                <mxCell id="25" value="&lt;font style=&quot;font-size: 50px;&quot;&gt;...&lt;/font&gt;" style="text;html=1;strokeColor=none;fillColor=none;align=center;verticalAlign=middle;whiteSpace=wrap;rounded=0;labelBackgroundColor=#FFFFFF;fontColor=#000000;" vertex="1" parent="1">
                    <mxGeometry x="74.99" y="392" width="60" height="9" as="geometry"/>
                </mxCell>
            </root>
        </mxGraphModel>
    </diagram>
</mxfile>